<?xml version="1.0" encoding="utf-8"?>
<!-- Generator: Adobe Illustrator 19.0.0, SVG Export Plug-In . SVG Version: 6.00 Build 0)  -->
<svg version="1.1" id="Warstwa_1" xmlns="http://www.w3.org/2000/svg" xmlns:xlink="http://www.w3.org/1999/xlink" x="0px" y="0px"
	 viewBox="0 0 100 100" style="enable-background:new 0 0 100 100;" xml:space="preserve">
<style type="text/css">
	.st0{fill:#0961AA;}
	.st1{fill:#010101;}
	.st2{fill:#FFFFFF;}
</style>
<rect id="XMLID_31_" x="60.5" y="23.3" class="st0" width="33.9" height="49.2"/>
<g id="XMLID_33_">
	<g id="XMLID_34_">
		<g id="XMLID_91_">
			<path id="XMLID_29_" class="st1" d="M64.7,88.7H5.2c-2.8,0-5.2-2.3-5.2-5.2V48.8c0-2.8,2.3-5.2,5.2-5.2h50.6
				c0.5,0,0.8,0.4,0.8,0.8s-0.4,0.8-0.8,0.8H5.2c-1.9,0-3.5,1.6-3.5,3.5v34.7c0,1.9,1.6,3.5,3.5,3.5h59.6c0.5,0,0.8,0.4,0.8,0.8
				C65.6,88.3,65.2,88.7,64.7,88.7z"/>
		</g>
		<g id="XMLID_87_">
			<path id="XMLID_88_" class="st1" d="M94.8,88.7H60.1c-2.8,0-5.2-2.3-5.2-5.2v-67c0-2.8,2.3-5.2,5.2-5.2h34.7
				c2.8,0,5.2,2.3,5.2,5.2v67C100,86.3,97.7,88.7,94.8,88.7z M60.1,13c-1.9,0-3.5,1.6-3.5,3.5v67c0,1.9,1.6,3.5,3.5,3.5h34.7
				c1.9,0,3.5-1.6,3.5-3.5v-67c0-1.9-1.6-3.5-3.5-3.5H60.1z"/>
		</g>
		<g id="XMLID_83_">
			<path id="XMLID_84_" class="st1" d="M77.5,84.5c-2.1,0-3.8-1.7-3.8-3.8c0-2.1,1.7-3.8,3.8-3.8c2.1,0,3.8,1.7,3.8,3.8
				C81.2,82.8,79.6,84.5,77.5,84.5z M77.5,78.6c-1.2,0-2.1,1-2.1,2.1c0,1.2,0.9,2.1,2.1,2.1c1.2,0,2.1-0.9,2.1-2.1
				C79.6,79.5,78.6,78.6,77.5,78.6z"/>
		</g>
		<g id="XMLID_79_">
			<path id="XMLID_80_" class="st1" d="M95.3,74.2H59.7c-0.5,0-0.8-0.4-0.8-0.8V22.5c0-0.5,0.4-0.8,0.8-0.8h35.6
				c0.5,0,0.8,0.4,0.8,0.8v50.8C96.1,73.8,95.7,74.2,95.3,74.2z M60.5,72.5h33.9V23.3H60.5V72.5z"/>
		</g>
		<g id="XMLID_75_">
			<path id="XMLID_76_" class="st1" d="M83.7,18.6h-2.4c-0.5,0-0.8-0.4-0.8-0.8s0.4-0.8,0.8-0.8h2.4c0.5,0,0.8,0.4,0.8,0.8
				S84.1,18.6,83.7,18.6z M79.6,18.6h-8.3c-0.5,0-0.8-0.4-0.8-0.8s0.4-0.8,0.8-0.8h8.3c0.5,0,0.8,0.4,0.8,0.8S80,18.6,79.6,18.6z"/>
		</g>
		<g id="XMLID_71_">
			<path id="XMLID_72_" class="st1" d="M55.8,84.7H11.2c-0.5,0-0.8-0.4-0.8-0.8V48.3c0-0.5,0.4-0.8,0.8-0.8h44.6
				c0.5,0,0.8,0.4,0.8,0.8v35.6C56.6,84.4,56.2,84.7,55.8,84.7z M12,83.1h43V49.2H12V83.1z"/>
		</g>
		<g id="XMLID_67_">
			<path id="XMLID_68_" class="st1" d="M6.4,73.1c-0.5,0-0.8-0.4-0.8-0.8V64c0-0.5,0.4-0.8,0.8-0.8c0.5,0,0.8,0.4,0.8,0.8v8.3
				C7.2,72.8,6.8,73.1,6.4,73.1z M6.4,63.2c-0.5,0-0.8-0.4-0.8-0.8v-2.4c0-0.5,0.4-0.8,0.8-0.8c0.5,0,0.8,0.4,0.8,0.8v2.4
				C7.2,62.8,6.8,63.2,6.4,63.2z"/>
		</g>
		<g id="XMLID_32_">
			<g id="XMLID_63_">
				<path id="XMLID_64_" class="st2" d="M91.1,32.3H71.6c-0.5,0-0.8-0.4-0.8-0.8s0.4-0.8,0.8-0.8h19.5c0.5,0,0.8,0.4,0.8,0.8
					S91.5,32.3,91.1,32.3z M67.3,32.3h-3.4c-0.5,0-0.8-0.4-0.8-0.8s0.4-0.8,0.8-0.8h3.4c0.5,0,0.8,0.4,0.8,0.8S67.8,32.3,67.3,32.3z
					"/>
			</g>
			<g id="XMLID_59_">
				<path id="XMLID_60_" class="st2" d="M69.5,34.5c-1.6,0-3-1.3-3-3c0-1.6,1.3-3,3-3c1.6,0,3,1.3,3,3
					C72.4,33.2,71.1,34.5,69.5,34.5z M69.5,30.2c-0.7,0-1.3,0.6-1.3,1.3c0,0.7,0.6,1.3,1.3,1.3c0.7,0,1.3-0.6,1.3-1.3
					C70.8,30.8,70.2,30.2,69.5,30.2z"/>
			</g>
			<g id="XMLID_55_">
				<path id="XMLID_56_" class="st2" d="M91.1,41.1H79.6c-0.5,0-0.8-0.4-0.8-0.8s0.4-0.8,0.8-0.8h11.4c0.5,0,0.8,0.4,0.8,0.8
					S91.5,41.1,91.1,41.1z M75.3,41.1H63.9c-0.5,0-0.8-0.4-0.8-0.8s0.4-0.8,0.8-0.8h11.4c0.5,0,0.8,0.4,0.8,0.8S75.8,41.1,75.3,41.1
					z"/>
			</g>
			<g id="XMLID_51_">
				<path id="XMLID_52_" class="st2" d="M77.5,43.2c-1.6,0-3-1.3-3-3c0-1.6,1.3-3,3-3c1.6,0,3,1.3,3,3
					C80.5,41.9,79.1,43.2,77.5,43.2z M77.5,38.9c-0.7,0-1.3,0.6-1.3,1.3c0,0.7,0.6,1.3,1.3,1.3c0.7,0,1.3-0.6,1.3-1.3
					C78.8,39.5,78.2,38.9,77.5,38.9z"/>
			</g>
			<g id="XMLID_47_">
				<path id="XMLID_48_" class="st2" d="M77.5,70.3c-7,0-12.7-5.7-12.7-12.7c0-7,5.7-12.7,12.7-12.7c7,0,12.7,5.7,12.7,12.7
					C90.2,64.6,84.5,70.3,77.5,70.3z M77.5,46.5c-6.1,0-11.1,5-11.1,11.1c0,6.1,5,11.1,11.1,11.1c6.1,0,11.1-5,11.1-11.1
					C88.6,51.4,83.6,46.5,77.5,46.5z"/>
			</g>
			<g id="XMLID_43_">
				<path id="XMLID_44_" class="st2" d="M77.5,70.3c-3.9,0-6.9-5.6-6.9-12.7c0-7.1,3-12.7,6.9-12.7c3.9,0,6.9,5.6,6.9,12.7
					C84.4,64.7,81.4,70.3,77.5,70.3z M77.5,46.5c-2.9,0-5.3,5.1-5.3,11.1c0,6,2.4,11.1,5.3,11.1c2.9,0,5.3-5.1,5.3-11.1
					C82.8,51.5,80.3,46.5,77.5,46.5z"/>
			</g>
			<g id="XMLID_41_">
				<path id="XMLID_4_" class="st2" d="M89.4,58.4H65.6c-0.5,0-0.8-0.4-0.8-0.8s0.4-0.8,0.8-0.8h23.8c0.5,0,0.8,0.4,0.8,0.8
					S89.8,58.4,89.4,58.4z"/>
			</g>
			<g id="XMLID_39_">
				<path id="XMLID_3_" class="st2" d="M77.5,70.3c-0.5,0-0.8-0.4-0.8-0.8V45.6c0-0.5,0.4-0.8,0.8-0.8c0.5,0,0.8,0.4,0.8,0.8v23.8
					C78.3,69.9,77.9,70.3,77.5,70.3z"/>
			</g>
			<g id="XMLID_37_">
				<path id="XMLID_2_" class="st2" d="M77.5,53c-3.3,0-6.6-0.6-9.9-1.7c-0.4-0.1-0.7-0.6-0.5-1c0.1-0.4,0.6-0.7,1-0.5
					c6.3,2.1,12.6,2.1,18.8,0c0.4-0.1,0.9,0.1,1,0.5c0.1,0.4-0.1,0.9-0.5,1C84.1,52.5,80.8,53,77.5,53z"/>
			</g>
			<g id="XMLID_35_">
				<path id="XMLID_1_" class="st2" d="M67.8,65.1c-0.3,0-0.7-0.2-0.8-0.6c-0.1-0.4,0.1-0.9,0.5-1c6.6-2.2,13.3-2.2,19.8,0
					c0.4,0.1,0.7,0.6,0.5,1c-0.1,0.4-0.6,0.7-1,0.5c-6.2-2.1-12.5-2.1-18.8,0C68,65.1,67.9,65.1,67.8,65.1z"/>
			</g>
		</g>
	</g>
</g>
<rect id="XMLID_30_" x="12" y="49.2" class="st0" width="43" height="34.3"/>
<g id="XMLID_36_">
</g>
<g id="XMLID_38_">
</g>
<g id="XMLID_40_">
</g>
<g id="XMLID_42_">
</g>
<g id="XMLID_45_">
</g>
<g id="XMLID_46_">
</g>
</svg>
