<?xml version="1.0" encoding="utf-8"?>
<!-- Generator: Adobe Illustrator 19.0.0, SVG Export Plug-In . SVG Version: 6.00 Build 0)  -->
<svg version="1.1" id="Warstwa_1" xmlns="http://www.w3.org/2000/svg" xmlns:xlink="http://www.w3.org/1999/xlink" x="0px" y="0px"
	 viewBox="0 0 100 100" style="enable-background:new 0 0 100 100;" xml:space="preserve">
<style type="text/css">
	.st0{fill:#0961AA;}
	.st1{fill:#0A62AB;}
	.st2{fill:#010101;}
</style>
<polygon id="XMLID_55_" class="st0" points="94,29.1 79,29.1 79,82.1 81.4,80.4 84,82.1 85.9,80.4 89.1,82.1 90.8,80.8 94.4,81.7 
	"/>
<rect id="XMLID_56_" x="18.1" y="20" class="st1" width="42.8" height="9.1"/>
<g id="XMLID_2_">
	<g id="XMLID_3_">
		<g id="XMLID_51_">
			<path id="XMLID_52_" class="st2" d="M72.9,100H6c-0.5,0-0.8-0.4-0.8-0.8V4.9c0-0.5,0.4-0.8,0.8-0.8h66.9c0.5,0,0.8,0.4,0.8,0.8
				v94.2C73.8,99.6,73.4,100,72.9,100z M6.8,98.4h65.3V5.8H6.8V98.4z"/>
		</g>
		<g id="XMLID_47_">
			<path id="XMLID_48_" class="st2" d="M86.3,98.6c-0.3,0-0.6-0.2-0.7-0.5l-7.5-15.4C78,82.6,78,82.5,78,82.4V29.2
				c0-0.5,0.4-0.8,0.8-0.8h15c0.5,0,0.8,0.4,0.8,0.8v53.2c0,0.1,0,0.2-0.1,0.4l-7.5,15.4C86.9,98.4,86.6,98.6,86.3,98.6z M79.7,82.2
				l6.7,13.7L93,82.2V30H79.7V82.2z"/>
		</g>
		<g id="XMLID_43_">
			<path id="XMLID_44_" class="st2" d="M86.3,98.6c-0.3,0-0.6-0.2-0.7-0.5l-2.1-4.4c-0.1-0.2-0.1-0.5,0-0.7c0.1-0.2,0.3-0.4,0.6-0.4
				c1.4-0.3,3.2-0.3,4.6,0c0.2,0.1,0.4,0.2,0.6,0.4c0.1,0.2,0.1,0.5,0,0.7l-2.1,4.4C86.9,98.4,86.6,98.6,86.3,98.6L86.3,98.6z
				 M85.4,94l0.9,1.9l0.9-1.9C86.6,94,86,94,85.4,94z"/>
		</g>
		<g id="XMLID_41_">
			<path id="XMLID_42_" class="st2" d="M94,83.2c-0.1,0-0.3,0-0.4-0.1l-2.4-1.4L89.6,83c-0.3,0.2-0.7,0.3-1,0l-2.4-1.7L84.5,83
				c-0.2,0.2-0.4,0.2-0.6,0.2h0c-0.2,0-0.4-0.1-0.6-0.2l-1.6-1.7L79.3,83c-0.4,0.3-0.9,0.2-1.1-0.2c-0.3-0.4-0.2-0.9,0.2-1.1l3-2.1
				c0.3-0.2,0.8-0.2,1.1,0.1l1.6,1.6l1.6-1.6c0.3-0.3,0.7-0.3,1.1-0.1l2.4,1.8l1.5-1.3c0.3-0.2,0.7-0.3,1-0.1l2.9,1.7
				c0.4,0.2,0.5,0.7,0.3,1.1C94.5,83.1,94.3,83.2,94,83.2z"/>
		</g>
		<g id="XMLID_39_">
			<path id="XMLID_40_" class="st2" d="M82.2,81.3c-0.5,0-0.8-0.4-0.8-0.8V29.2c0-0.5,0.4-0.8,0.8-0.8c0.5,0,0.8,0.4,0.8,0.8v51.3
				C83,80.9,82.6,81.3,82.2,81.3z"/>
		</g>
		<g id="XMLID_37_">
			<path id="XMLID_38_" class="st2" d="M86,81.5c-0.5,0-0.8-0.4-0.8-0.8L85,29.2c0-0.5,0.4-0.8,0.8-0.8c0,0,0,0,0,0
				c0.5,0,0.8,0.4,0.8,0.8l0.2,51.5C86.9,81.1,86.5,81.5,86,81.5C86,81.5,86,81.5,86,81.5z"/>
		</g>
		<g id="XMLID_35_">
			<path id="XMLID_36_" class="st2" d="M90,82.1c-0.5,0-0.8-0.4-0.8-0.8V29.2c0-0.5,0.4-0.8,0.8-0.8c0.5,0,0.8,0.4,0.8,0.8v52.1
				C90.8,81.7,90.4,82.1,90,82.1z"/>
		</g>
		<g id="XMLID_31_">
			<path id="XMLID_32_" class="st2" d="M93.8,30h-15c-0.5,0-0.8-0.4-0.8-0.8v-3.9c0-2.6,2.1-4.7,4.7-4.7h7.2c2.6,0,4.7,2.1,4.7,4.7
				v3.9C94.6,29.6,94.3,30,93.8,30z M79.7,28.3H93v-3.1c0-1.7-1.4-3.1-3.1-3.1h-7.2c-1.7,0-3.1,1.4-3.1,3.1V28.3z"/>
		</g>
		<g id="XMLID_27_">
			<path id="XMLID_28_" class="st2" d="M61.7,30.7H17.3c-0.5,0-0.8-0.4-0.8-0.8V19.2c0-0.5,0.4-0.8,0.8-0.8h44.4
				c0.5,0,0.8,0.4,0.8,0.8v10.7C62.5,30.3,62.1,30.7,61.7,30.7z M18.1,29.1h42.8V20H18.1V29.1z"/>
		</g>
		<g id="XMLID_25_">
			<path id="XMLID_26_" class="st2" d="M60.9,37.8H18.1c-0.5,0-0.8-0.4-0.8-0.8c0-0.5,0.4-0.8,0.8-0.8h42.8c0.5,0,0.8,0.4,0.8,0.8
				C61.7,37.4,61.3,37.8,60.9,37.8z"/>
		</g>
		<g id="XMLID_23_">
			<path id="XMLID_24_" class="st2" d="M60.9,44.5H18.1c-0.5,0-0.8-0.4-0.8-0.8c0-0.5,0.4-0.8,0.8-0.8h42.8c0.5,0,0.8,0.4,0.8,0.8
				C61.7,44.1,61.3,44.5,60.9,44.5z"/>
		</g>
		<g id="XMLID_21_">
			<path id="XMLID_22_" class="st2" d="M60.9,51.2H31.4c-0.5,0-0.8-0.4-0.8-0.8c0-0.5,0.4-0.8,0.8-0.8h29.4c0.5,0,0.8,0.4,0.8,0.8
				C61.7,50.8,61.3,51.2,60.9,51.2z"/>
		</g>
		<g id="XMLID_19_">
			<path id="XMLID_20_" class="st2" d="M50.2,57.9H18.1c-0.5,0-0.8-0.4-0.8-0.8c0-0.5,0.4-0.8,0.8-0.8h32.1c0.5,0,0.8,0.4,0.8,0.8
				C51,57.5,50.6,57.9,50.2,57.9z"/>
		</g>
		<g id="XMLID_17_">
			<path id="XMLID_18_" class="st2" d="M60.9,64.6H18.1c-0.5,0-0.8-0.4-0.8-0.8c0-0.5,0.4-0.8,0.8-0.8h42.8c0.5,0,0.8,0.4,0.8,0.8
				C61.7,64.3,61.3,64.6,60.9,64.6z"/>
		</g>
		<g id="XMLID_15_">
			<path id="XMLID_16_" class="st2" d="M60.9,71.3H27.1c-0.5,0-0.8-0.4-0.8-0.8s0.4-0.8,0.8-0.8h33.8c0.5,0,0.8,0.4,0.8,0.8
				S61.3,71.3,60.9,71.3z"/>
		</g>
		<g id="XMLID_13_">
			<path id="XMLID_14_" class="st2" d="M60.9,78H18.1c-0.5,0-0.8-0.4-0.8-0.8c0-0.5,0.4-0.8,0.8-0.8h42.8c0.5,0,0.8,0.4,0.8,0.8
				C61.7,77.7,61.3,78,60.9,78z"/>
		</g>
		<g id="XMLID_4_">
			<path id="XMLID_5_" class="st2" d="M66,9.9c-0.5,0-0.8-0.4-0.8-0.8V0.8C65.2,0.4,65.5,0,66,0c0.5,0,0.8,0.4,0.8,0.8v8.2
				C66.8,9.5,66.4,9.9,66,9.9z M57.1,9.9c-0.5,0-0.8-0.4-0.8-0.8V0.8c0-0.5,0.4-0.8,0.8-0.8C57.6,0,58,0.4,58,0.8v8.2
				C58,9.5,57.6,9.9,57.1,9.9z M48.3,9.9c-0.5,0-0.8-0.4-0.8-0.8V0.8c0-0.5,0.4-0.8,0.8-0.8s0.8,0.4,0.8,0.8v8.2
				C49.1,9.5,48.8,9.9,48.3,9.9z M39.5,9.9c-0.5,0-0.8-0.4-0.8-0.8V0.8C38.7,0.4,39,0,39.5,0c0.5,0,0.8,0.4,0.8,0.8v8.2
				C40.3,9.5,39.9,9.9,39.5,9.9z M30.6,9.9c-0.5,0-0.8-0.4-0.8-0.8V0.8c0-0.5,0.4-0.8,0.8-0.8c0.5,0,0.8,0.4,0.8,0.8v8.2
				C31.5,9.5,31.1,9.9,30.6,9.9z M21.8,9.9c-0.5,0-0.8-0.4-0.8-0.8V0.8C21,0.4,21.3,0,21.8,0c0.5,0,0.8,0.4,0.8,0.8v8.2
				C22.6,9.5,22.3,9.9,21.8,9.9z M13,9.9c-0.5,0-0.8-0.4-0.8-0.8V0.8C12.1,0.4,12.5,0,13,0s0.8,0.4,0.8,0.8v8.2
				C13.8,9.5,13.4,9.9,13,9.9z"/>
		</g>
	</g>
</g>
<g id="XMLID_1_">
</g>
<g id="XMLID_57_">
</g>
<g id="XMLID_58_">
</g>
<g id="XMLID_59_">
</g>
<g id="XMLID_60_">
</g>
<g id="XMLID_61_">
</g>
</svg>
