<?xml version="1.0" encoding="utf-8"?>
<!-- Generator: Adobe Illustrator 19.0.0, SVG Export Plug-In . SVG Version: 6.00 Build 0)  -->
<svg version="1.1" id="Warstwa_1" xmlns="http://www.w3.org/2000/svg" xmlns:xlink="http://www.w3.org/1999/xlink" x="0px" y="0px"
	 viewBox="0 0 7583.9 1586.7" style="enable-background:new 0 0 7583.9 1586.7;" xml:space="preserve">
<style type="text/css">
	.st0{fill:#FFFFFF;stroke:#FFFFFF;stroke-miterlimit:10;}
	.st1{fill:none;stroke:#FFFFFF;stroke-width:100;stroke-miterlimit:10;}
</style>
<g id="XMLID_2_">
	<g id="XMLID_5_">
		<path id="XMLID_38_" class="st0" d="M0,1586.7v-534.5h141.4c12.5,0,25.2,0.4,38.2,1.2c12.9,0.8,25.5,2,37.7,3.6
			c12.3,1.6,24.1,3.5,35.6,5.8c11.4,2.3,22,5,31.5,8.2c28.5,9.1,53.7,21.3,75.5,36.8c21.8,15.5,40.1,33.7,54.9,54.7
			c14.8,21,26,44.6,33.6,70.5c7.6,26,11.4,54.1,11.4,84.5c0,28.8-3.2,55.7-9.6,80.9c-6.4,25.2-16.1,48.1-29.2,68.9
			c-13,20.8-29.5,39.1-49.3,54.9c-19.8,15.8-43.3,28.8-70.5,39c-22.6,8.5-48.3,14.9-77.1,19.2c-28.8,4.2-61.1,6.4-97.1,6.4H0z
			 M138.2,1504.8c57.3,0,102-7.9,134.2-23.6c28.5-14.1,50.1-34.6,64.7-61.5c14.7-26.9,22-61.3,22-103.1c0-21.8-2.4-41.5-7.2-59.1
			s-11.7-33.2-20.8-46.9c-9.1-13.7-20.1-25.5-33-35.3c-12.9-9.9-27.5-18-43.7-24.4c-15.2-5.8-32.1-10.1-50.8-12.8
			c-18.6-2.6-39.5-4-62.7-4H97.9v370.7H138.2z"/>
		<path id="XMLID_35_" class="st0" d="M1060.7,1319.4c0,40.7-5.8,78.1-17.4,112.1c-11.6,33.9-28.5,63.2-50.7,87.7
			c-22.3,24.5-49.5,43.6-81.9,57.1c-32.3,13.6-69.2,20.4-110.5,20.4c-41.3,0-78.1-6.8-110.5-20.4c-32.4-13.6-59.7-32.6-81.9-57.1
			c-22.2-24.5-39.2-53.7-50.7-87.7c-11.6-34-17.4-71.3-17.4-112.1s5.8-78.1,17.4-112.1c11.6-33.9,28.5-63.2,50.7-87.7
			c22.2-24.5,49.5-43.5,81.9-57.1c32.3-13.6,69.2-20.4,110.5-20.4c41.3,0,78.1,6.8,110.5,20.4c32.4,13.6,59.7,32.6,81.9,57.1
			c22.2,24.5,39.2,53.8,50.7,87.7C1054.9,1241.3,1060.7,1278.7,1060.7,1319.4z M959.6,1319.4c0-32.5-4-60.9-12-85.3
			c-8-24.4-19-44.7-33.1-60.9c-14.1-16.2-30.9-28.4-50.3-36.3c-19.5-8-40.7-12-63.9-12c-23.2,0-44.5,4-63.9,12
			c-19.5,8-36.2,20.1-50.3,36.3c-14.1,16.3-25.2,36.6-33.2,60.9c-8,24.4-12,52.8-12,85.3c0,32.5,4,60.9,12,85.3
			c8,24.4,19,44.6,33.2,60.7c14.1,16.1,30.9,28.2,50.3,36.4c19.4,8.1,40.7,12.2,63.9,12.2c23.2,0,44.5-4.1,63.9-12.2
			c19.4-8.1,36.2-20.3,50.3-36.4c14.1-16.1,25.2-36.3,33.1-60.7C955.6,1380.4,959.6,1351.9,959.6,1319.4z"/>
		<path id="XMLID_33_" class="st0" d="M1439.4,1443.3c11.7-42.1,26.2-87.2,43.5-135.4l92.3-255.7h137.4v534.5h-97.9v-270.9
			c0-39.7,1.6-85.8,4.8-138.2h-3.6c-4.5,15.2-9.9,32.2-16,51.1c-6.1,18.9-12.5,37.6-19.2,55.9l-110.7,302h-63.1l-110.7-302
			c-6.7-18.4-13.1-37-19.2-55.9c-6.1-18.9-11.5-36-16-51.1h-3.6c3.2,49.3,4.8,95.2,4.8,137.8v271.3h-97.9v-534.5h136.6l92.3,254.5
			c15.5,42.3,30,87.9,43.6,136.6H1439.4z"/>
		<path id="XMLID_31_" class="st0" d="M2036.7,1282.3l142.2-230.1h108.7L2085,1371.4v215.3h-97.9v-215.3l-202.5-319.2h108.7
			l142.2,230.1H2036.7z"/>
		<path id="XMLID_28_" class="st0" d="M2755,1212.8c0,37.3-10.3,68.9-31,94.9c-20.6,26-52.5,45.2-95.7,57.7v1.6l159,219.7h-117.5
			l-145.4-206.9h-67.1v206.9h-97.9v-534.5h162.6c26.9,0,51.9,1.5,75.1,4.6c23.2,3.1,43,7.6,59.5,13.8c31.4,12,55.7,29.8,72.7,53.3
			C2746.5,1147.4,2755,1177.1,2755,1212.8z M2505.7,1297.9c22.4,0,41.4-1,56.9-3c15.6-2,28.7-5,39.4-9c19.7-7.4,33.3-17.6,40.9-30.6
			c7.6-12.9,11.4-27.8,11.4-44.6c0-14.4-3-27.1-9-38.1c-6-11.1-16.2-19.8-30.6-26.2c-9.3-4.3-21.1-7.4-35.2-9.4
			c-14.1-2-31.6-3-52.3-3h-69.9v163.8H2505.7z"/>
		<path id="XMLID_25_" class="st0" d="M3179.3,1450.5H2978l-52.3,136.2h-104.3l212.2-534.5h89.5l212.1,534.5h-103.5L3179.3,1450.5z
			 M3077.8,1180.8c-18.7,55.9-35.3,102.6-50,140.2l-18.3,47.6h138.2l-18.3-47.6c-14.5-37.9-31.2-84.6-50-140.2H3077.8z"/>
		<path id="XMLID_23_" class="st0" d="M3411,1586.7v-534.5h97.9v243.3h1.6l201.7-243.3h121.5L3610.8,1317l241.3,269.7h-125.4
			l-216.1-241.3h-1.6v241.3H3411z"/>
		<path id="XMLID_20_" class="st0" d="M4385,1319.4c0,40.7-5.8,78.1-17.4,112.1c-11.6,33.9-28.5,63.2-50.7,87.7
			c-22.2,24.5-49.5,43.6-81.9,57.1c-32.3,13.6-69.2,20.4-110.5,20.4c-41.3,0-78.1-6.8-110.5-20.4c-32.4-13.6-59.7-32.6-81.9-57.1
			c-22.2-24.5-39.2-53.7-50.7-87.7c-11.6-34-17.4-71.3-17.4-112.1s5.8-78.1,17.4-112.1c11.6-33.9,28.5-63.2,50.7-87.7
			c22.3-24.5,49.5-43.5,81.9-57.1c32.3-13.6,69.2-20.4,110.5-20.4c41.3,0,78.1,6.8,110.5,20.4c32.4,13.6,59.7,32.6,81.9,57.1
			c22.2,24.5,39.2,53.8,50.7,87.7C4379.2,1241.3,4385,1278.7,4385,1319.4z M4283.9,1319.4c0-32.5-4-60.9-12-85.3
			c-8-24.4-19-44.7-33.2-60.9c-14.1-16.2-30.9-28.4-50.3-36.3c-19.4-8-40.8-12-63.9-12s-44.5,4-63.9,12c-19.4,8-36.2,20.1-50.3,36.3
			c-14.1,16.3-25.2,36.6-33.1,60.9c-8,24.4-12,52.8-12,85.3c0,32.5,4,60.9,12,85.3c8,24.4,19,44.6,33.1,60.7
			c14.1,16.1,30.9,28.2,50.3,36.4c19.5,8.1,40.8,12.2,63.9,12.2s44.5-4.1,63.9-12.2c19.5-8.1,36.2-20.3,50.3-36.4
			c14.1-16.1,25.2-36.3,33.2-60.7C4279.9,1380.4,4283.9,1351.9,4283.9,1319.4z"/>
		<path id="XMLID_18_" class="st0" d="M4767.3,1300.7c38.4,54.6,69.5,103.1,93.5,145.4h2.4c-3.2-69.5-4.8-120.1-4.8-151.8v-242.1
			h97.9v534.5h-102.7l-174.2-246.1c-30.6-42.6-62.3-92-95.1-148.2h-2.4c3.2,65.5,4.8,116.3,4.8,152.2v242.1h-97.9v-534.5h102.7
			L4767.3,1300.7z"/>
		<path id="XMLID_16_" class="st0" d="M5084.1,1586.7v-534.5h97.9v534.5H5084.1z"/>
		<path id="XMLID_14_" class="st0" d="M5407.7,1504.8h262.9v81.9h-360.8v-534.5h346.4v81.9h-248.5v138.2h213.4v81.9h-213.4V1504.8z"
			/>
		<path id="XMLID_12_" class="st0" d="M6081.7,1192.8c-10.4,49.8-22.4,101.2-35.9,154.2l-60,239.7h-97.5l-169.8-534.5h104.3
			l64.3,212.9c19.5,66.9,35.2,127.3,47.1,181.4h2.4c11.7-58.1,25.3-117.6,40.8-178.6l55.1-215.7h100.7l55.1,215.7
			c15.5,60.4,29,120,40.8,178.6h2.4c14.7-63.9,30.4-124.4,47.1-181.4l64.3-212.9h104.3l-169.8,534.5H6180l-60-239.7
			c-13.6-54.1-25.6-105.5-35.9-154.2H6081.7z"/>
		<path id="XMLID_10_" class="st0" d="M6519.2,1586.7v-534.5h97.9v534.5H6519.2z"/>
		<path id="XMLID_8_" class="st0" d="M7005,1124.9c-26.6,0-51.2,4.4-73.7,13.2s-41.8,21.6-57.9,38.4c-16.1,16.8-28.7,37.5-37.7,62.1
			c-9.1,24.6-13.6,52.8-13.6,84.5c0,31.4,4.1,59,12.4,82.9c8.3,23.8,20.1,43.7,35.5,59.7c15.5,16,34.3,28,56.5,36.2
			c22.2,8.1,47.5,12.2,75.7,12.2c20.3,0,40.9-1.6,61.9-4.8c21-3.2,40.7-7.9,59.1-14v84.3c-18.7,5.3-38.8,9.5-60.3,12.6
			c-21.6,3.1-43.9,4.6-67.1,4.6c-45.3,0-85.1-6.4-119.5-19.4c-34.3-12.9-63-31.2-86.1-54.7c-23-23.6-40.4-51.8-51.9-84.7
			c-11.6-32.9-17.4-69.2-17.4-108.9c0-40.7,6.2-78.6,18.6-113.5c12.4-34.9,30.2-65.1,53.5-90.7c23.3-25.6,52.5-45.7,87.5-60.3
			c35-14.6,74.6-22.1,118.8-22.4c22.6,0,44.1,1.5,64.3,4.6s38.5,7.4,54.7,13v83.1c-21.3-6.6-41.2-11.3-59.5-14
			C7040.5,1126.2,7022.6,1124.9,7005,1124.9z"/>
		<path id="XMLID_6_" class="st0" d="M7321,1504.8h262.9v81.9h-360.8v-534.5h346.4v81.9H7321v138.2h213.4v81.9H7321V1504.8z"/>
	</g>
	<path id="XMLID_3_" class="st1" d="M3240.6,969.5l754.7-447.9l599.5,359.7L5624.6,70.2l331.5,271.6H6196v178.1l519.3,449.7"/>
</g>
<g id="XMLID_92_">
</g>
<g id="XMLID_93_">
</g>
<g id="XMLID_94_">
</g>
<g id="XMLID_95_">
</g>
<g id="XMLID_96_">
</g>
<g id="XMLID_97_">
</g>
</svg>
