<?xml version="1.0" encoding="utf-8"?>
<!-- Generator: Adobe Illustrator 19.0.0, SVG Export Plug-In . SVG Version: 6.00 Build 0)  -->
<svg version="1.1" id="Warstwa_1" xmlns="http://www.w3.org/2000/svg" xmlns:xlink="http://www.w3.org/1999/xlink" x="0px" y="0px"
	 viewBox="0 0 168.2 276.9" style="enable-background:new 0 0 168.2 276.9;" xml:space="preserve">
<style type="text/css">
	.st0{fill:none;stroke:#000000;stroke-width:0.7;stroke-linecap:round;stroke-linejoin:round;stroke-miterlimit:10;}
	.st1{fill:none;stroke:#000000;stroke-width:0.4;stroke-linecap:round;stroke-linejoin:round;stroke-miterlimit:10;}
	.st2{opacity:0.5;}
	.st3{opacity:0.5;fill:none;}
</style>
<image style="display:none;overflow:visible;" width="1500" height="1600" id="XMLID_2_" xlink:href="82BF902B.jpg"  transform="matrix(0.24 0 0 0.24 -151.7917 -57.3333)">
</image>
<g id="XMLID_1_">
	<polygon id="XMLID_3_" class="st0" points="21.7,276.5 41,276.5 132,276.5 141.7,264.2 133.2,235.5 105.2,255 41.9,196.8 
		16.7,264.7 	"/>
	<polygon id="XMLID_4_" class="st0" points="16.7,214.5 16.7,247.2 36.2,253.5 	"/>
	<polygon id="XMLID_5_" class="st0" points="52,218 16.7,247.2 16.7,264.7 36.2,253.5 	"/>
	<polygon id="XMLID_6_" class="st0" points="41,276.5 16.7,264.7 88.9,276.5 	"/>
	<polyline id="XMLID_7_" class="st0" points="133.2,235.5 141.7,216 121.7,216.2 127.4,196 118.4,196 87.7,218 88.9,276.5 
		141.7,264.2 105.2,255 41,276.5 36.2,253.5 88.9,276.5 52,218 41,276.5 	"/>
	<polygon id="XMLID_8_" class="st0" points="139.4,238.3 140.9,249.8 148.2,258.7 	"/>
	<polygon id="XMLID_9_" class="st0" points="151.4,225.3 147,234 164.2,222.3 	"/>
	<polygon id="XMLID_10_" class="st0" points="149.2,214.5 149.2,220.7 143.8,223.7 	"/>
	<polygon id="XMLID_11_" class="st0" points="129,196 150.4,206.3 134.9,208.7 	"/>
	<path id="XMLID_12_" class="st0" d="M121.7,216.2"/>
	<polygon id="XMLID_14_" class="st0" points="87.7,218 121.7,216.2 41.9,196.8 	"/>
	<polyline id="XMLID_13_" class="st0" points="105.2,255 118.4,196 70.7,196 132.9,172.7 118.4,196 19.4,158.3 22.4,179.2 
		41.9,196.8 114,134.2 	"/>
	<polyline id="XMLID_15_" class="st0" points="126.5,119.2 30.4,141.8 33.5,148.8 80,163.8 	"/>
	<polyline id="XMLID_16_" class="st0" points="80,163.8 64.2,119.2 77,96.5 	"/>
	<polyline id="XMLID_19_" class="st0" points="22.4,179.2 70.7,196 80,163.8 	"/>
	<polyline id="XMLID_17_" class="st0" points="19.4,158.3 33.5,148.8 114,134.2 132.9,172.7 80,163.8 118.4,196 77,96.5 80,163.8 
		140.2,147.3 30.4,141.8 	"/>
	<polyline id="XMLID_20_" class="st0" points="127.7,136.8 137.7,108.2 141.7,128 127.7,136.8 118.4,196 	"/>
	<polygon id="XMLID_18_" class="st0" points="139.5,99.3 147.2,97.7 137.7,108.2 	"/>
	<polygon id="XMLID_21_" class="st0" points="149.4,112.5 145.2,119.2 159.7,128.3 	"/>
	<polygon id="XMLID_22_" class="st0" points="145.2,89 143.2,113.7 147.2,97.7 	"/>
	<polyline id="XMLID_23_" class="st0" points="64.2,119.2 112.7,78.7 53.9,99.8 94.9,75.3 73.4,73.2 88.4,89 123.9,105.5 
		126.5,87.3 137.7,87.7 123.9,105.5 64.2,119.2 114,134.2 77,96.5 94.9,75.3 88.4,89 77,96.5 	"/>
	<polygon id="XMLID_25_" class="st0" points="14.2,100.2 9.9,92.8 20.2,90.5 	"/>
	<polyline id="XMLID_24_" class="st0" points="22.7,101.3 20.2,90.5 31.4,96.8 	"/>
	<polygon id="XMLID_27_" class="st0" points="20.2,90.5 2,85.7 0.4,75.5 	"/>
	<polyline id="XMLID_26_" class="st0" points="2,85.7 10.3,78.3 0.4,75.5 	"/>
	<polyline id="XMLID_29_" class="st0" points="53.9,99.8 37,93.8 31.4,96.8 22.7,101.3 14.2,100.2 9.9,96.5 9.9,92.8 2,85.7 
		0.4,75.5 3.5,64.7 15.4,55 36,42 42,75.3 14.2,71.5 55.4,49.3 28.2,58 14.2,71.5 10.3,78.3 3.5,64.7 14.2,71.5 15.4,55 28.2,58 
		36,42 	"/>
	<polyline id="XMLID_33_" class="st0" points="28.2,58 42,75.3 10.3,78.3 24.2,83 37,93.8 42,75.3 31.4,96.8 	"/>
	<polyline id="XMLID_31_" class="st0" points="22.7,101.3 42,75.3 20.2,90.5 16,85 19.4,79.2 14.2,71.5 	"/>
	<polyline id="XMLID_28_" class="st0" points="19.4,79.2 24.2,83 42,75.3 49.2,45 61.2,42 64.2,38.7 70,38.7 76.5,37.8 72.2,46.8 
		64.2,47.5 55.4,49.3 	"/>
	<polyline id="XMLID_32_" class="st0" points="16,85 24.2,83 20.2,90.5 	"/>
	<polyline id="XMLID_30_" class="st0" points="70,38.7 72.2,46.8 64.2,38.7 64.2,47.5 42,75.3 	"/>
	<polyline id="XMLID_34_" class="st0" points="67.7,8.3 50.4,10 52.4,4.7 76.5,25.7 85.2,18.8 102,30.8 99.2,57 	"/>
	<polyline id="XMLID_35_" class="st0" points="55.4,21.5 59.2,0.8 67.7,8.3 67.9,2.3 76.5,25.7 64.2,38.7 52.4,36 61.2,42 
		64.2,47.5 76.5,37.8 102,30.8 76.5,25.7 	"/>
	<polyline id="XMLID_36_" class="st0" points="76.5,37.8 85.2,18.8 99.3,56 	"/>
	<line id="XMLID_37_" class="st0" x1="112.7" y1="78.7" x2="113.5" y2="41.3"/>
	<polygon id="XMLID_38_" class="st0" points="118.9,27.3 115.9,55 122.7,39.5 	"/>
	<polygon id="XMLID_39_" class="st0" points="125.5,47.5 132,50.7 140.4,47.5 	"/>
	<polygon id="XMLID_40_" class="st0" points="167.9,58 152.2,60 149.5,64 	"/>
	<polygon id="XMLID_41_" class="st0" points="139,70 140.2,80 148.7,84.5 	"/>
	<polygon id="XMLID_42_" class="st0" points="125.5,58 119.3,90.3 130,70 130,67.5 	"/>
	<polygon id="XMLID_43_" class="st0" points="131.4,73.2 126.5,87.3 132.4,101.3 	"/>
</g>
<g id="XMLID_89_">
	<polygon id="XMLID_45_" class="st1" points="26.5,272.4 98.6,274.5 132,227.6 103.3,217.8 55.5,245 52,261.3 	"/>
	<polygon id="XMLID_46_" class="st1" points="26.5,272.4 27.3,215.3 22,234.6 	"/>
	<polyline id="XMLID_47_" class="st1" points="132,227.6 90.6,239.1 55.5,245 27.3,215.3 52,261.3 75.2,217.8 90.6,239.1 
		98.6,274.5 55.5,245 22,234.6 51.9,260.9 	"/>
	<path id="XMLID_48_" class="st1" d="M52,218"/>
	<polygon id="XMLID_49_" class="st1" points="138.1,268 125.3,275.9 130.8,255.3 	"/>
	<polygon id="XMLID_50_" class="st1" points="139.4,242.4 130.8,255.3 103.3,217.8 90.6,239.1 	"/>
	<path id="XMLID_51_" class="st1" d="M132,276.5"/>
	<polyline id="XMLID_52_" class="st1" points="132,276.2 105.1,254.8 121.7,216.2 133.2,235.4 87.5,218.3 	"/>
	<line id="XMLID_53_" class="st1" x1="36.5" y1="253.5" x2="105.1" y2="254.8"/>
	<line id="XMLID_55_" class="st1" x1="98.6" y1="274.5" x2="52" y2="261.3"/>
	<polygon id="XMLID_56_" class="st1" points="16.8,214.5 52.4,218 41.9,197 	"/>
	<polygon id="XMLID_58_" class="st1" points="41.9,197 31.2,197 16.8,214.5 70.6,196.1 	"/>
	<polygon id="XMLID_57_" class="st1" points="27.3,215.3 35.8,188.7 94.5,180.8 52.8,196 	"/>
	<polyline id="XMLID_60_" class="st1" points="133.2,235.4 36.5,253.5 87.5,218.3 105.1,254.8 89.2,276.1 132,276.2 141.7,236.5 
		52.4,218 55.5,245 75.2,217.8 98.6,274.5 130.8,255.3 134,211 103.3,217.8 107.6,195.4 75.2,217.8 83.8,195.6 134,211 	"/>
	<path id="XMLID_59_" class="st1" d="M75.2,217.8"/>
	<polyline id="XMLID_61_" class="st1" points="134,211 107.6,195.4 124.7,184.7 94.5,180.8 57.8,168.9 107.4,195.4 	"/>
	<polygon id="XMLID_62_" class="st1" points="138.1,191.6 140.2,182.7 125.7,190.7 	"/>
	<polyline id="XMLID_54_" class="st1" points="103.3,217.8 57.8,168.9 52.8,196 83.8,195.6 27.3,215.3 70.6,196.1 52,218 
		118.1,196.1 139.6,147.4 	"/>
	<polyline id="XMLID_63_" class="st1" points="55.5,245 52.8,196 75.2,217.8 	"/>
	<line id="XMLID_64_" class="st1" x1="52" y1="218" x2="87.7" y2="218"/>
	<polyline id="XMLID_65_" class="st1" points="70.6,196.1 33.6,148.9 41.9,197 64.1,119.2 30.5,141.8 19.5,158.3 41.7,196.8 	"/>
	<polyline id="XMLID_67_" class="st1" points="30.5,141.8 22.5,179.1 57.8,168.9 32.9,144.5 22.5,168.9 35.8,188.7 33.3,148.3 
		22.8,178.8 	"/>
	<polyline id="XMLID_66_" class="st1" points="19.5,158.3 139.6,147.4 133,172.6 	"/>
	<polyline id="XMLID_68_" class="st1" points="83.8,195.6 124.7,184.7 105.2,155.7 135.8,158.6 94.5,180.8 50.4,136.5 57.8,168.9 
		80,163.8 	"/>
	<polyline id="XMLID_69_" class="st1" points="32.9,144.5 101.5,109.1 85,138 50.4,136.5 64.1,119.2 70.6,111.9 57.8,168.9 
		35.8,188.7 50.4,136.5 28.6,161.9 	"/>
	<path id="XMLID_70_" class="st1" d="M84.9,138.1"/>
	<polyline id="XMLID_71_" class="st1" points="22.5,168.9 57.8,168.9 84.9,138.1 94.5,180.8 105.2,155.7 141.2,142.8 127.8,136.9 
		117.6,168.4 140.5,128.3 142.4,145.8 140.2,147.3 	"/>
	<polygon id="XMLID_72_" class="st1" points="149.8,137 145.3,144 150.5,141.9 	"/>
	<polygon id="XMLID_73_" class="st1" points="153,129.3 150,130.8 156.9,137 	"/>
	<polygon id="XMLID_74_" class="st1" points="105.2,155.7 84.9,138.1 70.1,112.5 124.6,135 	"/>
	<polyline id="XMLID_142_" class="st1" points="101.4,109.2 90.7,88.1 127.8,97.1 101.5,109.4 105.2,155.7 90.4,88.1 126.6,119.2 
		124.6,135 137.1,123.6 146.1,124.9 151.7,120.4 137.1,123.5 126.7,119.2 101.5,109.1 124.5,134.8 135.8,158.6 	"/>
	<polyline id="XMLID_75_" class="st1" points="124.8,180.8 122.9,109.1 70.1,112.5 90.4,88.1 84.9,138.1 	"/>
	<polyline id="XMLID_77_" class="st1" points="118.4,196 114.1,134.4 126.6,119.2 127.8,136.9 	"/>
	<polyline id="XMLID_76_" class="st1" points="114.1,134.4 119.2,90.3 126.6,119.2 	"/>
	<polyline id="XMLID_79_" class="st1" points="114,134.2 107.1,67 101.5,109.1 94.9,75.5 119.2,90.3 90.4,88.1 112.8,78.7 
		119.2,90.3 	"/>
	<polygon id="XMLID_80_" class="st1" points="158.4,77.9 153.2,92 157.6,86.9 	"/>
	<polygon id="XMLID_81_" class="st1" points="160.3,67 154.5,70.7 167.4,75.7 	"/>
	<polygon id="XMLID_82_" class="st1" points="127.8,67 116.8,69.1 134,90.3 	"/>
	<polyline id="XMLID_78_" class="st1" points="127.8,67 117.6,81 116.8,69.1 	"/>
	<line id="XMLID_85_" class="st1" x1="74.6" y1="68.7" x2="90.4" y2="88.1"/>
	<polyline id="XMLID_83_" class="st1" points="64.2,47.7 53.9,99.9 42,75.4 73.3,73.3 54,99.9 	"/>
	<polyline id="XMLID_87_" class="st1" points="64.2,47.5 73.3,73.8 55.2,48.8 42,75.4 48.7,70 29.7,59.1 14.2,71.5 	"/>
	<line id="XMLID_88_" class="st1" x1="57.1" y1="46" x2="74.5" y2="68.6"/>
	<polyline id="XMLID_86_" class="st1" points="19.4,98.9 32.2,88.1 43.6,93 74.5,68.6 27.9,97.7 19.4,98.9 10.6,90.8 4.3,81.8 
		4.3,69.1 18.4,54.1 45.4,44.1 48.7,70 55.2,48.8 53.9,99.9 77,96.5 73.3,73.3 68.5,94.2 48.7,70 68.5,48 74.5,68.6 75,43 
		90.4,88.1 111.6,69.7 74.5,68.6 48.7,70 43.6,93 68.5,94.2 57.1,46 75,43 109.8,43.7 107.1,67 99.3,56.2 94.9,75.5 72.2,47 
		99.2,56.1 76.5,37.9 	"/>
	<polygon id="XMLID_84_" class="st1" points="27.9,97.7 20.2,90.6 32.2,88.1 23.1,78.7 	"/>
	<polyline id="XMLID_90_" class="st1" points="4.3,81.8 13,73.6 4.3,69.1 45.2,44.6 	"/>
	<polyline id="XMLID_91_" class="st1" points="13,73.6 23.1,78.7 18.4,54.1 	"/>
	<polyline id="XMLID_93_" class="st1" points="32.2,88.1 45.4,44.1 23.1,78.7 33.2,48.6 	"/>
	<line id="XMLID_95_" class="st1" x1="23.6" y1="78.4" x2="68.5" y2="48"/>
	<line id="XMLID_94_" class="st1" x1="107.1" y1="67" x2="94.9" y2="75.5"/>
	<polyline id="XMLID_96_" class="st1" points="74.5,68.6 109.8,43.7 93.8,69.2 68.5,94.6 	"/>
	<polygon id="XMLID_98_" class="st1" points="102.4,27.3 120.5,42 120,34.7 	"/>
	<polyline id="XMLID_92_" class="st1" points="102.1,30.8 113.5,38.6 113.5,41.3 	"/>
	<path id="XMLID_99_" class="st1" d="M28.4,57.9"/>
	<polyline id="XMLID_100_" class="st1" points="28.4,57.9 49.3,45.1 55.2,48.8 57.1,46 50.8,26.7 37.6,38.7 48.7,70 	"/>
	<polyline id="XMLID_102_" class="st1" points="35.8,42.3 36.8,33.4 55.4,21.4 52.3,36.1 35.8,42.3 0.5,75.5 14.4,71.5 99.3,56.2 
		73.3,73.8 	"/>
	<line id="XMLID_103_" class="st1" x1="50.8" y1="26.7" x2="47.6" y2="37.9"/>
	<line id="XMLID_104_" class="st1" x1="51" y1="26.7" x2="64.2" y2="38.6"/>
	<polyline id="XMLID_101_" class="st1" points="37.6,38.7 45.4,44.1 67.7,26.3 36.8,33.4 52.4,36 	"/>
	<polyline id="XMLID_105_" class="st1" points="36.8,33.7 36,42 45.4,44.1 	"/>
	<polyline id="XMLID_106_" class="st1" points="70.1,38.6 85.2,19 68,2.4 59.3,0.8 52.5,4.7 67.5,8.3 55.4,21.4 50.4,10 76.4,25.7 
		67.7,26.3 55.1,14.3 69.2,15.3 109.7,43.6 67.6,26.3 50.8,26.7 109.7,43.7 109.8,43.7 95.8,28.2 75,43 67.7,26.3 82.1,18.8 
		93.8,69.2 95.8,28.2 111.6,69.7 	"/>
	<polyline id="XMLID_107_" class="st1" points="87.1,34.4 76.5,25.7 66,4.3 55.1,14.3 57.1,3.9 65.9,4.3 82.1,18.8 69.2,15.3 	"/>
	<polyline id="XMLID_97_" class="st1" points="50.8,26.7 69.2,15.3 57.1,3.9 67.7,26.3 	"/>
</g>
<g id="XMLID_44_">
	<polygon id="XMLID_109_" class="st2" points="22,234.8 26.9,239.1 26.5,272.2 	"/>
	<polyline id="XMLID_108_" class="st2" points="16.8,214.6 21.8,276.3 16.6,264.7 	"/>
	<polyline id="XMLID_110_" class="st2" points="36.3,253.5 41.1,276.5 88.7,276.4 	"/>
	<polyline id="XMLID_111_" class="st2" points="105.3,254.7 88.7,276.5 41.1,276.4 	"/>
	<polyline id="XMLID_112_" class="st2" points="88.3,276.4 21.8,276.6 16.7,264.7 	"/>
	<polyline id="XMLID_114_" class="st2" points="130.7,255.3 125.3,276.5 90,276.2 98.6,274.5 	"/>
	<polyline id="XMLID_113_" class="st2" points="26.8,272.4 98.6,274.5 138.4,267.8 	"/>
	<polyline id="XMLID_115_" class="st2" points="131.9,227.7 139.2,242.7 138.4,268.4 	"/>
	<polyline id="XMLID_116_" class="st2" points="133.2,271.3 133.5,234.8 141.7,236.5 	"/>
	<polyline id="XMLID_117_" class="st2" points="105.4,254.6 121.7,216.2 133.1,235.2 	"/>
	<polyline id="XMLID_118_" class="st2" points="17,214.4 52.2,217.8 70.6,196 	"/>
	<polyline id="XMLID_119_" class="st2" points="127.3,195.6 121.4,216.2 88.1,218 	"/>
	<polyline id="XMLID_120_" class="st2" points="118.4,196.1 87.5,218 52.4,218 	"/>
	<polyline id="XMLID_121_" class="st2" points="27.5,215.2 133.6,210.9 75.4,217.6 	"/>
	<polyline id="XMLID_122_" class="st2" points="102.5,217.2 75.6,217.8 42.4,196.9 	"/>
	<polyline id="XMLID_123_" class="st2" points="132.7,172.9 118.6,196 71.1,195.9 	"/>
	<polyline id="XMLID_124_" class="st2" points="117.8,196 22.8,179.3 42.2,197 	"/>
	<polyline id="XMLID_125_" class="st2" points="35.9,188.6 52.8,196.2 22.8,168.9 	"/>
	<polyline id="XMLID_126_" class="st2" points="70.4,195.8 55,184.4 23.1,179.4 	"/>
	<polyline id="XMLID_127_" class="st2" points="19.9,158.5 69.9,195.8 42.2,196.6 	"/>
	<polyline id="XMLID_128_" class="st2" points="118.6,195.7 139.3,147.6 133,172.5 	"/>
	<polyline id="XMLID_129_" class="st2" points="132.9,172.8 114.3,134.7 127.7,136.1 	"/>
	<polyline id="XMLID_130_" class="st2" points="130.2,146.8 127.1,140.3 117.8,167.6 	"/>
	<polyline id="XMLID_131_" class="st2" points="135.6,158.2 118.4,102.9 124.6,135 	"/>
	<polyline id="XMLID_132_" class="st2" points="137.8,107.8 127.8,136.5 141.7,128 	"/>
	<polyline id="XMLID_133_" class="st2" points="137.3,123.5 151.7,120.4 146.1,125.1 	"/>
	<polyline id="XMLID_134_" class="st2" points="147.6,97.5 138,108.2 139.4,99.3 	"/>
	<polyline id="XMLID_135_" class="st2" points="138,87.7 126.7,87.3 123.9,105.5 	"/>
	<polyline id="XMLID_136_" class="st2" points="167.1,75.6 160.3,67 154.4,70.7 	"/>
	<polyline id="XMLID_137_" class="st2" points="124.9,47.3 141,47.4 132.1,50.8 	"/>
	<polyline id="XMLID_138_" class="st2" points="116.8,69.1 117.6,81.2 127.8,66.8 	"/>
	<polyline id="XMLID_139_" class="st2" points="113.4,38.6 107.3,66.8 112.7,78.4 	"/>
	<path id="XMLID_140_" class="st2" d="M112.3,79.1"/>
	<line id="XMLID_141_" class="st3" x1="110" y1="43.8" x2="112.7" y2="78.3"/>
	<polyline id="XMLID_143_" class="st2" points="110,43.8 112.6,78.7 107.2,66.8 	"/>
	<polyline id="XMLID_144_" class="st2" points="107.1,66.6 92.9,37.9 99.5,56 	"/>
	<polyline id="XMLID_145_" class="st2" points="99.3,56.5 95.1,75.7 77.8,85.5 	"/>
	<polyline id="XMLID_146_" class="st2" points="90,86.8 44.1,93 68.8,94.3 	"/>
	<polyline id="XMLID_147_" class="st2" points="90,88.6 64.1,119.2 77,96.5 	"/>
	<polyline id="XMLID_148_" class="st2" points="55,99.4 111.3,79.3 77.5,95.9 76.5,96.8 	"/>
	<polyline id="XMLID_149_" class="st2" points="77,96.5 37,93.8 53.9,99.9 	"/>
	<polyline id="XMLID_150_" class="st2" points="32.5,88.1 68.9,94.2 44,93 	"/>
	<path id="XMLID_151_" class="st2" d="M9.9,92.8"/>
	<polyline id="XMLID_152_" class="st2" points="12.4,92.4 27.5,97.7 19.4,99.1 	"/>
	<polyline id="XMLID_153_" class="st2" points="10.3,93.1 27.9,98.3 22.7,101.6 	"/>
	<path id="XMLID_154_" class="st2" d="M14.2,100.2"/>
	<polyline id="XMLID_155_" class="st2" points="9.9,93 14.2,100.8 19.9,90.7 	"/>
	<polyline id="XMLID_156_" class="st2" points="2.6,86.2 9.9,93.1 19.9,90.6 	"/>
	<polyline id="XMLID_157_" class="st2" points="19.9,90.6 0.5,76.1 2.3,85.7 10.2,92.8 	"/>
	<polyline id="XMLID_158_" class="st2" points="2.5,85.7 16.3,84.6 19.9,90.5 	"/>
	<polyline id="XMLID_159_" class="st2" points="11,78.4 16.4,84.9 24,83.1 	"/>
	<polyline id="XMLID_160_" class="st2" points="19.4,79.7 16.6,84.9 24,83.3 	"/>
	<polyline id="XMLID_161_" class="st2" points="36.9,33.7 36.1,42.3 49.3,45.1 	"/>
	<polyline id="XMLID_162_" class="st2" points="37.9,38.9 56.8,46 45.4,44.3 	"/>
	<polyline id="XMLID_163_" class="st2" points="57.6,46 71.9,46.9 76.2,38.3 	"/>
	<polyline id="XMLID_164_" class="st2" points="50.6,10 55.3,21.7 76.2,25.4 	"/>
	<polyline id="XMLID_165_" class="st2" points="67.3,8.5 55.8,21.4 75.9,25.4 	"/>
	<polyline id="XMLID_166_" class="st2" points="57,3.9 72.6,17.6 66.1,4.3 	"/>
</g>
<g id="XMLID_167_">
	<circle id="XMLID_168_" class="st1" cx="35.9" cy="266.1" r="1.1"/>
	<circle id="XMLID_175_" class="st1" cx="72.1" cy="261.6" r="0.9"/>
	<circle id="XMLID_177_" class="st1" cx="90" cy="263" r="1.7"/>
	<circle id="XMLID_178_" class="st1" cx="83.8" cy="235.8" r="1.3"/>
	<circle id="XMLID_179_" class="st1" cx="86.4" cy="226.8" r="0.7"/>
	<circle id="XMLID_180_" class="st1" cx="104" cy="221.2" r="0.7"/>
	<circle id="XMLID_183_" class="st1" cx="115.7" cy="208" r="1.7"/>
	<circle id="XMLID_184_" class="st1" cx="114" cy="211.7" r="1"/>
	<circle id="XMLID_185_" class="st1" cx="105.6" cy="186.6" r="0.9"/>
	<circle id="XMLID_186_" class="st1" cx="101.5" cy="162.1" r="1.4"/>
	<circle id="XMLID_197_" class="st1" cx="115.5" cy="147.1" r="1.8"/>
	<circle id="XMLID_198_" class="st1" cx="107.4" cy="141.3" r="1.5"/>
	<circle id="XMLID_202_" class="st1" cx="101.7" cy="118.9" r="1.9"/>
	<circle id="XMLID_206_" class="st1" cx="99.8" cy="103.9" r="1.4"/>
	<circle id="XMLID_207_" class="st1" cx="110.1" cy="96" r="1.4"/>
	<circle id="XMLID_208_" class="st1" cx="121.8" cy="95.5" r="2"/>
	<circle id="XMLID_209_" class="st1" cx="111.8" cy="82.8" r="1.7"/>
	<circle id="XMLID_210_" class="st1" cx="135.6" cy="81.3" r="1.2"/>
	<circle id="XMLID_211_" class="st1" cx="138.5" cy="84.2" r="0.9"/>
	<circle id="XMLID_214_" class="st1" cx="124.3" cy="75.1" r="1.1"/>
	<circle id="XMLID_215_" class="st1" cx="123.7" cy="66.4" r="1.9"/>
	<circle id="XMLID_216_" class="st1" cx="131.9" cy="63.9" r="1.4"/>
	<circle id="XMLID_217_" class="st1" cx="127.1" cy="54.3" r="0.7"/>
	<circle id="XMLID_242_" class="st1" cx="130" cy="43" r="1.4"/>
	<circle id="XMLID_244_" class="st1" cx="126.7" cy="39.5" r="0.4"/>
	<circle id="XMLID_245_" class="st1" cx="129.5" cy="40.8" r="0.4"/>
	<circle id="XMLID_246_" class="st1" cx="135.1" cy="37.3" r="0.4"/>
	<circle id="XMLID_243_" class="st1" cx="134.3" cy="40.2" r="1.7"/>
	<circle id="XMLID_212_" class="st1" cx="162.7" cy="75.7" r="0.9"/>
	<circle id="XMLID_213_" class="st1" cx="159.9" cy="81" r="1.5"/>
	<circle id="XMLID_199_" class="st1" cx="149.8" cy="132.7" r="2.1"/>
	<circle id="XMLID_201_" class="st1" cx="134.2" cy="129.6" r="1"/>
	<circle id="XMLID_203_" class="st1" cx="137.7" cy="118.8" r="0.9"/>
	<circle id="XMLID_204_" class="st1" cx="145.7" cy="111.6" r="1.6"/>
	<circle id="XMLID_205_" class="st1" cx="153.8" cy="104" r="1.9"/>
	<circle id="XMLID_200_" class="st1" cx="150.5" cy="142.6" r="1.9"/>
	<circle id="XMLID_187_" class="st1" cx="94" cy="162.7" r="1.7"/>
	<circle id="XMLID_188_" class="st1" cx="38.3" cy="175.7" r="1.9"/>
	<circle id="XMLID_190_" class="st1" cx="23.4" cy="172.8" r="1.1"/>
	<circle id="XMLID_191_" class="st1" cx="34.4" cy="154.4" r="1.6"/>
	<circle id="XMLID_192_" class="st1" cx="42.4" cy="147" r="1.9"/>
	<circle id="XMLID_193_" class="st1" cx="51.6" cy="118.7" r="1"/>
	<circle id="XMLID_218_" class="st1" cx="58.6" cy="99.9" r="1.2"/>
	<circle id="XMLID_224_" class="st1" cx="60.8" cy="90.7" r="0.8"/>
	<circle id="XMLID_225_" class="st1" cx="78.6" cy="85.3" r="0.8"/>
	<circle id="XMLID_219_" class="st1" cx="35" cy="99.6" r="1"/>
	<circle id="XMLID_220_" class="st1" cx="32" cy="96.5" r="1.2"/>
	<circle id="XMLID_221_" class="st1" cx="11" cy="97.2" r="1.5"/>
	<circle id="XMLID_222_" class="st1" cx="28.6" cy="78.9" r="1.5"/>
	<circle id="XMLID_226_" class="st1" cx="68.9" cy="61.5" r="1.7"/>
	<circle id="XMLID_227_" class="st1" cx="75.1" cy="53.2" r="0.7"/>
	<circle id="XMLID_228_" class="st1" cx="80.3" cy="50.9" r="0.9"/>
	<circle id="XMLID_229_" class="st1" cx="79.9" cy="44.9" r="0.8"/>
	<circle id="XMLID_235_" class="st1" cx="78.6" cy="35.2" r="0.8"/>
	<circle id="XMLID_230_" class="st1" cx="55.6" cy="43.3" r="1.5"/>
	<circle id="XMLID_231_" class="st1" cx="52.9" cy="47.2" r="1.9"/>
	<circle id="XMLID_232_" class="st1" cx="47.6" cy="37.6" r="1.4"/>
	<circle id="XMLID_234_" class="st1" cx="69.6" cy="30.3" r="1"/>
	<circle id="XMLID_236_" class="st1" cx="60.5" cy="4.2" r="1"/>
	<circle id="XMLID_238_" class="st1" cx="98.3" cy="17.3" r="1.3"/>
	<circle id="XMLID_239_" class="st1" cx="101" cy="27.4" r="1.7"/>
	<circle id="XMLID_240_" class="st1" cx="109" cy="32.9" r="1.2"/>
	<circle id="XMLID_241_" class="st1" cx="102.9" cy="38.6" r="1.6"/>
	<circle id="XMLID_237_" class="st1" cx="59" cy="11.2" r="0.9"/>
	<circle id="XMLID_233_" class="st1" cx="43" cy="34.3" r="1.7"/>
	<circle id="XMLID_223_" class="st1" cx="6.5" cy="75.9" r="1.2"/>
	<circle id="XMLID_194_" class="st1" cx="46.9" cy="125.6" r="1"/>
	<circle id="XMLID_195_" class="st1" cx="48.4" cy="123.8" r="1.8"/>
	<circle id="XMLID_196_" class="st1" cx="64.6" cy="127" r="1.9"/>
	<circle id="XMLID_189_" class="st1" cx="39" cy="185.7" r="1.9"/>
	<circle id="XMLID_176_" class="st1" cx="45.3" cy="270.6" r="0.9"/>
	<circle id="XMLID_169_" class="st1" cx="30" cy="257.6" r="1.3"/>
	<circle id="XMLID_171_" class="st1" cx="25" cy="247" r="0.9"/>
	<circle id="XMLID_174_" class="st1" cx="24.5" cy="218.9" r="0.9"/>
	<circle id="XMLID_181_" class="st1" cx="27.7" cy="207.5" r="1.4"/>
	<circle id="XMLID_182_" class="st1" cx="31.8" cy="204.7" r="1.7"/>
	<circle id="XMLID_170_" class="st1" cx="24.4" cy="256.6" r="1"/>
</g>
<g id="XMLID_349_">
</g>
<g id="XMLID_350_">
</g>
<g id="XMLID_351_">
</g>
<g id="XMLID_352_">
</g>
<g id="XMLID_353_">
</g>
<g id="XMLID_354_">
</g>
</svg>
