<?xml version="1.0" encoding="utf-8"?>
<!-- Generator: Adobe Illustrator 19.0.0, SVG Export Plug-In . SVG Version: 6.00 Build 0)  -->
<svg version="1.1" id="Warstwa_1" xmlns="http://www.w3.org/2000/svg" xmlns:xlink="http://www.w3.org/1999/xlink" x="0px" y="0px"
	 viewBox="-92 140.3 114.7 20.7" style="enable-background:new -92 140.3 114.7 20.7;" xml:space="preserve">
<style type="text/css">
	.st0{fill:#045FA9;}
</style>
<g>
	<g>
		<path d="M-87.1,153.3H-89c-0.9,0-1.6-0.2-2.1-0.7s-0.7-1.2-0.7-2.1v-6c0-0.9,0.2-1.6,0.7-2.1s1.2-0.7,2.1-0.7h1.9
			c0.9,0,1.6,0.2,2.1,0.7s0.7,1.2,0.7,2.1v0.6c0,0.2-0.1,0.3-0.3,0.3h-1.1c-0.2,0-0.3-0.1-0.3-0.3v-0.6c0-0.9-0.4-1.3-1.3-1.3h-1.4
			c-0.9,0-1.3,0.4-1.3,1.3v5.9c0,0.9,0.4,1.3,1.3,1.3h1.4c0.9,0,1.3-0.4,1.3-1.3v-1.5c0-0.1-0.1-0.2-0.2-0.2h-1.5
			c-0.2,0-0.3-0.1-0.3-0.3v-0.9c0-0.2,0.1-0.3,0.3-0.3h3c0.3,0,0.4,0.1,0.4,0.4v3c0,0.9-0.2,1.6-0.7,2.1S-86.2,153.3-87.1,153.3z"/>
		<path d="M-78.7,153.3h-0.7c-0.9,0-1.6-0.2-2.1-0.7s-0.7-1.2-0.7-2.1v-3.6c0-0.9,0.2-1.6,0.7-2.1s1.2-0.7,2.1-0.7h4
			c0.2,0,0.3,0.1,0.3,0.3v8.6c0,0.2-0.1,0.3-0.3,0.3h-1.1c-0.2,0-0.3-0.1-0.3-0.3v-0.6h-0.1C-77.2,152.9-77.8,153.3-78.7,153.3z
			 M-76.8,150.3v-4.4c0-0.1-0.1-0.2-0.2-0.2h-2.1c-0.9,0-1.3,0.4-1.3,1.3v3.5c0,0.9,0.4,1.3,1.3,1.3h0.9
			C-77.3,151.8-76.8,151.3-76.8,150.3z"/>
		<path d="M-71.4,153.3h-1.1c-0.2,0-0.3-0.1-0.3-0.3v-8.6c0-0.2,0.1-0.3,0.3-0.3h1.1c0.2,0,0.3,0.1,0.3,0.3v0.6h0.1
			c0.3-0.6,1-1,1.9-1h0.6c1,0,1.8,0.4,2.2,1.2c0.2-0.4,0.5-0.7,0.9-0.9s0.8-0.3,1.3-0.3h0.6c0.9,0,1.5,0.2,2,0.7s0.7,1.2,0.7,2.1
			v6.1c0,0.2-0.1,0.3-0.3,0.3h-1.2c-0.2,0-0.3-0.1-0.3-0.3v-6c0-0.9-0.4-1.3-1.3-1.3h-0.5c-1,0-1.5,0.5-1.5,1.6v5.8
			c0,0.2-0.1,0.3-0.3,0.3h-1.1c-0.2,0-0.3-0.1-0.3-0.3v-6c0-0.9-0.4-1.3-1.3-1.3h-0.6c-1,0-1.5,0.5-1.5,1.5v5.8
			C-71.1,153.1-71.2,153.3-71.4,153.3z"/>
		<path d="M-58.6,152.9v-12c0-0.2,0.1-0.3,0.3-0.3h1.1c0.2,0,0.3,0.1,0.3,0.3v4.1h0.1c0.3-0.6,0.9-1,1.8-1h0.8
			c0.9,0,1.6,0.2,2.1,0.7s0.7,1.2,0.7,2v3.7c0,0.9-0.2,1.6-0.7,2.1s-1.2,0.7-2.1,0.7h-4.1C-58.5,153.3-58.6,153.1-58.6,152.9z
			 M-56.7,151.8h2.2c0.9,0,1.3-0.4,1.3-1.3v-3.5c0-0.9-0.4-1.3-1.3-1.3h-1c-1,0-1.5,0.5-1.5,1.5v4.5
			C-56.9,151.8-56.8,151.8-56.7,151.8z"/>
		<path class="st0" d="M-36.9,153.3h-1.3c-0.2,0-0.4-0.1-0.4-0.3v-10.6c0-0.1-0.1-0.2-0.2-0.2h-2.5c-0.2,0-0.4-0.1-0.4-0.3v-1
			c0-0.2,0.1-0.3,0.4-0.3h7.4c0.2,0,0.4,0.1,0.4,0.3v1c0,0.2-0.1,0.3-0.4,0.3h-2.5c-0.1,0-0.2,0.1-0.2,0.2v10.6
			C-36.6,153.1-36.7,153.3-36.9,153.3z"/>
		<path d="M-23.5,150.4v-0.5c0-0.2,0.1-0.3,0.3-0.3h1.2c0.2,0,0.3,0.1,0.3,0.3v0.3c0,0.5,0.1,0.9,0.3,1.1c0.2,0.2,0.6,0.3,1.1,0.3
			h1.2c0.5,0,0.9-0.1,1.1-0.4c0.2-0.2,0.3-0.6,0.3-1.1v-0.3c0-0.4-0.1-0.7-0.4-0.9s-0.7-0.4-1.1-0.4c-0.4-0.1-0.9-0.2-1.4-0.3
			s-1-0.3-1.4-0.4c-0.4-0.2-0.8-0.4-1.1-0.9s-0.4-1-0.4-1.7v-0.8c0-0.9,0.2-1.6,0.7-2.1s1.2-0.7,2.1-0.7h1.9c0.9,0,1.6,0.2,2.1,0.7
			s0.7,1.2,0.7,2.1v0.4c0,0.2-0.1,0.3-0.3,0.3h-1.2c-0.2,0-0.3-0.1-0.3-0.3v-0.2c0-0.5-0.1-0.9-0.3-1.1s-0.6-0.3-1.1-0.3h-1.1
			c-0.5,0-0.9,0.1-1.1,0.4c-0.2,0.2-0.3,0.6-0.3,1.2v0.6c0,0.5,0.4,0.9,1.2,1.1c0.3,0.1,0.7,0.2,1.1,0.2s0.8,0.2,1.3,0.3
			c0.4,0.1,0.8,0.3,1.2,0.5c0.3,0.2,0.6,0.5,0.8,0.9c0.2,0.4,0.3,0.9,0.3,1.5v0.7c0,0.9-0.2,1.6-0.7,2.1s-1.2,0.7-2.1,0.7h-2
			c-0.9,0-1.6-0.2-2.1-0.7C-23.3,152.1-23.5,151.3-23.5,150.4z"/>
		<path d="M-13.4,145.6h-0.9c-0.1,0-0.2,0-0.2-0.1s-0.1-0.1-0.1-0.2v-0.9c0-0.2,0.1-0.3,0.3-0.3h0.9c0.1,0,0.2-0.1,0.2-0.2v-1.6
			c0-0.2,0.1-0.3,0.3-0.3h1.1c0.2,0,0.3,0.1,0.3,0.3v1.6c0,0.1,0.1,0.2,0.2,0.2h1.7c0.2,0,0.3,0.1,0.3,0.3v0.9
			c0,0.2-0.1,0.3-0.3,0.3h-1.7c-0.1,0-0.2,0.1-0.2,0.2v4.6c0,0.9,0.5,1.3,1.4,1.3h0.7c0.2,0,0.3,0.1,0.3,0.3v0.9
			c0,0.2-0.1,0.3-0.3,0.3h-1c-0.9,0-1.6-0.2-2.1-0.7s-0.8-1.2-0.8-2v-4.7C-13.2,145.8-13.3,145.6-13.4,145.6z"/>
		<path d="M-3.9,153.3h-0.8c-0.9,0-1.5-0.2-2-0.7s-0.7-1.2-0.7-2.1v-6.1c0-0.2,0.1-0.3,0.3-0.3H-6c0.2,0,0.3,0.1,0.3,0.3v6
			c0,0.9,0.4,1.3,1.3,1.3h0.9c1,0,1.5-0.5,1.5-1.5v-5.8c0-0.2,0.1-0.3,0.3-0.3h1.1c0.2,0,0.3,0.1,0.3,0.3v8.6c0,0.2-0.1,0.3-0.3,0.3
			h-1.1c-0.2,0-0.3-0.1-0.3-0.3v-0.6h-0.1C-2.4,152.9-3,153.3-3.9,153.3z"/>
		<path d="M5.4,153.3H4.5c-0.9,0-1.5-0.2-2-0.7s-0.7-1.2-0.7-2.1v-3.6c0-0.9,0.2-1.6,0.7-2.1s1.1-0.7,2-0.7h0.9c0.9,0,1.5,0.3,1.8,1
			h0.1v-4.1c0-0.2,0.1-0.3,0.3-0.3h1.2c0.2,0,0.3,0.1,0.3,0.3v12c0,0.2-0.1,0.3-0.3,0.3H7.6c-0.2,0-0.3-0.1-0.3-0.3v-0.6H7.2
			C6.9,152.9,6.3,153.3,5.4,153.3z M7.3,150.3v-3.1c0-1-0.5-1.5-1.5-1.5h-1c-0.9,0-1.3,0.4-1.3,1.3v3.5c0,0.9,0.4,1.3,1.3,1.3h1
			C6.8,151.8,7.3,151.3,7.3,150.3z"/>
		<path d="M11.4,142.6v-1.6c0-0.2,0.1-0.3,0.3-0.3h1.2c0.2,0,0.3,0.1,0.3,0.3v1.6c0,0.2-0.1,0.3-0.3,0.3h-1.2
			C11.5,142.8,11.4,142.8,11.4,142.6z M11.4,152.9v-8.6c0-0.2,0.1-0.3,0.3-0.3h1.2c0.2,0,0.3,0.1,0.3,0.3v8.6c0,0.1,0,0.2-0.1,0.2
			s-0.1,0.1-0.2,0.1h-1.2C11.5,153.3,11.4,153.1,11.4,152.9z"/>
		<path d="M19.7,153.3h-1.6c-0.9,0-1.6-0.2-2.1-0.7s-0.7-1.2-0.7-2.1v-3.6c0-0.9,0.2-1.6,0.7-2.1s1.2-0.7,2.1-0.7h1.6
			c0.9,0,1.6,0.2,2.1,0.7s0.7,1.2,0.7,2.1v3.6c0,0.9-0.2,1.6-0.7,2.1S20.6,153.3,19.7,153.3z M18.4,151.8h1.1c0.9,0,1.3-0.4,1.3-1.3
			v-3.5c0-0.9-0.4-1.3-1.3-1.3h-1.1c-0.5,0-0.8,0.1-1,0.3s-0.3,0.5-0.3,1v3.5c0,0.5,0.1,0.8,0.3,1C17.6,151.6,17.9,151.8,18.4,151.8
			z"/>
	</g>
	<g>
		<path class="st0" d="M-48.1,160.8h-0.5c-0.1,0-0.1,0-0.1-0.1l1.2-4.3c0-0.1,0.1-0.1,0.2-0.1h0.7c0.1,0,0.1,0,0.2,0.1l1.2,4.3
			c0,0.1,0,0.1-0.1,0.1h-0.5h-0.1c0,0,0,0,0-0.1l-0.3-0.9h-1.5l-0.3,0.9C-48,160.8-48.1,160.8-48.1,160.8z M-47,157.1l-0.6,2.2h1.3
			L-47,157.1L-47,157.1z"/>
		<path class="st0" d="M-42.8,160.8h-0.7c-0.3,0-0.6-0.1-0.8-0.3c-0.2-0.2-0.3-0.5-0.3-0.8v-2.3c0-0.3,0.1-0.6,0.3-0.8
			c0.2-0.2,0.5-0.3,0.8-0.3h0.7c0.3,0,0.6,0.1,0.8,0.3c0.2,0.2,0.3,0.5,0.3,0.8v0.3c0,0.1,0,0.1-0.1,0.1h-0.4c-0.1,0-0.1,0-0.1-0.1
			v-0.2c0-0.3-0.2-0.5-0.5-0.5h-0.6c-0.3,0-0.5,0.2-0.5,0.5v2.3c0,0.3,0.2,0.5,0.5,0.5h0.6c0.3,0,0.5-0.2,0.5-0.5v-0.6
			c0,0,0-0.1-0.1-0.1H-43c-0.1,0-0.1,0-0.1-0.1v-0.4c0-0.1,0-0.1,0.1-0.1h1.2c0.1,0,0.1,0,0.1,0.1v1.2c0,0.3-0.1,0.6-0.3,0.8
			C-42.2,160.8-42.4,160.8-42.8,160.8z"/>
		<path class="st0" d="M-38.4,160.8h-2.2c-0.1,0-0.1,0-0.1-0.1v-4.3c0-0.1,0-0.1,0.1-0.1h2.2c0.1,0,0.1,0,0.1,0.1v0.4
			c0,0.1,0,0.1-0.1,0.1H-40c-0.1,0-0.1,0-0.1,0.1v1.2c0,0,0,0.1,0.1,0.1h1.4c0.1,0,0.1,0,0.1,0.1v0.4c0,0.1,0,0.1-0.1,0.1H-40
			c-0.1,0-0.1,0-0.1,0.1v1.2c0,0.1,0,0.1,0.1,0.1h1.6c0.1,0,0.1,0,0.1,0.1L-38.4,160.8C-38.3,160.8-38.3,160.8-38.4,160.8z"/>
		<path class="st0" d="M-36.8,160.8h-0.4c-0.1,0-0.1,0-0.1-0.1v-4.3c0-0.1,0-0.1,0.1-0.1h0.4c0.1,0,0.1,0,0.2,0.1l1.7,3l0,0v-3
			c0-0.1,0-0.1,0.1-0.1h0.4c0.1,0,0.1,0,0.1,0.1v4.3c0,0.1,0,0.1-0.1,0.1h-0.4c-0.1,0-0.1,0-0.2-0.1l-1.7-3l0,0v3
			C-36.7,160.8-36.7,160.8-36.8,160.8z"/>
		<path class="st0" d="M-31.5,160.8h-0.8c-0.3,0-0.6-0.1-0.8-0.3c-0.2-0.2-0.3-0.5-0.3-0.8v-2.3c0-0.3,0.1-0.6,0.3-0.8
			c0.2-0.2,0.5-0.3,0.8-0.3h0.8c0.3,0,0.6,0.1,0.8,0.3c0.2,0.2,0.3,0.5,0.3,0.8v0.3c0,0.1,0,0.1-0.1,0.1h-0.4c-0.1,0-0.1,0-0.1-0.1
			v-0.3c0-0.3-0.2-0.5-0.5-0.5h-0.6c-0.3,0-0.5,0.2-0.5,0.5v2.3c0,0.3,0.2,0.5,0.5,0.5h0.6c0.3,0,0.5-0.2,0.5-0.5v-0.3
			c0-0.1,0-0.1,0.1-0.1h0.4c0.1,0,0.1,0,0.1,0.1v0.3c0,0.3-0.1,0.6-0.3,0.8C-30.9,160.8-31.1,160.8-31.5,160.8z"/>
		<path class="st0" d="M-27.5,156.3h0.4c0.1,0,0.1,0,0.1,0.1v3.3c0,0.3-0.1,0.6-0.3,0.8s-0.5,0.3-0.8,0.3h-0.7
			c-0.3,0-0.6-0.1-0.8-0.3s-0.3-0.5-0.3-0.8v-0.6c0-0.1,0-0.1,0.1-0.1h0.4c0.1,0,0.1,0,0.1,0.1v0.6c0,0.3,0.2,0.5,0.5,0.5h0.5
			c0.3,0,0.5-0.2,0.5-0.5v-3.3C-27.6,156.4-27.5,156.3-27.5,156.3z"/>
		<path class="st0" d="M-25.7,160.8h-0.5c-0.1,0-0.1,0-0.1-0.1l1.2-4.3c0-0.1,0.1-0.1,0.2-0.1h0.7c0.1,0,0.1,0,0.2,0.1l1.2,4.3
			c0,0.1,0,0.1-0.1,0.1h-0.5h-0.1c0,0,0,0,0-0.1l-0.3-0.9h-1.5l-0.3,0.9C-25.6,160.8-25.6,160.8-25.7,160.8z M-24.5,157.1l-0.6,2.2
			h1.3L-24.5,157.1L-24.5,157.1z"/>
		<path class="st0" d="M-19.7,156.6v4.3c0,0.1,0,0.1-0.1,0.1h-0.4c-0.1,0-0.1,0-0.1-0.1v-4.3c0-0.1,0-0.1,0.1-0.1h0.4
			C-19.7,156.3-19.7,156.4-19.7,156.6z"/>
		<path class="st0" d="M-18.1,160.8h-0.4c-0.1,0-0.1,0-0.1-0.1v-4.3c0-0.1,0-0.1,0.1-0.1h0.4c0.1,0,0.1,0,0.2,0.1l1.7,3l0,0v-3
			c0-0.1,0-0.1,0.1-0.1h0.4c0.1,0,0.1,0,0.1,0.1v4.3c0,0.1,0,0.1-0.1,0.1h-0.4c-0.1,0-0.1,0-0.2-0.1l-1.7-3l0,0v3
			C-18,160.8-18,160.8-18.1,160.8z"/>
		<path class="st0" d="M-13.3,160.8h-0.4c-0.1,0-0.1,0-0.1-0.1v-3.8c0,0,0-0.1-0.1-0.1h-0.9c-0.1,0-0.1,0-0.1-0.1v-0.4
			c0-0.1,0-0.1,0.1-0.1h2.6c0.1,0,0.1,0,0.1,0.1v0.4c0,0.1,0,0.1-0.1,0.1h-0.9c-0.1,0-0.1,0-0.1,0.1v3.7
			C-13.2,160.8-13.2,160.8-13.3,160.8z"/>
		<path class="st0" d="M-9.2,160.8h-2.2c-0.1,0-0.1,0-0.1-0.1v-4.3c0-0.1,0-0.1,0.1-0.1h2.2c0.1,0,0.1,0,0.1,0.1v0.4
			c0,0.1,0,0.1-0.1,0.1h-1.6c-0.1,0-0.1,0-0.1,0.1v1.2c0,0,0,0.1,0.1,0.1h1.4c0.1,0,0.1,0,0.1,0.1v0.4c0,0.1,0,0.1-0.1,0.1h-1.4
			c-0.1,0-0.1,0-0.1,0.1v1.2c0,0.1,0,0.1,0.1,0.1h1.6c0.1,0,0.1,0,0.1,0.1L-9.2,160.8C-9.1,160.8-9.1,160.8-9.2,160.8z"/>
		<path class="st0" d="M-7.6,160.8H-8c-0.1,0-0.1,0-0.1-0.1v-4.3c0-0.1,0-0.1,0.1-0.1h1.6c0.3,0,0.6,0.1,0.8,0.3
			c0.2,0.2,0.3,0.5,0.3,0.8v0.6c0,0.5-0.2,0.9-0.7,1l0,0l0.8,1.6c0.1,0.1,0,0.1-0.1,0.1h-0.4c-0.1,0-0.2,0-0.2-0.1l-0.7-1.6h-0.7
			c-0.1,0-0.1,0-0.1,0.1v1.5C-7.5,160.8-7.5,160.8-7.6,160.8z M-7.4,158.6h0.9c0.3,0,0.5-0.2,0.5-0.5v-0.6c0-0.3-0.2-0.5-0.5-0.5
			h-0.9c-0.1,0-0.1,0-0.1,0.1L-7.4,158.6C-7.5,158.6-7.5,158.6-7.4,158.6z"/>
		<path class="st0" d="M-4.1,160.8h-0.5c-0.1,0-0.1,0-0.1-0.1l1.2-4.3c0-0.1,0.1-0.1,0.2-0.1h0.7c0.1,0,0.1,0,0.2,0.1l1.2,4.3
			c0,0.1,0,0.1-0.1,0.1h-0.5h-0.1c0,0,0,0,0-0.1l-0.3-0.9h-1.5l-0.3,0.9C-4,160.8-4.1,160.8-4.1,160.8z M-3,157.1l-0.6,2.2h1.3
			L-3,157.1L-3,157.1z"/>
		<path class="st0" d="M0,160.8h-0.4c-0.1,0-0.1,0-0.1-0.1v-4.3c0-0.1,0-0.1,0.1-0.1H0c0.1,0,0.1,0,0.1,0.1v2.2l0,0
			c0-0.1,0.1-0.2,0.2-0.3l1.3-1.9c0.1-0.1,0.1-0.1,0.2-0.1h0.5c0.1,0,0.1,0,0,0.1l-1.4,1.9l1.5,2.4c0.1,0.1,0,0.1-0.1,0.1H1.9
			c-0.1,0-0.2,0-0.3-0.1l-1.2-1.9l-0.6,0.7v1.2C0.1,160.8,0.1,160.8,0,160.8z"/>
		<path class="st0" d="M0,160.8h-0.4c0,0-0.1,0-0.1-0.1v-2.6c0,0,0-0.1,0.1-0.1H0c0,0,0.1,0,0.1,0.1L0,160.8
			C0.1,160.8,0.1,160.8,0,160.8z"/>
		<path class="st0" d="M4.5,160.8H4.1c-0.1,0-0.1,0-0.1-0.1v-3.8c0,0,0-0.1-0.1-0.1H3c-0.1,0-0.1,0-0.1-0.1v-0.4
			c0-0.1,0-0.1,0.1-0.1h2.6c0.1,0,0.1,0,0.1,0.1v0.4c0,0.1,0,0.1-0.1,0.1H4.7c-0.1,0-0.1,0-0.1,0.1v3.7
			C4.7,160.8,4.6,160.8,4.5,160.8z"/>
		<path class="st0" d="M7.8,160.8H7.4c-0.1,0-0.1,0-0.1-0.1v-1.5L6,156.5v-0.1c0,0,0,0,0.1,0h0.6c0.1,0,0.1,0,0.1,0.1l0.9,1.9l0,0
			l0.8-1.9c0-0.1,0.1-0.1,0.1-0.1h0.6h0.1v0.1L8,159.2v1.5C8,160.8,7.9,160.8,7.8,160.8z"/>
		<path class="st0" d="M11.3,160.8h-0.7c-0.1,0-0.1,0-0.1-0.1l-0.8-4.3c0-0.1,0-0.1,0.1-0.1h0.5c0.1,0,0.1,0,0.1,0.1l0.6,3.7l0,0
			l0.8-3.7c0-0.1,0.1-0.1,0.1-0.1h0.6c0.1,0,0.1,0,0.1,0.1l0.8,3.7l0,0l0.6-3.7c0-0.1,0.1-0.1,0.1-0.1h0.5c0.1,0,0.1,0,0.1,0.1
			l-0.8,4.3c0,0.1-0.1,0.1-0.1,0.1h-0.7c-0.1,0-0.1,0-0.1-0.1l-0.8-3.5l0,0l-0.8,3.5C11.4,160.8,11.3,160.8,11.3,160.8z"/>
		<path class="st0" d="M16.1,160.8h-0.4c-0.1,0-0.1,0-0.1-0.1v-4.3c0-0.1,0-0.1,0.1-0.1h0.4c0.1,0,0.1,0,0.2,0.1l1.7,3l0,0v-3
			c0-0.1,0-0.1,0.1-0.1h0.4c0.1,0,0.1,0,0.1,0.1v4.3c0,0.1,0,0.1-0.1,0.1h-0.4c-0.1,0-0.1,0-0.2-0.1l-1.7-3l0,0v3
			C16.2,160.8,16.1,160.8,16.1,160.8z"/>
		<path class="st0" d="M19.8,160.8h-0.5c-0.1,0-0.1,0-0.1-0.1l1.2-4.3c0-0.1,0.1-0.1,0.2-0.1h0.7c0.1,0,0.1,0,0.2,0.1l1.2,4.3
			c0,0.1,0,0.1-0.1,0.1h-0.5H22c0,0,0,0,0-0.1l-0.3-0.9h-1.5l-0.3,0.9C19.9,160.8,19.9,160.8,19.8,160.8z M21,157.1l-0.6,2.2h1.3
			L21,157.1L21,157.1z"/>
	</g>
	<g id="XMLID_1_">
		<path id="XMLID_12_" class="st0" d="M-43.7,142.8c0-1.3-1.1-2.4-2.4-2.4s-2.4,1.1-2.4,2.4c0,0.7,0.3,1.4,0.8,1.8h3.1
			C-43.9,144.1-43.7,143.3-43.7,142.8z"/>
		<path id="XMLID_11_" class="st0" d="M-44.3,145.8h-3.4c-0.3,0-0.5-0.2-0.5-0.5v-0.2c0-0.3,0.2-0.5,0.5-0.5h3.4
			c0.3,0,0.5,0.2,0.5,0.5v0.2C-43.8,145.6-44.1,145.8-44.3,145.8z"/>
		<path id="XMLID_10_" class="st0" d="M-46,148.8c-0.3,0-0.6,0.1-0.9,0.2h1.8C-45.3,148.8-45.7,148.8-46,148.8z"/>
		<path id="XMLID_9_" class="st0" d="M-45.1,148.9h-1.8c-0.8,0.3-1.3,1.1-1.3,1.9v0.1h4.3v-0.1C-43.8,150.1-44.3,149.3-45.1,148.9z"
			/>
		<rect id="XMLID_8_" x="-47.3" y="146.1" class="st0" width="2.6" height="3.4"/>
		<path id="XMLID_7_" class="st0" d="M-43.3,152.3h-5.3c-0.2,0-0.3-0.1-0.3-0.3v-0.1c0-0.2,0.1-0.3,0.3-0.3h5.3
			c0.2,0,0.3,0.1,0.3,0.3v0.2C-43.1,152.3-43.2,152.3-43.3,152.3z"/>
		<polygon id="XMLID_6_" class="st0" points="-48.8,151.8 -48.1,151.4 -46,151.4 -46,151.8 		"/>
		<polygon id="XMLID_5_" class="st0" points="-43.1,151.8 -43.8,151.4 -46,151.4 -46,151.8 		"/>
		<path id="XMLID_3_" class="st0" d="M-43.2,152.8h-5.4c-0.3,0-0.6,0.3-0.7,0.6h6.8C-42.6,152.9-42.9,152.8-43.2,152.8z"/>
		<rect id="XMLID_2_" x="-47.1" y="151.4" class="st0" width="2.4" height="0.8"/>
	</g>
</g>
</svg>
