<?xml version="1.0" encoding="utf-8"?>
<!-- Generator: Adobe Illustrator 19.0.0, SVG Export Plug-In . SVG Version: 6.00 Build 0)  -->
<svg version="1.1" id="Warstwa_1" xmlns="http://www.w3.org/2000/svg" xmlns:xlink="http://www.w3.org/1999/xlink" x="0px" y="0px"
	 viewBox="-180 244.3 114.7 20.7" style="enable-background:new -180 244.3 114.7 20.7;" xml:space="preserve">
<style type="text/css">
	.st0{fill:#FFFFFF;}
	.st1{enable-background:new    ;}
	.st2{fill:#010101;}
	.st3{fill:#317DC1;}
	.st4{fill:#045FA9;}
	.st5{fill:#0FACF3;}
</style>
<rect x="165.5" y="77.3" class="st0" width="320" height="320"/>
<g id="XMLID_4_">
	<g id="XMLID_43_" class="st1">
		<path id="XMLID_44_" class="st2" d="M-177.1,299.7h1.7v5.1c-0.7,0.6-1.5,1-2.5,1.3c-0.9,0.3-1.9,0.5-2.8,0.5
			c-1.3,0-2.6-0.3-3.7-0.9c-1.1-0.6-2-1.5-2.6-2.6s-1-2.3-1-3.6s0.3-2.5,1-3.6s1.5-1.9,2.7-2.6c1.1-0.6,2.4-0.9,3.7-0.9
			c1,0,1.9,0.2,2.8,0.5c0.9,0.3,1.7,0.8,2.4,1.4l-1.1,1.4c-0.6-0.5-1.2-0.9-1.9-1.2c-0.7-0.3-1.4-0.4-2.1-0.4c-1,0-1.9,0.2-2.8,0.7
			c-0.8,0.5-1.5,1.1-2,2c-0.5,0.9-0.7,1.7-0.7,2.7s0.2,1.9,0.7,2.7c0.5,0.8,1.2,1.5,2,2c0.9,0.5,1.8,0.7,2.8,0.7
			c0.6,0,1.2-0.1,1.8-0.3c0.6-0.2,1.2-0.5,1.7-0.8v-4.1H-177.1z"/>
		<path id="XMLID_46_" class="st2" d="M-165.5,306.5V305c-0.8,1-2,1.6-3.7,1.6c-0.7,0-1.4-0.1-1.9-0.4c-0.5-0.3-1-0.7-1.3-1.2
			c-0.3-0.5-0.4-1-0.4-1.7c0-0.9,0.3-1.7,1-2.2c0.7-0.6,1.7-0.8,2.9-0.8h3.3v-0.6c0-0.7-0.2-1.3-0.7-1.7s-1.1-0.6-2-0.6
			c-1.1,0-2.1,0.4-3.2,1.1l-0.8-1.3c0.8-0.5,1.5-0.8,2.1-1.1c0.7-0.1,1.5-0.2,2.4-0.2c1.3,0,2.3,0.3,3,1c0.8,0.6,1.1,1.5,1.1,2.6
			v6.9h-1.8V306.5z M-166.6,304.4c0.6-0.4,1-1,1.1-1.7v-1.1h-3.1c-0.8,0-1.5,0.1-1.9,0.4s-0.6,0.7-0.6,1.2s0.2,1,0.6,1.3
			s1,0.5,1.7,0.5C-167.9,305-167.2,304.8-166.6,304.4z"/>
		<path id="XMLID_49_" class="st2" d="M-143.9,297c0.7,0.7,1,1.7,1,3v6.5h-1.8v-6c0-0.9-0.2-1.6-0.7-2.1s-1.2-0.8-2-0.8
			c-1,0-1.8,0.4-2.4,1.1c-0.6,0.7-0.9,1.5-0.9,2.6v5.2h-1.9v-6c0-0.9-0.2-1.6-0.7-2.1s-1.1-0.8-2-0.8c-1,0-1.8,0.4-2.4,1.1
			c-0.6,0.7-0.9,1.5-0.9,2.6v5.2h-1.9v-10.6h1.9v2.2c0.7-1.5,2-2.2,3.9-2.3c1,0,1.8,0.2,2.4,0.7c0.6,0.5,1.1,1.1,1.3,2
			c0.8-1.7,2.2-2.6,4.3-2.6C-145.5,295.9-144.6,296.2-143.9,297z"/>
		<path id="XMLID_51_" class="st2" d="M-131,296.6c0.8,0.5,1.4,1.1,1.8,1.9s0.6,1.7,0.6,2.8c0,1-0.2,2-0.6,2.8
			c-0.4,0.8-1,1.4-1.8,1.9s-1.6,0.7-2.6,0.7c-0.9,0-1.7-0.2-2.4-0.6s-1.2-0.9-1.6-1.6v2.1h-1.9v-14.9h1.9v6.3
			c0.4-0.7,0.9-1.2,1.6-1.6c0.7-0.3,1.5-0.5,2.3-0.5C-132.7,295.9-131.8,296.1-131,296.6z M-132.2,304.4c0.5-0.3,1-0.8,1.3-1.3
			c0.3-0.6,0.4-1.2,0.4-1.9c0-0.7-0.2-1.3-0.5-1.9c-0.3-0.6-0.7-1.1-1.2-1.4c-0.5-0.3-1.1-0.5-1.8-0.5s-1.3,0.2-1.9,0.5
			c-0.5,0.3-1,0.8-1.3,1.3s-0.5,1.2-0.5,1.9c0,0.7,0.2,1.4,0.5,1.9c0.3,0.6,0.7,1,1.3,1.3c0.5,0.3,1.1,0.5,1.8,0.5
			C-133.4,304.8-132.7,304.8-132.2,304.4z"/>
	</g>
	<g id="XMLID_31_" class="st1">
		<path id="XMLID_112_" class="st3" d="M-118.6,292.5h10.9v1.8h-4.5v12.2h-1.9v-12.2h-4.5V292.5z"/>
	</g>
	<g id="XMLID_30_" class="st1">
		<path id="XMLID_54_" class="st2" d="M-95.5,294.5c-0.7-0.2-1.3-0.3-1.9-0.3c-0.8,0-1.5,0.2-1.9,0.5c-0.5,0.3-0.7,0.7-0.7,1.3
			c0,0.5,0.1,0.9,0.4,1.2c0.3,0.3,0.7,0.6,1.1,0.7c0.4,0.2,1,0.4,1.8,0.6c0.9,0.3,1.7,0.6,2.3,0.8c0.6,0.3,1.1,0.7,1.5,1.2
			s0.6,1.2,0.6,2.1c0,0.8-0.2,1.5-0.6,2.1c-0.4,0.6-1,1.1-1.8,1.4c-0.8,0.3-1.7,0.5-2.7,0.5s-2-0.2-3-0.6s-1.8-0.9-2.5-1.6l0.9-1.7
			c0.7,0.7,1.4,1.2,2.2,1.5c0.8,0.4,1.6,0.5,2.4,0.5c0.9,0,1.7-0.2,2.2-0.5c0.5-0.3,0.8-0.9,0.8-1.5c0-0.5-0.1-0.9-0.4-1.2
			s-0.7-0.6-1.1-0.8c-0.4-0.2-1-0.4-1.8-0.6c-0.9-0.3-1.7-0.6-2.3-0.8c-0.6-0.3-1.1-0.7-1.5-1.2s-0.6-1.2-0.6-2.1
			c0-0.7,0.2-1.4,0.6-2s1-1,1.7-1.3c0.7-0.3,1.6-0.5,2.6-0.5c0.8,0,1.7,0.1,2.5,0.4c0.8,0.2,1.5,0.6,2.1,1l-0.8,1.7
			C-94.1,295-94.8,294.7-95.5,294.5z"/>
		<path id="XMLID_56_" class="st2" d="M-83.9,305.8c-0.8,0.5-1.6,0.8-2.5,0.8s-1.5-0.2-2-0.7s-0.8-1.3-0.8-2.3v-5.9h-1.5v-1.4h1.5
			v-2.8h1.9v2.8h3.2v1.4h-3.2v5.5c0,0.6,0.1,1,0.3,1.3c0.2,0.3,0.5,0.4,1,0.4s1-0.2,1.6-0.5L-83.9,305.8z"/>
		<path id="XMLID_58_" class="st2" d="M-72.3,295.9v10.5h-1.9v-2.2c-0.7,1.5-2,2.3-3.9,2.3c-1.2,0-2.2-0.4-2.9-1.1
			c-0.7-0.7-1-1.7-1-3v-6.5h1.9v6c0,0.9,0.2,1.6,0.7,2.1s1.2,0.7,2,0.7c1,0,1.8-0.4,2.3-1c0.6-0.7,0.9-1.6,0.9-2.6v-5.2H-72.3z"/>
		<path id="XMLID_60_" class="st2" d="M-58.9,291.7v14.8h-1.8v-2.1c-0.4,0.7-0.9,1.2-1.6,1.6s-1.5,0.6-2.3,0.6c-1,0-1.9-0.2-2.6-0.7
			c-0.8-0.5-1.4-1.1-1.8-1.9s-0.6-1.8-0.6-2.8s0.2-2,0.6-2.8c0.4-0.8,1-1.4,1.8-1.9c0.7-0.4,1.5-0.6,2.5-0.6c0.9,0,1.7,0.2,2.4,0.6
			s1.2,0.9,1.6,1.6v-6.4H-58.9z M-62.4,304.5c0.5-0.3,1-0.8,1.3-1.3c0.3-0.6,0.5-1.2,0.5-1.9c0-0.7-0.2-1.4-0.5-2
			c-0.3-0.6-0.7-1-1.3-1.3c-0.5-0.3-1.2-0.5-1.8-0.5c-0.7,0-1.3,0.2-1.8,0.5s-1,0.8-1.3,1.3c-0.3,0.6-0.5,1.2-0.5,1.9
			c0,0.7,0.2,1.4,0.5,1.9c0.3,0.6,0.7,1,1.3,1.3c0.5,0.3,1.2,0.5,1.8,0.5C-63.6,305-63,304.8-62.4,304.5z"/>
		<path id="XMLID_63_" class="st2" d="M-53.4,292.1c0.2,0.2,0.3,0.5,0.3,0.9s-0.1,0.6-0.3,0.9c-0.2,0.2-0.5,0.3-0.8,0.3
			s-0.6-0.1-0.8-0.3c-0.2-0.2-0.3-0.5-0.3-0.9s0.1-0.6,0.3-0.9c0.2-0.2,0.5-0.3,0.8-0.3S-53.6,291.8-53.4,292.1z M-55.1,295.9h1.9
			v10.5h-1.9V295.9z"/>
		<path id="XMLID_66_" class="st2" d="M-42.5,296.6c0.8,0.5,1.5,1.1,1.9,1.9c0.5,0.8,0.7,1.7,0.7,2.8c0,1-0.2,2-0.7,2.8
			c-0.5,0.8-1.1,1.4-1.9,1.9c-0.8,0.5-1.8,0.7-2.8,0.7c-1.1,0-2-0.2-2.8-0.7s-1.5-1.1-1.9-1.9c-0.5-0.8-0.7-1.7-0.7-2.8
			c0-1,0.2-2,0.7-2.8s1.1-1.4,1.9-1.9c0.8-0.5,1.8-0.7,2.8-0.7C-44.2,295.9-43.3,296.1-42.5,296.6z M-47.1,298
			c-0.5,0.3-1,0.8-1.3,1.3c-0.3,0.6-0.4,1.2-0.4,1.9c0,0.7,0.1,1.4,0.4,2c0.3,0.6,0.7,1,1.3,1.3c0.5,0.3,1.2,0.5,1.8,0.5
			c0.7,0,1.3-0.2,1.8-0.5s1-0.8,1.3-1.3c0.3-0.6,0.4-1.2,0.4-2c0-0.7-0.1-1.4-0.4-1.9c-0.3-0.6-0.7-1-1.3-1.3s-1.1-0.5-1.8-0.5
			C-46,297.5-46.6,297.6-47.1,298z"/>
	</g>
	<g id="XMLID_17_">
		<path id="XMLID_27_" class="st3" d="M-120.5,294.7c0-1.5-1.3-2.8-2.8-2.8s-2.8,1.3-2.8,2.8c0,0.8,0.4,1.6,0.9,2.1h3.7
			C-120.8,296.3-120.5,295.5-120.5,294.7z"/>
		<path id="XMLID_26_" class="st3" d="M-121.3,298.4h-4c-0.3,0-0.6-0.2-0.6-0.6v-0.2c0-0.3,0.2-0.6,0.6-0.6h4c0.3,0,0.6,0.2,0.6,0.6
			v0.2C-120.7,298.2-121,298.4-121.3,298.4z"/>
		<path id="XMLID_25_" class="st3" d="M-123.3,301.9c-0.4,0-0.7,0.1-1.1,0.2h2.1C-122.5,301.9-122.9,301.9-123.3,301.9z"/>
		<path id="XMLID_24_" class="st3" d="M-122.2,302.1h-2.1c-0.9,0.4-1.5,1.3-1.5,2.3v0.1h5.1v-0.1
			C-120.7,303.4-121.3,302.5-122.2,302.1z"/>
		<rect id="XMLID_23_" x="-124.8" y="298.8" class="st3" width="3.1" height="4"/>
		<path id="XMLID_22_" class="st3" d="M-120.1,306.1h-6.3c-0.2,0-0.3-0.1-0.3-0.3v-0.1c0-0.2,0.1-0.3,0.3-0.3h6.3
			c0.2,0,0.3,0.1,0.3,0.3v0.2C-119.9,306-120,306.1-120.1,306.1z"/>
		<polygon id="XMLID_21_" class="st3" points="-126.6,305.5 -125.8,305 -123.3,305 -123.3,305.5 		"/>
		<polygon id="XMLID_20_" class="st3" points="-119.9,305.5 -120.7,305 -123.3,305 -123.3,305.5 		"/>
		<path id="XMLID_19_" class="st3" d="M-120,306.5h-6.4c-0.4,0-0.7,0.3-0.8,0.7h8C-119.3,306.8-119.6,306.5-120,306.5z"/>
		<rect id="XMLID_18_" x="-124.6" y="305" class="st3" width="2.8" height="0.9"/>
	</g>
	<g id="XMLID_28_" class="st1">
		<path id="XMLID_69_" class="st3" d="M-118.1,315l-0.5-1h-2.3l-0.4,1h-0.6l1.9-4.3h0.6l1.9,4.3H-118.1z M-120.5,313.4h1.8l-0.9-2.1
			L-120.5,313.4z"/>
		<path id="XMLID_72_" class="st3" d="M-113.9,312.9h0.5v1.6c-0.2,0.2-0.5,0.3-0.8,0.4s-0.6,0.2-0.9,0.2c-0.4,0-0.8-0.1-1.1-0.3
			c-0.3-0.2-0.6-0.5-0.8-0.8c-0.2-0.3-0.3-0.7-0.3-1.1c0-0.4,0.1-0.8,0.3-1.1c0.2-0.3,0.5-0.6,0.8-0.8c0.3-0.2,0.7-0.3,1.2-0.3
			c0.3,0,0.6,0.1,0.9,0.2c0.3,0.1,0.5,0.3,0.7,0.4l-0.3,0.4c-0.2-0.2-0.4-0.3-0.6-0.4c-0.2-0.1-0.5-0.1-0.7-0.1
			c-0.3,0-0.6,0.1-0.8,0.2c-0.3,0.1-0.5,0.3-0.6,0.6c-0.2,0.3-0.3,0.5-0.3,0.9s0.1,0.6,0.2,0.8c0.1,0.2,0.4,0.5,0.6,0.6
			c0.3,0.1,0.5,0.2,0.8,0.2c0.2,0,0.4,0,0.5-0.1s0.4-0.1,0.5-0.2v-1.3H-113.9z"/>
		<path id="XMLID_74_" class="st3" d="M-112.3,310.7h3v0.5h-2.4v1.3h2.1v0.5h-2.1v1.4h2.5v0.5h-3.1V310.7z"/>
		<path id="XMLID_76_" class="st3" d="M-105.2,310.7h0.6v4.3h-0.6l-2.5-3.3v3.3h-0.6v-4.3h0.6l2.5,3.3V310.7z"/>
		<path id="XMLID_78_" class="st3" d="M-100.9,311.3c-0.2-0.1-0.4-0.1-0.7-0.1c-0.3,0-0.6,0.1-0.8,0.2c-0.3,0.1-0.5,0.3-0.6,0.6
			s-0.2,0.5-0.2,0.8c0,0.3,0.1,0.6,0.2,0.8c0.1,0.3,0.3,0.5,0.6,0.6c0.3,0.1,0.5,0.2,0.8,0.2c0.2,0,0.4,0,0.7-0.1
			c0.2-0.1,0.4-0.2,0.6-0.4l0.4,0.4c-0.2,0.2-0.5,0.4-0.8,0.5c-0.3,0.1-0.6,0.2-0.9,0.2c-0.4,0-0.8-0.1-1.1-0.3
			c-0.3-0.2-0.6-0.5-0.8-0.8c-0.2-0.3-0.3-0.7-0.3-1.1c0-0.4,0.1-0.8,0.3-1.1c0.2-0.3,0.5-0.6,0.8-0.8c0.3-0.2,0.7-0.3,1.1-0.3
			c0.3,0,0.6,0.1,0.9,0.2c0.3,0.1,0.5,0.3,0.7,0.5l-0.3,0.4C-100.5,311.6-100.7,311.4-100.9,311.3z"/>
		<path id="XMLID_80_" class="st3" d="M-97.6,314.7c-0.2,0.2-0.5,0.3-0.9,0.3c-0.2,0-0.5-0.1-0.7-0.2c-0.2-0.1-0.4-0.3-0.5-0.5
			l0.3-0.5c0.1,0.2,0.3,0.3,0.4,0.4c0.1,0.1,0.3,0.1,0.5,0.1s0.4-0.1,0.5-0.2s0.2-0.3,0.2-0.6v-2.4h-1.5v-0.5h2.1v3
			C-97.2,314.1-97.4,314.5-97.6,314.7z"/>
		<path id="XMLID_82_" class="st3" d="M-93.1,315l-0.5-1h-2.3l-0.4,1h-0.6l1.9-4.3h0.6l1.9,4.3H-93.1z M-95.5,313.4h1.8l-0.9-2.1
			L-95.5,313.4z"/>
		<path id="XMLID_85_" class="st3" d="M-90.2,310.7h0.6v4.3h-0.6V310.7z"/>
		<path id="XMLID_87_" class="st3" d="M-85.3,310.7h0.6v4.3h-0.6l-2.5-3.3v3.3h-0.6v-4.3h0.6l2.5,3.3V310.7z"/>
		<path id="XMLID_89_" class="st3" d="M-84.1,310.7h3.4v0.5h-1.4v3.8h-0.6v-3.8h-1.4V310.7z"/>
		<path id="XMLID_91_" class="st3" d="M-80,310.7h3v0.5h-2.4v1.3h2.1v0.5h-2.1v1.4h2.5v0.5H-80V310.7z"/>
		<path id="XMLID_93_" class="st3" d="M-73.2,315l-0.9-1.3c-0.1,0-0.2,0-0.2,0h-1.1v1.3H-76v-4.3h1.7c0.5,0,1,0.1,1.3,0.4
			c0.3,0.3,0.4,0.6,0.4,1.1c0,0.3-0.1,0.6-0.2,0.9c-0.2,0.2-0.4,0.4-0.7,0.5l1,1.5h-0.7V315z M-74.3,313.1c0.4,0,0.6-0.1,0.8-0.2
			c0.2-0.2,0.3-0.4,0.3-0.7c0-0.3-0.1-0.5-0.3-0.7c-0.2-0.2-0.5-0.2-0.8-0.2h-1.1v1.9h1.1V313.1z"/>
		<path id="XMLID_96_" class="st3" d="M-68.4,315l-0.5-1h-2.3l-0.4,1h-0.6l1.9-4.3h0.6l1.9,4.3H-68.4z M-70.9,313.4h1.8l-0.9-2.1
			L-70.9,313.4z"/>
		<path id="XMLID_99_" class="st3" d="M-63.5,315h-0.7l-1.5-2l-0.8,0.9v1.1h-0.6v-4.3h0.6v2.4l2.2-2.4h0.7l-1.7,1.9L-63.5,315z"/>
		<path id="XMLID_101_" class="st3" d="M-63.3,310.7h3.4v0.5h-1.4v3.8h-0.6v-3.8h-1.4V310.7z"/>
		<path id="XMLID_103_" class="st3" d="M-56.1,310.7l-1.6,2.8v1.5h-0.6v-1.4l-1.6-2.8h0.6l1.3,2.2l1.3-2.2L-56.1,310.7L-56.1,310.7z
			"/>
		<path id="XMLID_105_" class="st3" d="M-50.3,310.7h0.6l-1.5,4.3h-0.5l-1.1-3.5l-1.1,3.5h-0.6l-1.4-4.3h0.6l1.1,3.7l1.1-3.7h0.6
			l1.1,3.7L-50.3,310.7z"/>
		<path id="XMLID_107_" class="st3" d="M-46,310.7h0.6v4.3H-46l-2.5-3.3v3.3h-0.6v-4.3h0.6l2.5,3.3V310.7z"/>
		<path id="XMLID_109_" class="st3" d="M-41,315l-0.5-1h-2.2l-0.4,1h-0.6l1.9-4.3h0.6l1.9,4.3H-41z M-43.5,313.4h1.8l-0.9-2.1
			L-43.5,313.4z"/>
	</g>
</g>
<g>
	<g>
		<path class="st0" d="M-175.1,257.4h-1.9c-0.9,0-1.6-0.2-2.1-0.7c-0.5-0.5-0.7-1.2-0.7-2.1v-6c0-0.9,0.2-1.6,0.7-2.1
			c0.5-0.5,1.2-0.7,2.1-0.7h1.9c0.9,0,1.6,0.2,2.1,0.7c0.5,0.5,0.7,1.2,0.7,2.1v0.6c0,0.2-0.1,0.3-0.3,0.3h-1.1
			c-0.2,0-0.3-0.1-0.3-0.3v-0.6c0-0.9-0.4-1.3-1.3-1.3h-1.4c-0.9,0-1.3,0.4-1.3,1.3v5.9c0,0.9,0.4,1.3,1.3,1.3h1.4
			c0.9,0,1.3-0.4,1.3-1.3V253c0-0.1-0.1-0.2-0.2-0.2h-1.5c-0.2,0-0.3-0.1-0.3-0.3v-0.9c0-0.2,0.1-0.3,0.3-0.3h3
			c0.3,0,0.4,0.1,0.4,0.4v3c0,0.9-0.2,1.6-0.7,2.1S-174.2,257.4-175.1,257.4z"/>
		<path class="st0" d="M-166.7,257.4h-0.7c-0.9,0-1.6-0.2-2.1-0.7c-0.5-0.5-0.7-1.2-0.7-2.1v-3.6c0-0.9,0.2-1.6,0.7-2.1
			c0.5-0.5,1.2-0.7,2.1-0.7h4c0.2,0,0.3,0.1,0.3,0.3v8.6c0,0.2-0.1,0.3-0.3,0.3h-1.1c-0.2,0-0.3-0.1-0.3-0.3v-0.6h-0.1
			C-165.2,257.1-165.8,257.4-166.7,257.4z M-164.8,254.4V250c0-0.1-0.1-0.2-0.2-0.2h-2.1c-0.9,0-1.3,0.4-1.3,1.3v3.5
			c0,0.9,0.4,1.3,1.3,1.3h0.9C-165.3,255.9-164.8,255.4-164.8,254.4z"/>
		<path class="st0" d="M-159.4,257.4h-1.1c-0.2,0-0.3-0.1-0.3-0.3v-8.6c0-0.2,0.1-0.3,0.3-0.3h1.1c0.2,0,0.3,0.1,0.3,0.3v0.6h0.1
			c0.3-0.6,1-1,1.9-1h0.6c1,0,1.8,0.4,2.2,1.2c0.2-0.4,0.5-0.7,0.9-0.9s0.8-0.3,1.3-0.3h0.6c0.9,0,1.5,0.2,2,0.7
			c0.5,0.5,0.7,1.2,0.7,2.1v6.1c0,0.2-0.1,0.3-0.3,0.3h-1.2c-0.2,0-0.3-0.1-0.3-0.3v-6c0-0.9-0.4-1.3-1.3-1.3h-0.5
			c-1,0-1.5,0.5-1.5,1.6v5.8c0,0.2-0.1,0.3-0.3,0.3h-1.1c-0.2,0-0.3-0.1-0.3-0.3v-6c0-0.9-0.4-1.3-1.3-1.3h-0.6
			c-1,0-1.5,0.5-1.5,1.5v5.8C-159.1,257.3-159.2,257.4-159.4,257.4z"/>
		<path class="st0" d="M-146.6,257.1v-12c0-0.2,0.1-0.3,0.3-0.3h1.1c0.2,0,0.3,0.1,0.3,0.3v4.1h0.1c0.3-0.6,0.9-1,1.8-1h0.8
			c0.9,0,1.6,0.2,2.1,0.7s0.7,1.2,0.7,2v3.7c0,0.9-0.2,1.6-0.7,2.1s-1.2,0.7-2.1,0.7h-4.1C-146.5,257.4-146.6,257.3-146.6,257.1z
			 M-144.7,255.9h2.2c0.9,0,1.3-0.4,1.3-1.3v-3.5c0-0.9-0.4-1.3-1.3-1.3h-1c-1,0-1.5,0.5-1.5,1.5v4.5
			C-144.9,255.9-144.8,255.9-144.7,255.9z"/>
		<path class="st0" d="M-124.9,257.4h-1.3c-0.2,0-0.4-0.1-0.4-0.3v-10.6c0-0.1-0.1-0.2-0.2-0.2h-2.5c-0.2,0-0.4-0.1-0.4-0.3v-1
			c0-0.2,0.1-0.3,0.4-0.3h7.4c0.2,0,0.4,0.1,0.4,0.3v1c0,0.2-0.1,0.3-0.4,0.3h-2.5c-0.1,0-0.2,0.1-0.2,0.2v10.6
			C-124.6,257.3-124.7,257.4-124.9,257.4z"/>
		<path class="st0" d="M-111.5,254.6v-0.5c0-0.2,0.1-0.3,0.3-0.3h1.2c0.2,0,0.3,0.1,0.3,0.3v0.3c0,0.5,0.1,0.9,0.3,1.1
			c0.2,0.2,0.6,0.3,1.1,0.3h1.2c0.5,0,0.9-0.1,1.1-0.4c0.2-0.2,0.3-0.6,0.3-1.1V254c0-0.4-0.1-0.7-0.4-0.9c-0.3-0.2-0.7-0.4-1.1-0.4
			c-0.4-0.1-0.9-0.2-1.4-0.3c-0.5-0.1-1-0.3-1.4-0.4c-0.4-0.2-0.8-0.4-1.1-0.9s-0.4-1-0.4-1.7v-0.8c0-0.9,0.2-1.6,0.7-2.1
			c0.5-0.5,1.2-0.7,2.1-0.7h1.9c0.9,0,1.6,0.2,2.1,0.7c0.5,0.5,0.7,1.2,0.7,2.1v0.4c0,0.2-0.1,0.3-0.3,0.3h-1.2
			c-0.2,0-0.3-0.1-0.3-0.3v-0.2c0-0.5-0.1-0.9-0.3-1.1s-0.6-0.3-1.1-0.3h-1.1c-0.5,0-0.9,0.1-1.1,0.4c-0.2,0.2-0.3,0.6-0.3,1.2v0.6
			c0,0.5,0.4,0.9,1.2,1.1c0.3,0.1,0.7,0.2,1.1,0.2s0.8,0.2,1.3,0.3c0.4,0.1,0.8,0.3,1.2,0.5c0.3,0.2,0.6,0.5,0.8,0.9
			c0.2,0.4,0.3,0.9,0.3,1.5v0.7c0,0.9-0.2,1.6-0.7,2.1c-0.5,0.5-1.2,0.7-2.1,0.7h-2c-0.9,0-1.6-0.2-2.1-0.7
			C-111.3,256.2-111.5,255.5-111.5,254.6z"/>
		<path class="st0" d="M-101.4,249.8h-0.9c-0.1,0-0.2,0-0.2-0.1s-0.1-0.1-0.1-0.2v-0.9c0-0.2,0.1-0.3,0.3-0.3h0.9
			c0.1,0,0.2-0.1,0.2-0.2v-1.6c0-0.2,0.1-0.3,0.3-0.3h1.1c0.2,0,0.3,0.1,0.3,0.3v1.6c0,0.1,0.1,0.2,0.2,0.2h1.7
			c0.2,0,0.3,0.1,0.3,0.3v0.9c0,0.2-0.1,0.3-0.3,0.3h-1.7c-0.1,0-0.2,0.1-0.2,0.2v4.6c0,0.9,0.5,1.3,1.4,1.3h0.7
			c0.2,0,0.3,0.1,0.3,0.3v0.9c0,0.2-0.1,0.3-0.3,0.3h-1c-0.9,0-1.6-0.2-2.1-0.7c-0.5-0.5-0.8-1.2-0.8-2V250
			C-101.2,249.9-101.3,249.8-101.4,249.8z"/>
		<path class="st0" d="M-91.9,257.4h-0.8c-0.9,0-1.5-0.2-2-0.7s-0.7-1.2-0.7-2.1v-6.1c0-0.2,0.1-0.3,0.3-0.3h1.1
			c0.2,0,0.3,0.1,0.3,0.3v6c0,0.9,0.4,1.3,1.3,1.3h0.9c1,0,1.5-0.5,1.5-1.5v-5.8c0-0.2,0.1-0.3,0.3-0.3h1.1c0.2,0,0.3,0.1,0.3,0.3
			v8.6c0,0.2-0.1,0.3-0.3,0.3h-1.1c-0.2,0-0.3-0.1-0.3-0.3v-0.6h-0.1C-90.4,257.1-91,257.4-91.9,257.4z"/>
		<path class="st0" d="M-82.6,257.4h-0.9c-0.9,0-1.5-0.2-2-0.7c-0.5-0.5-0.7-1.2-0.7-2.1v-3.6c0-0.9,0.2-1.6,0.7-2.1
			c0.5-0.5,1.1-0.7,2-0.7h0.9c0.9,0,1.5,0.3,1.8,1h0.1v-4.1c0-0.2,0.1-0.3,0.3-0.3h1.2c0.2,0,0.3,0.1,0.3,0.3v12
			c0,0.2-0.1,0.3-0.3,0.3h-1.2c-0.2,0-0.3-0.1-0.3-0.3v-0.6h-0.1C-81.1,257.1-81.7,257.4-82.6,257.4z M-80.7,254.4v-3.1
			c0-1-0.5-1.5-1.5-1.5h-1c-0.9,0-1.3,0.4-1.3,1.3v3.5c0,0.9,0.4,1.3,1.3,1.3h1C-81.2,255.9-80.7,255.4-80.7,254.4z"/>
		<path class="st0" d="M-76.6,246.7v-1.6c0-0.2,0.1-0.3,0.3-0.3h1.2c0.2,0,0.3,0.1,0.3,0.3v1.6c0,0.2-0.1,0.3-0.3,0.3h-1.2
			C-76.5,247-76.6,246.9-76.6,246.7z M-76.6,257.1v-8.6c0-0.2,0.1-0.3,0.3-0.3h1.2c0.2,0,0.3,0.1,0.3,0.3v8.6c0,0.1,0,0.2-0.1,0.2
			s-0.1,0.1-0.2,0.1h-1.2C-76.5,257.4-76.6,257.3-76.6,257.1z"/>
		<path class="st0" d="M-68.3,257.4h-1.6c-0.9,0-1.6-0.2-2.1-0.7c-0.5-0.5-0.7-1.2-0.7-2.1v-3.6c0-0.9,0.2-1.6,0.7-2.1
			c0.5-0.5,1.2-0.7,2.1-0.7h1.6c0.9,0,1.6,0.2,2.1,0.7c0.5,0.5,0.7,1.2,0.7,2.1v3.6c0,0.9-0.2,1.6-0.7,2.1S-67.4,257.4-68.3,257.4z
			 M-69.6,255.9h1.1c0.9,0,1.3-0.4,1.3-1.3v-3.5c0-0.9-0.4-1.3-1.3-1.3h-1.1c-0.5,0-0.8,0.1-1,0.3s-0.3,0.5-0.3,1v3.5
			c0,0.5,0.1,0.8,0.3,1C-70.4,255.8-70.1,255.9-69.6,255.9z"/>
	</g>
	<g>
		<path class="st0" d="M-136.1,265h-0.5c-0.1,0-0.1,0-0.1-0.1l1.2-4.3c0-0.1,0.1-0.1,0.2-0.1h0.7c0.1,0,0.1,0,0.2,0.1l1.2,4.3
			c0,0.1,0,0.1-0.1,0.1h-0.5c0,0-0.1,0-0.1,0c0,0,0,0,0-0.1l-0.3-0.9h-1.5l-0.3,0.9C-136,265-136.1,265-136.1,265z M-135,261.2
			l-0.6,2.2h1.3L-135,261.2L-135,261.2z"/>
		<path class="st0" d="M-130.8,265h-0.7c-0.3,0-0.6-0.1-0.8-0.3s-0.3-0.5-0.3-0.8v-2.3c0-0.3,0.1-0.6,0.3-0.8
			c0.2-0.2,0.5-0.3,0.8-0.3h0.7c0.3,0,0.6,0.1,0.8,0.3c0.2,0.2,0.3,0.5,0.3,0.8v0.3c0,0.1,0,0.1-0.1,0.1h-0.4c-0.1,0-0.1,0-0.1-0.1
			v-0.2c0-0.3-0.2-0.5-0.5-0.5h-0.6c-0.3,0-0.5,0.2-0.5,0.5v2.3c0,0.3,0.2,0.5,0.5,0.5h0.6c0.3,0,0.5-0.2,0.5-0.5v-0.6
			c0,0,0-0.1-0.1-0.1h-0.6c-0.1,0-0.1,0-0.1-0.1v-0.4c0-0.1,0-0.1,0.1-0.1h1.2c0.1,0,0.1,0,0.1,0.1v1.2c0,0.3-0.1,0.6-0.3,0.8
			C-130.2,265-130.4,265-130.8,265z"/>
		<path class="st0" d="M-126.4,265h-2.2c-0.1,0-0.1,0-0.1-0.1v-4.3c0-0.1,0-0.1,0.1-0.1h2.2c0.1,0,0.1,0,0.1,0.1v0.4
			c0,0.1,0,0.1-0.1,0.1h-1.6c-0.1,0-0.1,0-0.1,0.1v1.2c0,0,0,0.1,0.1,0.1h1.4c0.1,0,0.1,0,0.1,0.1v0.4c0,0.1,0,0.1-0.1,0.1h-1.4
			c-0.1,0-0.1,0-0.1,0.1v1.2c0,0.1,0,0.1,0.1,0.1h1.6c0.1,0,0.1,0,0.1,0.1v0.4C-126.3,265-126.3,265-126.4,265z"/>
		<path class="st0" d="M-124.8,265h-0.4c-0.1,0-0.1,0-0.1-0.1v-4.3c0-0.1,0-0.1,0.1-0.1h0.4c0.1,0,0.1,0,0.2,0.1l1.7,3h0v-3
			c0-0.1,0-0.1,0.1-0.1h0.4c0.1,0,0.1,0,0.1,0.1v4.3c0,0.1,0,0.1-0.1,0.1h-0.4c-0.1,0-0.1,0-0.2-0.1l-1.7-3h0v3
			C-124.7,265-124.7,265-124.8,265z"/>
		<path class="st0" d="M-119.5,265h-0.8c-0.3,0-0.6-0.1-0.8-0.3s-0.3-0.5-0.3-0.8v-2.3c0-0.3,0.1-0.6,0.3-0.8
			c0.2-0.2,0.5-0.3,0.8-0.3h0.8c0.3,0,0.6,0.1,0.8,0.3c0.2,0.2,0.3,0.5,0.3,0.8v0.3c0,0.1,0,0.1-0.1,0.1h-0.4c-0.1,0-0.1,0-0.1-0.1
			v-0.3c0-0.3-0.2-0.5-0.5-0.5h-0.6c-0.3,0-0.5,0.2-0.5,0.5v2.3c0,0.3,0.2,0.5,0.5,0.5h0.6c0.3,0,0.5-0.2,0.5-0.5v-0.3
			c0-0.1,0-0.1,0.1-0.1h0.4c0.1,0,0.1,0,0.1,0.1v0.3c0,0.3-0.1,0.6-0.3,0.8C-118.9,265-119.1,265-119.5,265z"/>
		<path class="st0" d="M-115.5,260.5h0.4c0.1,0,0.1,0,0.1,0.1v3.3c0,0.3-0.1,0.6-0.3,0.8s-0.5,0.3-0.8,0.3h-0.7
			c-0.3,0-0.6-0.1-0.8-0.3s-0.3-0.5-0.3-0.8v-0.6c0-0.1,0-0.1,0.1-0.1h0.4c0.1,0,0.1,0,0.1,0.1v0.6c0,0.3,0.2,0.5,0.5,0.5h0.5
			c0.3,0,0.5-0.2,0.5-0.5v-3.3C-115.6,260.6-115.5,260.5-115.5,260.5z"/>
		<path class="st0" d="M-113.7,265h-0.5c-0.1,0-0.1,0-0.1-0.1l1.2-4.3c0-0.1,0.1-0.1,0.2-0.1h0.7c0.1,0,0.1,0,0.2,0.1l1.2,4.3
			c0,0.1,0,0.1-0.1,0.1h-0.5c0,0-0.1,0-0.1,0c0,0,0,0,0-0.1l-0.3-0.9h-1.5l-0.3,0.9C-113.6,265-113.6,265-113.7,265z M-112.5,261.2
			l-0.6,2.2h1.3L-112.5,261.2L-112.5,261.2z"/>
		<path class="st0" d="M-107.7,260.7v4.3c0,0.1,0,0.1-0.1,0.1h-0.4c-0.1,0-0.1,0-0.1-0.1v-4.3c0-0.1,0-0.1,0.1-0.1h0.4
			C-107.7,260.5-107.7,260.6-107.7,260.7z"/>
		<path class="st0" d="M-106.1,265h-0.4c-0.1,0-0.1,0-0.1-0.1v-4.3c0-0.1,0-0.1,0.1-0.1h0.4c0.1,0,0.1,0,0.2,0.1l1.7,3h0v-3
			c0-0.1,0-0.1,0.1-0.1h0.4c0.1,0,0.1,0,0.1,0.1v4.3c0,0.1,0,0.1-0.1,0.1h-0.4c-0.1,0-0.1,0-0.2-0.1l-1.7-3h0v3
			C-106,265-106,265-106.1,265z"/>
		<path class="st0" d="M-101.3,265h-0.4c-0.1,0-0.1,0-0.1-0.1v-3.7c0,0,0-0.1-0.1-0.1h-0.9c-0.1,0-0.1,0-0.1-0.1v-0.4
			c0-0.1,0-0.1,0.1-0.1h2.6c0.1,0,0.1,0,0.1,0.1v0.4c0,0.1,0,0.1-0.1,0.1h-0.9c-0.1,0-0.1,0-0.1,0.1v3.7
			C-101.2,265-101.2,265-101.3,265z"/>
		<path class="st0" d="M-97.2,265h-2.2c-0.1,0-0.1,0-0.1-0.1v-4.3c0-0.1,0-0.1,0.1-0.1h2.2c0.1,0,0.1,0,0.1,0.1v0.4
			c0,0.1,0,0.1-0.1,0.1h-1.6c-0.1,0-0.1,0-0.1,0.1v1.2c0,0,0,0.1,0.1,0.1h1.4c0.1,0,0.1,0,0.1,0.1v0.4c0,0.1,0,0.1-0.1,0.1h-1.4
			c-0.1,0-0.1,0-0.1,0.1v1.2c0,0.1,0,0.1,0.1,0.1h1.6c0.1,0,0.1,0,0.1,0.1v0.4C-97.1,265-97.1,265-97.2,265z"/>
		<path class="st0" d="M-95.6,265H-96c-0.1,0-0.1,0-0.1-0.1v-4.3c0-0.1,0-0.1,0.1-0.1h1.6c0.3,0,0.6,0.1,0.8,0.3
			c0.2,0.2,0.3,0.5,0.3,0.8v0.6c0,0.5-0.2,0.9-0.7,1v0l0.8,1.6c0.1,0.1,0,0.1-0.1,0.1h-0.4c-0.1,0-0.2,0-0.2-0.1l-0.7-1.6h-0.7
			c-0.1,0-0.1,0-0.1,0.1v1.5C-95.5,265-95.5,265-95.6,265z M-95.4,262.8h0.9c0.3,0,0.5-0.2,0.5-0.5v-0.6c0-0.3-0.2-0.5-0.5-0.5h-0.9
			c-0.1,0-0.1,0-0.1,0.1L-95.4,262.8C-95.5,262.7-95.5,262.8-95.4,262.8z"/>
		<path class="st0" d="M-92.1,265h-0.5c-0.1,0-0.1,0-0.1-0.1l1.2-4.3c0-0.1,0.1-0.1,0.2-0.1h0.7c0.1,0,0.1,0,0.2,0.1l1.2,4.3
			c0,0.1,0,0.1-0.1,0.1h-0.5c0,0-0.1,0-0.1,0c0,0,0,0,0-0.1l-0.3-0.9h-1.5l-0.3,0.9C-92,265-92.1,265-92.1,265z M-91,261.2l-0.6,2.2
			h1.3L-91,261.2L-91,261.2z"/>
		<path class="st0" d="M-88,265h-0.4c-0.1,0-0.1,0-0.1-0.1v-4.3c0-0.1,0-0.1,0.1-0.1h0.4c0.1,0,0.1,0,0.1,0.1v2.2h0
			c0-0.1,0.1-0.2,0.2-0.3l1.3-1.9c0.1-0.1,0.1-0.1,0.2-0.1h0.5c0.1,0,0.1,0,0,0.1l-1.4,1.9l1.5,2.4c0.1,0.1,0,0.1-0.1,0.1h-0.4
			c-0.1,0-0.2,0-0.3-0.1l-1.2-1.9l-0.6,0.7v1.2C-87.9,265-87.9,265-88,265z"/>
		<path class="st0" d="M-83.5,265h-0.4c-0.1,0-0.1,0-0.1-0.1v-3.7c0,0,0-0.1-0.1-0.1H-85c-0.1,0-0.1,0-0.1-0.1v-0.4
			c0-0.1,0-0.1,0.1-0.1h2.6c0.1,0,0.1,0,0.1,0.1v0.4c0,0.1,0,0.1-0.1,0.1h-0.9c-0.1,0-0.1,0-0.1,0.1v3.7
			C-83.3,265-83.4,265-83.5,265z"/>
		<path class="st0" d="M-80.2,265h-0.4c-0.1,0-0.1,0-0.1-0.1v-1.5l-1.3-2.7c0,0,0-0.1,0-0.1s0,0,0.1,0h0.6c0.1,0,0.1,0,0.1,0.1
			l0.9,1.9h0l0.8-1.9c0-0.1,0.1-0.1,0.1-0.1h0.6c0,0,0.1,0,0.1,0s0,0.1,0,0.1l-1.3,2.7v1.5C-80,265-80.1,265-80.2,265z"/>
		<path class="st0" d="M-76.7,265h-0.7c-0.1,0-0.1,0-0.1-0.1l-0.8-4.3c0-0.1,0-0.1,0.1-0.1h0.5c0.1,0,0.1,0,0.1,0.1l0.6,3.7h0
			l0.8-3.7c0-0.1,0.1-0.1,0.1-0.1h0.6c0.1,0,0.1,0,0.1,0.1l0.8,3.7h0l0.6-3.7c0-0.1,0.1-0.1,0.1-0.1h0.5c0.1,0,0.1,0,0.1,0.1
			l-0.8,4.3c0,0.1-0.1,0.1-0.1,0.1h-0.7c-0.1,0-0.1,0-0.1-0.1l-0.8-3.5h0l-0.8,3.5C-76.6,265-76.7,265-76.7,265z"/>
		<path class="st0" d="M-71.9,265h-0.4c-0.1,0-0.1,0-0.1-0.1v-4.3c0-0.1,0-0.1,0.1-0.1h0.4c0.1,0,0.1,0,0.2,0.1l1.7,3h0v-3
			c0-0.1,0-0.1,0.1-0.1h0.4c0.1,0,0.1,0,0.1,0.1v4.3c0,0.1,0,0.1-0.1,0.1h-0.4c-0.1,0-0.1,0-0.2-0.1l-1.7-3h0v3
			C-71.8,265-71.9,265-71.9,265z"/>
		<path class="st0" d="M-68.2,265h-0.5c-0.1,0-0.1,0-0.1-0.1l1.2-4.3c0-0.1,0.1-0.1,0.2-0.1h0.7c0.1,0,0.1,0,0.2,0.1l1.2,4.3
			c0,0.1,0,0.1-0.1,0.1h-0.5c0,0-0.1,0-0.1,0c0,0,0,0,0-0.1l-0.3-0.9h-1.5l-0.3,0.9C-68.1,265-68.1,265-68.2,265z M-67,261.2
			l-0.6,2.2h1.3L-67,261.2L-67,261.2z"/>
	</g>
	<g id="XMLID_1_">
		<path id="XMLID_12_" class="st0" d="M-131.7,246.9c0-1.3-1.1-2.4-2.4-2.4c-1.3,0-2.4,1.1-2.4,2.4c0,0.7,0.3,1.4,0.8,1.8h3.1
			C-131.9,248.2-131.7,247.5-131.7,246.9z"/>
		<path id="XMLID_11_" class="st0" d="M-132.3,250h-3.4c-0.3,0-0.5-0.2-0.5-0.5v-0.2c0-0.3,0.2-0.5,0.5-0.5h3.4
			c0.3,0,0.5,0.2,0.5,0.5v0.2C-131.8,249.8-132.1,250-132.3,250z"/>
		<path id="XMLID_10_" class="st0" d="M-134,253c-0.3,0-0.6,0.1-0.9,0.2h1.8C-133.3,253-133.7,253-134,253z"/>
		<path id="XMLID_9_" class="st0" d="M-133.1,253.1h-1.8c-0.8,0.3-1.3,1.1-1.3,1.9v0.1h4.3v-0.1
			C-131.8,254.2-132.3,253.5-133.1,253.1z"/>
		<rect id="XMLID_8_" x="-135.3" y="250.3" class="st0" width="2.6" height="3.4"/>
		<path id="XMLID_7_" class="st0" d="M-131.3,256.5h-5.3c-0.2,0-0.3-0.1-0.3-0.3v-0.1c0-0.2,0.1-0.3,0.3-0.3h5.3
			c0.2,0,0.3,0.1,0.3,0.3v0.2C-131.1,256.4-131.2,256.5-131.3,256.5z"/>
		<polygon id="XMLID_6_" class="st0" points="-136.8,256 -136.1,255.6 -134,255.6 -134,256 		"/>
		<polygon id="XMLID_5_" class="st0" points="-131.1,256 -131.8,255.6 -134,255.6 -134,256 		"/>
		<path id="XMLID_3_" class="st0" d="M-131.2,256.9h-5.4c-0.3,0-0.6,0.3-0.7,0.6h6.8C-130.6,257.1-130.9,256.9-131.2,256.9z"/>
		<rect id="XMLID_2_" x="-135.1" y="255.6" class="st0" width="2.4" height="0.8"/>
	</g>
</g>
<g>
	<g>
		<path d="M236.8,259v-1.8c0-0.8,0.4-1.2,1.2-1.2h4.4c0.8,0,1.2,0.4,1.2,1.2v1.2c0,1.9,0.4,3.3,1.3,4.2c0.9,0.9,2.3,1.3,4.3,1.3h4.8
			c2,0,3.4-0.5,4.3-1.4c0.9-0.9,1.3-2.4,1.3-4.4v-1.6c0-1.5-0.6-2.6-1.7-3.5c-1.1-0.9-2.5-1.4-4.2-1.7c-1.7-0.3-3.5-0.6-5.5-1.1
			c-2-0.5-3.8-1-5.5-1.6c-1.7-0.6-3.1-1.7-4.2-3.4c-1.1-1.7-1.7-3.8-1.7-6.4V236c0-3.4,1-6,2.9-7.9c1.9-1.9,4.6-2.9,7.9-2.9h7.3
			c3.4,0,6.1,1,8,2.9c1.9,1.9,2.9,4.6,2.9,7.9v1.5c0,0.8-0.4,1.2-1.2,1.2h-4.4c-0.8,0-1.2-0.4-1.2-1.2v-0.9c0-2-0.4-3.4-1.3-4.3
			c-0.9-0.9-2.3-1.3-4.3-1.3h-4.4c-2,0-3.4,0.5-4.3,1.4c-0.9,0.9-1.3,2.4-1.3,4.6v2.1c0,2.1,1.5,3.5,4.5,4.2
			c1.3,0.3,2.8,0.6,4.4,0.8c1.6,0.2,3.2,0.6,4.8,1c1.6,0.5,3.1,1.1,4.4,1.8c1.3,0.8,2.4,1.9,3.3,3.5c0.8,1.5,1.2,3.4,1.2,5.7v2.7
			c0,3.4-1,6-2.9,7.9c-1.9,1.9-4.6,2.9-7.9,2.9h-7.8c-3.4,0-6-1-8-2.9C237.8,265,236.8,262.4,236.8,259z"/>
		<path d="M276,240.3h-3.3c-0.5,0-0.8-0.1-0.9-0.2c-0.2-0.2-0.2-0.5-0.2-0.9v-3.6c0-0.8,0.4-1.2,1.2-1.2h3.3c0.5,0,0.7-0.2,0.7-0.7
			v-6.2c0-0.8,0.4-1.2,1.2-1.2h4.4c0.8,0,1.2,0.4,1.2,1.2v6.2c0,0.5,0.3,0.7,0.8,0.7h6.4c0.8,0,1.2,0.4,1.2,1.2v3.6
			c0,0.7-0.4,1.1-1.2,1.1h-6.4c-0.5,0-0.8,0.2-0.8,0.7v17.8c0,3.4,1.7,5.1,5.2,5.1h2.7c0.8,0,1.2,0.4,1.2,1.2v3.6
			c0,0.7-0.4,1.1-1.2,1.1h-3.7c-3.4,0-6.1-0.9-8-2.8c-1.9-1.8-2.9-4.5-2.9-7.8V241C276.7,240.6,276.5,240.3,276,240.3z"/>
		<path d="M312.4,269.8h-3.1c-3.3,0-5.9-0.9-7.7-2.8c-1.8-1.9-2.7-4.5-2.7-7.9v-23.4c0-0.8,0.4-1.2,1.2-1.2h4.4
			c0.8,0,1.2,0.4,1.2,1.2v23.2c0,3.4,1.7,5.1,5,5.1h3.3c3.8,0,5.7-2,5.7-5.9v-22.4c0-0.8,0.4-1.2,1.2-1.2h4.4c0.8,0,1.2,0.4,1.2,1.2
			v33c0,0.8-0.4,1.2-1.2,1.2h-4.4c-0.8,0-1.2-0.4-1.2-1.2v-2.5h-0.3C318.3,268.6,316,269.8,312.4,269.8z"/>
		<path d="M348.3,269.8h-3.5c-3.3,0-5.9-0.9-7.7-2.8c-1.8-1.9-2.7-4.5-2.7-7.9v-13.9c0-3.5,0.9-6.1,2.7-8c1.8-1.8,4.3-2.8,7.7-2.8
			h3.5c3.6,0,5.9,1.2,6.9,3.7h0.3v-15.9c0-0.8,0.4-1.2,1.2-1.2h4.4c0.8,0,1.2,0.4,1.2,1.2v46.4c0,0.8-0.4,1.2-1.2,1.2h-4.4
			c-0.8,0-1.2-0.4-1.2-1.2v-2.5h-0.3C354.2,268.6,351.9,269.8,348.3,269.8z M355.5,258v-11.8c0-3.9-1.9-5.9-5.7-5.9h-3.7
			c-3.3,0-5,1.7-5,5.1v13.3c0,3.4,1.7,5.1,5,5.1h3.7C353.6,263.9,355.5,261.9,355.5,258z"/>
		<path d="M371.4,228.6v-6.3c0-0.7,0.4-1.1,1.1-1.1h4.5c0.7,0,1.1,0.4,1.1,1.1v6.3c0,0.8-0.4,1.2-1.1,1.2h-4.5
			C371.8,229.7,371.4,229.3,371.4,228.6z M371.4,268.6v-33c0-0.8,0.4-1.2,1.1-1.2h4.4c0.8,0,1.2,0.4,1.2,1.2v33
			c0,0.5-0.1,0.8-0.2,0.9c-0.2,0.2-0.5,0.2-0.9,0.2h-4.4C371.8,269.8,371.4,269.4,371.4,268.6z"/>
		<path d="M403.3,269.8h-6.1c-3.4,0-6.1-0.9-7.9-2.8c-1.9-1.9-2.8-4.5-2.8-7.9v-13.9c0-3.4,0.9-6.1,2.8-7.9c1.9-1.9,4.5-2.8,7.9-2.8
			h6.1c3.4,0,6,0.9,7.9,2.8c1.9,1.9,2.9,4.5,2.9,7.9v13.9c0,3.4-1,6-2.9,7.9S406.7,269.8,403.3,269.8z M398.2,263.9h4.2
			c3.3,0,5-1.7,5-5.1v-13.4c0-3.4-1.7-5.1-5-5.1h-4.2c-1.8,0-3,0.4-3.8,1.2s-1.2,2.1-1.2,3.8v13.4c0,1.8,0.4,3,1.2,3.8
			C395.2,263.5,396.5,263.9,398.2,263.9z"/>
	</g>
	<g>
		<path class="st4" d="M190.2,309.8h-1.9c-0.3,0-0.3-0.2-0.3-0.5l4.7-16.4c0.1-0.3,0.3-0.5,0.6-0.5h2.7c0.4,0,0.6,0.2,0.6,0.5
			l4.7,16.4c0.1,0.3,0,0.5-0.3,0.5h-1.9c-0.2,0-0.3,0-0.3-0.1c-0.1-0.1-0.1-0.2-0.1-0.4l-1-3.5h-5.9l-1,3.5
			C190.6,309.6,190.4,309.8,190.2,309.8z M194.6,295l-2.4,8.6h4.9l-2.4-8.6H194.6z"/>
		<path class="st4" d="M210.8,309.8h-2.9c-1.3,0-2.4-0.4-3.1-1.1c-0.7-0.7-1.1-1.8-1.1-3.1v-9c0-1.3,0.4-2.4,1.1-3.1
			c0.7-0.7,1.8-1.1,3.1-1.1h2.9c1.3,0,2.4,0.4,3.1,1.1c0.7,0.7,1.1,1.8,1.1,3.1v1c0,0.3-0.2,0.5-0.5,0.5h-1.7
			c-0.3,0-0.5-0.2-0.5-0.5v-0.9c0-1.3-0.6-2-1.9-2h-2.1c-1.3,0-1.9,0.7-1.9,2v8.8c0,1.3,0.6,2,1.9,2h2.1c1.3,0,1.9-0.7,1.9-2v-2.4
			c0-0.2-0.1-0.3-0.3-0.3h-2.2c-0.3,0-0.5-0.2-0.5-0.5V301c0-0.3,0.2-0.5,0.5-0.5h4.5c0.4,0,0.6,0.2,0.6,0.6v4.5
			c0,1.3-0.4,2.3-1.1,3.1C213.1,309.4,212.1,309.8,210.8,309.8z"/>
		<path class="st4" d="M227.7,309.8h-8.6c-0.3,0-0.5-0.2-0.5-0.5v-16.4c0-0.3,0.2-0.5,0.5-0.5h8.6c0.3,0,0.4,0.2,0.4,0.5v1.4
			c0,0.3-0.1,0.5-0.4,0.5h-6.1c-0.2,0-0.3,0.1-0.3,0.3v4.6c0,0.2,0.1,0.3,0.3,0.3h5.2c0.3,0,0.5,0.2,0.5,0.5v1.4
			c0,0.3-0.2,0.5-0.5,0.5h-5.2c-0.2,0-0.3,0.1-0.3,0.3v4.8c0,0.2,0.1,0.3,0.3,0.3h6.1c0.3,0,0.4,0.2,0.4,0.5v1.4
			C228.2,309.6,228,309.8,227.7,309.8z"/>
		<path class="st4" d="M233.7,309.8H232c-0.3,0-0.5-0.2-0.5-0.5v-16.4c0-0.3,0.2-0.5,0.5-0.5h1.5c0.3,0,0.5,0.1,0.6,0.3l6.5,11.7
			h0.1v-11.6c0-0.3,0.2-0.5,0.5-0.5h1.7c0.3,0,0.5,0.2,0.5,0.5v16.4c0,0.3-0.2,0.5-0.5,0.5h-1.5c-0.3,0-0.5-0.1-0.7-0.4l-6.5-11.6
			h-0.1v11.6C234.2,309.6,234,309.8,233.7,309.8z"/>
		<path class="st4" d="M254.3,309.8h-3.1c-1.3,0-2.4-0.4-3.1-1.1c-0.7-0.7-1.1-1.8-1.1-3.1v-9c0-1.3,0.4-2.4,1.1-3.1
			c0.7-0.7,1.8-1.1,3.1-1.1h3.1c1.3,0,2.3,0.4,3.1,1.1c0.7,0.7,1.1,1.8,1.1,3.1v1.3c0,0.3-0.2,0.5-0.5,0.5h-1.7
			c-0.3,0-0.5-0.2-0.5-0.5v-1.2c0-1.3-0.6-2-1.9-2h-2.3c-1.3,0-1.9,0.7-1.9,2v8.8c0,1.3,0.6,2,1.9,2h2.3c1.3,0,1.9-0.7,1.9-2v-1.2
			c0-0.3,0.2-0.5,0.5-0.5h1.7c0.3,0,0.5,0.2,0.5,0.5v1.3c0,1.3-0.4,2.3-1.1,3.1C256.7,309.4,255.7,309.8,254.3,309.8z"/>
		<path class="st4" d="M269.7,292.4h1.7c0.3,0,0.5,0.1,0.5,0.4v12.7c0,1.3-0.4,2.3-1.1,3.1c-0.7,0.7-1.8,1.1-3.1,1.1H265
			c-1.3,0-2.4-0.4-3.1-1.1c-0.7-0.7-1.1-1.8-1.1-3.1v-2.4c0-0.3,0.2-0.5,0.5-0.5h1.7c0.3,0,0.5,0.2,0.5,0.5v2.3c0,1.3,0.6,2,1.9,2
			h1.9c1.3,0,1.9-0.7,1.9-2v-12.6C269.2,292.6,269.4,292.4,269.7,292.4z"/>
		<path class="st4" d="M276.6,309.8h-1.9c-0.3,0-0.3-0.2-0.3-0.5l4.7-16.4c0.1-0.3,0.3-0.5,0.6-0.5h2.7c0.4,0,0.6,0.2,0.6,0.5
			l4.7,16.4c0.1,0.3,0,0.5-0.3,0.5h-1.9c-0.2,0-0.3,0-0.3-0.1c-0.1-0.1-0.1-0.2-0.1-0.4l-1-3.5h-5.9l-1,3.5
			C277,309.6,276.9,309.8,276.6,309.8z M281.1,295l-2.4,8.6h4.9l-2.4-8.6H281.1z"/>
		<path class="st4" d="M299.6,292.9v16.4c0,0.3-0.2,0.5-0.5,0.5h-1.7c-0.3,0-0.5-0.2-0.5-0.5v-16.4c0-0.3,0.2-0.5,0.5-0.5h1.7
			C299.5,292.4,299.6,292.6,299.6,292.9z"/>
		<path class="st4" d="M305.8,309.8h-1.7c-0.3,0-0.5-0.2-0.5-0.5v-16.4c0-0.3,0.2-0.5,0.5-0.5h1.5c0.3,0,0.5,0.1,0.6,0.3l6.5,11.7
			h0.1v-11.6c0-0.3,0.2-0.5,0.5-0.5h1.7c0.3,0,0.5,0.2,0.5,0.5v16.4c0,0.3-0.2,0.5-0.5,0.5h-1.5c-0.3,0-0.5-0.1-0.7-0.4l-6.5-11.6
			h-0.1v11.6C306.3,309.6,306.1,309.8,305.8,309.8z"/>
		<path class="st4" d="M324.2,309.8h-1.7c-0.3,0-0.5-0.2-0.5-0.5V295c0-0.2-0.1-0.3-0.3-0.3h-3.4c-0.3,0-0.5-0.2-0.5-0.5v-1.4
			c0-0.3,0.2-0.5,0.5-0.5h10c0.3,0,0.5,0.2,0.5,0.5v1.4c0,0.3-0.2,0.5-0.5,0.5h-3.4c-0.2,0-0.3,0.1-0.3,0.3v14.3
			C324.6,309.6,324.5,309.8,324.2,309.8z"/>
		<path class="st4" d="M340.2,309.8h-8.6c-0.3,0-0.5-0.2-0.5-0.5v-16.4c0-0.3,0.2-0.5,0.5-0.5h8.6c0.3,0,0.4,0.2,0.4,0.5v1.4
			c0,0.3-0.1,0.5-0.4,0.5H334c-0.2,0-0.3,0.1-0.3,0.3v4.6c0,0.2,0.1,0.3,0.3,0.3h5.2c0.3,0,0.5,0.2,0.5,0.5v1.4
			c0,0.3-0.2,0.5-0.5,0.5H334c-0.2,0-0.3,0.1-0.3,0.3v4.8c0,0.2,0.1,0.3,0.3,0.3h6.1c0.3,0,0.4,0.2,0.4,0.5v1.4
			C340.6,309.6,340.5,309.8,340.2,309.8z"/>
		<path class="st4" d="M346.2,309.8h-1.7c-0.3,0-0.5-0.2-0.5-0.5v-16.4c0-0.3,0.2-0.5,0.5-0.5h6.3c1.3,0,2.3,0.4,3.1,1.1
			c0.7,0.7,1.1,1.8,1.1,3.1v2.3c0,2.1-0.9,3.4-2.6,3.9v0.1l3,6.3c0.2,0.4,0.1,0.5-0.4,0.5h-1.7c-0.4,0-0.7-0.2-0.8-0.5l-2.9-6.2H347
			c-0.2,0-0.3,0.1-0.3,0.3v5.9C346.7,309.6,346.5,309.8,346.2,309.8z M347,301h3.4c1.3,0,2-0.7,2-2v-2.3c0-1.3-0.7-2-2-2H347
			c-0.2,0-0.3,0.1-0.3,0.3v5.7C346.7,300.9,346.8,301,347,301z"/>
		<path class="st4" d="M359.6,309.8h-1.9c-0.3,0-0.3-0.2-0.3-0.5l4.7-16.4c0.1-0.3,0.3-0.5,0.6-0.5h2.7c0.4,0,0.6,0.2,0.6,0.5
			l4.7,16.4c0.1,0.3,0,0.5-0.3,0.5h-1.9c-0.2,0-0.3,0-0.3-0.1c-0.1-0.1-0.1-0.2-0.2-0.4l-1-3.5h-5.9l-1,3.5
			C360,309.6,359.8,309.8,359.6,309.8z M364,295l-2.4,8.6h4.9l-2.4-8.6H364z"/>
		<path class="st4" d="M375.6,309.8h-1.7c-0.3,0-0.5-0.2-0.5-0.5v-16.4c0-0.3,0.2-0.5,0.5-0.5h1.7c0.3,0,0.5,0.2,0.5,0.5v8.5h0.1
			c0.2-0.5,0.4-0.9,0.7-1.3l5.1-7.2c0.2-0.3,0.5-0.5,0.9-0.5h2c0.4,0,0.4,0.2,0.2,0.5l-5.3,7.1l5.9,9.1c0.2,0.4,0.1,0.5-0.3,0.5
			h-1.5c-0.5,0-0.8-0.2-1-0.5l-4.7-7.3l-2.1,2.5v4.8C376,309.6,375.9,309.8,375.6,309.8z"/>
		<path class="st4" d="M392.9,309.8h-1.7c-0.3,0-0.5-0.2-0.5-0.5V295c0-0.2-0.1-0.3-0.3-0.3h-3.4c-0.3,0-0.5-0.2-0.5-0.5v-1.4
			c0-0.3,0.2-0.5,0.5-0.5h10c0.3,0,0.5,0.2,0.5,0.5v1.4c0,0.3-0.2,0.5-0.5,0.5h-3.4c-0.2,0-0.3,0.1-0.3,0.3v14.3
			C393.4,309.6,393.2,309.8,392.9,309.8z"/>
		<path class="st4" d="M405.6,309.8h-1.7c-0.3,0-0.5-0.2-0.5-0.5v-6l-5-10.4c-0.1-0.1-0.1-0.3,0-0.3c0.1-0.1,0.2-0.1,0.3-0.1h2.2
			c0.2,0,0.4,0.2,0.5,0.5l3.3,7.4h0.2l3.3-7.4c0.1-0.3,0.3-0.5,0.5-0.5h2.2c0.1,0,0.2,0,0.3,0.1s0.1,0.2,0,0.3l-5,10.4v6
			C406.1,309.6,405.9,309.8,405.6,309.8z"/>
		<path class="st4" d="M418.8,309.8H416c-0.3,0-0.5-0.2-0.6-0.5l-3.2-16.4c0-0.3,0.1-0.5,0.5-0.5h2.1c0.3,0,0.5,0.2,0.5,0.5
			l2.2,14.1h0.2l3.2-14.2c0-0.3,0.2-0.4,0.5-0.4h2.3c0.3,0,0.5,0.1,0.5,0.4l3.2,14.2h0.2l2.2-14.1c0-0.3,0.2-0.5,0.5-0.5h2.1
			c0.4,0,0.5,0.2,0.5,0.5l-3.2,16.4c-0.1,0.3-0.2,0.5-0.5,0.5h-2.9c-0.3,0-0.5-0.2-0.5-0.5l-3-13.6h-0.1l-3,13.6
			C419.3,309.6,419.1,309.8,418.8,309.8z"/>
		<path class="st4" d="M437.3,309.8h-1.7c-0.3,0-0.5-0.2-0.5-0.5v-16.4c0-0.3,0.2-0.5,0.5-0.5h1.5c0.3,0,0.5,0.1,0.6,0.3l6.5,11.7
			h0.1v-11.6c0-0.3,0.2-0.5,0.5-0.5h1.7c0.3,0,0.5,0.2,0.5,0.5v16.4c0,0.3-0.2,0.5-0.5,0.5h-1.5c-0.3,0-0.5-0.1-0.7-0.4l-6.5-11.6
			h-0.1v11.6C437.8,309.6,437.6,309.8,437.3,309.8z"/>
		<path class="st4" d="M451.9,309.8h-1.9c-0.3,0-0.3-0.2-0.3-0.5l4.7-16.4c0.1-0.3,0.3-0.5,0.6-0.5h2.7c0.4,0,0.6,0.2,0.6,0.5
			l4.7,16.4c0.1,0.3,0,0.5-0.3,0.5h-1.9c-0.2,0-0.3,0-0.3-0.1c-0.1-0.1-0.1-0.2-0.1-0.4l-1-3.5h-5.9l-1,3.5
			C452.3,309.6,452.1,309.8,451.9,309.8z M456.3,295l-2.4,8.6h4.9l-2.4-8.6H456.3z"/>
	</g>
	<g>
		<path d="M231.3,214.7h-7.4c-3.4,0-6.1-0.9-7.9-2.8c-1.9-1.9-2.8-4.5-2.8-7.9v-23.1c0-3.4,0.9-6.1,2.8-7.9c1.9-1.9,4.5-2.8,7.9-2.8
			h7.4c3.4,0,6.1,0.9,7.9,2.8c1.9,1.9,2.8,4.5,2.8,7.9v2.5c0,0.8-0.4,1.2-1.2,1.2h-4.4c-0.8,0-1.2-0.4-1.2-1.2v-2.2
			c0-3.4-1.7-5.1-5-5.1h-5.5c-3.3,0-5,1.7-5,5.1v22.5c0,3.4,1.7,5.1,5,5.1h5.5c3.3,0,5-1.7,5-5.1v-6.2c0-0.5-0.3-0.7-0.8-0.7H229
			c-0.8,0-1.2-0.4-1.2-1.2V192c0-0.8,0.4-1.2,1.2-1.2h11.6c1,0,1.5,0.5,1.5,1.5v11.6c0,3.4-0.9,6-2.8,7.9
			C237.4,213.7,234.7,214.7,231.3,214.7z"/>
		<path d="M263.6,214.7h-2.7c-3.4,0-6.1-0.9-7.9-2.8c-1.9-1.9-2.8-4.5-2.8-7.9v-13.9c0-3.4,0.9-6.1,2.8-7.9c1.9-1.9,4.5-2.8,7.9-2.8
			h15.5c0.8,0,1.2,0.4,1.2,1.2v33c0,0.8-0.4,1.2-1.2,1.2H272c-0.8,0-1.2-0.4-1.2-1.2V211h-0.3C269.5,213.5,267.1,214.7,263.6,214.7z
			 M270.9,202.9v-17c0-0.5-0.3-0.7-0.8-0.7h-8.2c-3.3,0-5,1.7-5,5.1v13.3c0,3.4,1.7,5.1,5,5.1h3.3
			C269,208.8,270.9,206.8,270.9,202.9z"/>
		<path d="M291.9,214.7h-4.4c-0.8,0-1.2-0.4-1.2-1.2v-33c0-0.8,0.4-1.2,1.2-1.2h4.4c0.8,0,1.2,0.4,1.2,1.2v2.5h0.3
			c1.3-2.4,3.8-3.7,7.3-3.7h2.3c4,0,6.9,1.5,8.6,4.6c0.7-1.5,1.9-2.6,3.4-3.4c1.5-0.8,3.2-1.2,4.9-1.2h2.2c3.4,0,5.9,0.9,7.7,2.8
			c1.8,1.9,2.7,4.5,2.7,7.9v23.4c0,0.8-0.4,1.2-1.2,1.2h-4.4c-0.8,0-1.2-0.4-1.2-1.2v-23.1c0-3.4-1.7-5.1-5-5.1h-2
			c-3.8,0-5.8,2-5.8,6v22.2c0,0.8-0.4,1.2-1.2,1.2h-4.4c-0.8,0-1.2-0.4-1.2-1.2v-23.1c0-3.4-1.7-5.1-5-5.1h-2.4
			c-3.8,0-5.7,2-5.7,5.9v22.4C293,214.3,292.6,214.7,291.9,214.7z"/>
		<path d="M340.9,213.5v-46.4c0-0.8,0.4-1.2,1.2-1.2h4.4c0.8,0,1.2,0.4,1.2,1.2v15.7h0.3c1.2-2.5,3.5-3.7,7-3.7h3
			c3.4,0,6.1,0.9,8,2.8c1.9,1.9,2.8,4.5,2.8,7.9v14.2c0,3.4-0.9,6-2.8,7.9s-4.6,2.8-8,2.8H342C341.3,214.7,340.9,214.3,340.9,213.5z
			 M348.3,208.8h8.6c3.3,0,5-1.7,5-5.1v-13.6c0-3.4-1.7-5.1-5-5.1h-3.7c-3.8,0-5.7,1.9-5.7,5.8V208
			C347.6,208.5,347.8,208.8,348.3,208.8z"/>
		<path class="st4" d="M424.6,214.7h-4.9c-0.9,0-1.4-0.4-1.4-1.3v-40.9c0-0.5-0.3-0.8-0.8-0.8h-9.7c-0.9,0-1.4-0.4-1.4-1.3v-3.9
			c0-0.9,0.5-1.3,1.4-1.3h28.6c0.9,0,1.4,0.4,1.4,1.3v3.9c0,0.9-0.5,1.3-1.4,1.3h-9.7c-0.6,0-0.8,0.3-0.8,0.8v40.9
			C425.9,214.3,425.4,214.7,424.6,214.7z"/>
		<g id="XMLID_55_">
			<path id="XMLID_71_" class="st4" d="M398.6,174c0-4.9-4.2-9.1-9.1-9.1c-4.9,0-9.1,4.2-9.1,9.1c0,2.6,1.3,5.2,2.9,6.8h12.1
				C397.6,179.2,398.6,176.6,398.6,174z"/>
			<path id="XMLID_70_" class="st4" d="M396,186h-13c-1,0-2-0.7-2-2v-0.7c0-1,0.7-2,2-2h13c1,0,2,0.7,2,2v0.7
				C398,185.4,397,186,396,186z"/>
			<path id="XMLID_68_" class="st4" d="M389.5,197.4c-1.3,0-2.3,0.3-3.6,0.7h6.8C392.1,197.4,390.8,197.4,389.5,197.4z"/>
			<path id="XMLID_67_" class="st4" d="M393.1,198.1h-6.8c-2.9,1.3-4.9,4.2-4.9,7.5v0.3H398v-0.3C398,202.3,396,199.4,393.1,198.1z"
				/>
			<rect id="XMLID_65_" x="384.6" y="187.3" class="st4" width="10.1" height="13"/>
			<path id="XMLID_64_" class="st4" d="M399.9,211.1h-20.5c-0.7,0-1-0.3-1-1v-0.3c0-0.7,0.3-1,1-1h20.5c0.7,0,1,0.3,1,1v0.7
				C400.6,210.8,400.2,211.1,399.9,211.1z"/>
			<polygon id="XMLID_62_" class="st4" points="378.7,209.2 381.3,207.5 389.5,207.5 389.5,209.2 			"/>
			<polygon id="XMLID_61_" class="st4" points="400.6,209.2 398,207.5 389.5,207.5 389.5,209.2 			"/>
			<path id="XMLID_59_" class="st4" d="M400.2,212.4h-20.9c-1.3,0-2.3,1-2.6,2.3h26.1C402.5,213.4,401.5,212.4,400.2,212.4z"/>
			<rect id="XMLID_57_" x="385.2" y="207.5" class="st4" width="9.1" height="2.9"/>
		</g>
	</g>
</g>
<path class="st4" d="M-3.9,260.1H-17c-1.5,0-2.7-1.2-2.7-2.7v-13.1c0-1.5,1.2-2.7,2.7-2.7h13.1c1.5,0,2.7,1.2,2.7,2.7v13.1
	C-1.1,258.8-2.3,260.1-3.9,260.1z"/>
<g>
	<g>
		<path class="st0" d="M-5.9,257.2h-1.3c-0.2,0-0.4-0.1-0.4-0.3v-10.6c0-0.1-0.1-0.2-0.2-0.2h-2.5c-0.2,0-0.4-0.1-0.4-0.3v-1
			c0-0.2,0.1-0.3,0.4-0.3h7.4c0.2,0,0.4,0.1,0.4,0.3v1c0,0.2-0.1,0.3-0.4,0.3h-2.5c-0.1,0-0.2,0.1-0.2,0.2v10.6
			C-5.6,257.1-5.7,257.2-5.9,257.2z"/>
	</g>
	<g id="XMLID_38_">
		<path id="XMLID_53_" class="st0" d="M-12.7,246.7c0-1.3-1.1-2.4-2.4-2.4s-2.4,1.1-2.4,2.4c0,0.7,0.3,1.4,0.8,1.8h3.1
			C-12.9,248-12.7,247.3-12.7,246.7z"/>
		<path id="XMLID_52_" class="st0" d="M-13.3,249.8h-3.4c-0.3,0-0.5-0.2-0.5-0.5v-0.2c0-0.3,0.2-0.5,0.5-0.5h3.4
			c0.3,0,0.5,0.2,0.5,0.5v0.2C-12.8,249.6-13.1,249.8-13.3,249.8z"/>
		<path id="XMLID_50_" class="st0" d="M-15,252.8c-0.3,0-0.6,0.1-0.9,0.2h1.8C-14.4,252.8-14.7,252.8-15,252.8z"/>
		<path id="XMLID_48_" class="st0" d="M-14.1,252.9h-1.8c-0.8,0.3-1.3,1.1-1.3,1.9v0.1h4.3v-0.1C-12.8,254-13.3,253.3-14.1,252.9z"
			/>
		<rect id="XMLID_47_" x="-16.3" y="250.1" class="st0" width="2.6" height="3.4"/>
		<path id="XMLID_45_" class="st0" d="M-12.3,256.3h-5.3c-0.2,0-0.3-0.1-0.3-0.3V256c0-0.2,0.1-0.3,0.3-0.3h5.3
			c0.2,0,0.3,0.1,0.3,0.3v0.2C-12.2,256.2-12.2,256.3-12.3,256.3z"/>
		<polygon id="XMLID_42_" class="st0" points="-17.8,255.8 -17.2,255.4 -15,255.4 -15,255.8 		"/>
		<polygon id="XMLID_41_" class="st0" points="-12.2,255.8 -12.8,255.4 -15,255.4 -15,255.8 		"/>
		<path id="XMLID_40_" class="st0" d="M-12.2,256.7h-5.4c-0.3,0-0.6,0.3-0.7,0.6h6.8C-11.7,256.9-11.9,256.7-12.2,256.7z"/>
		<rect id="XMLID_39_" x="-16.1" y="255.4" class="st0" width="2.4" height="0.8"/>
	</g>
</g>
<g>
	<text transform="matrix(1 0 0 1 -182.9665 224.8483)"><tspan x="0" y="0" style="font-family:'Rajdhani-SemiBold'; font-size:18px;">Gamb  </tspan><tspan x="51" y="0" class="st5" style="font-family:'Rajdhani-SemiBold'; font-size:20px;">T</tspan><tspan x="59.7" y="0" style="font-family:'Rajdhani-SemiBold'; font-size:18px;">  Studio</tspan></text>
	<text transform="matrix(1 0 0 1 -139.4215 232.4483)" class="st5" style="font-family:'Rajdhani-SemiBold'; font-size:7px;">AGENCJA INTERAKTYWNA</text>
	<g id="XMLID_13_">
		<path id="XMLID_37_" class="st5" d="M-133.7,214.3c0-1.3-1.1-2.4-2.4-2.4c-1.3,0-2.4,1.1-2.4,2.4c0,0.7,0.3,1.4,0.8,1.8h3.1
			C-133.9,215.6-133.7,214.9-133.7,214.3z"/>
		<path id="XMLID_36_" class="st5" d="M-134.4,217.4h-3.4c-0.3,0-0.5-0.2-0.5-0.5v-0.2c0-0.3,0.2-0.5,0.5-0.5h3.4
			c0.3,0,0.5,0.2,0.5,0.5v0.2C-133.9,217.2-134.1,217.4-134.4,217.4z"/>
		<path id="XMLID_35_" class="st5" d="M-136.1,220.4c-0.3,0-0.6,0.1-0.9,0.2h1.8C-135.4,220.4-135.7,220.4-136.1,220.4z"/>
		<path id="XMLID_34_" class="st5" d="M-135.1,220.5h-1.8c-0.8,0.3-1.3,1.1-1.3,1.9v0.1h4.3v-0.1
			C-133.9,221.6-134.4,220.9-135.1,220.5z"/>
		<rect id="XMLID_33_" x="-137.3" y="217.7" class="st5" width="2.6" height="3.4"/>
		<path id="XMLID_32_" class="st5" d="M-133.3,223.9h-5.3c-0.2,0-0.3-0.1-0.3-0.3v-0.1c0-0.2,0.1-0.3,0.3-0.3h5.3
			c0.2,0,0.3,0.1,0.3,0.3v0.2C-133.2,223.8-133.3,223.9-133.3,223.9z"/>
		<polygon id="XMLID_29_" class="st5" points="-138.8,223.4 -138.2,223 -136.1,223 -136.1,223.4 		"/>
		<polygon id="XMLID_16_" class="st5" points="-133.2,223.4 -133.9,223 -136.1,223 -136.1,223.4 		"/>
		<path id="XMLID_15_" class="st5" d="M-133.3,224.3h-5.4c-0.3,0-0.6,0.3-0.7,0.6h6.8C-132.7,224.5-132.9,224.3-133.3,224.3z"/>
		<rect id="XMLID_14_" x="-137.2" y="223" class="st5" width="2.4" height="0.8"/>
	</g>
</g>
</svg>
