<?xml version="1.0" encoding="utf-8"?>
<!-- Generator: Adobe Illustrator 19.0.0, SVG Export Plug-In . SVG Version: 6.00 Build 0)  -->
<svg version="1.1" id="Warstwa_1" xmlns="http://www.w3.org/2000/svg" xmlns:xlink="http://www.w3.org/1999/xlink" x="0px" y="0px"
	 viewBox="0 0 997.7 266" style="enable-background:new 0 0 997.7 266;" xml:space="preserve">
<style type="text/css">
	.st0{fill:#FFFFFF;}
	.st1{clip-path:url(#XMLID_150_);fill:#FFFFFF;}
	.st2{fill:#FFFFFF;stroke:#FFFFFF;stroke-width:14;stroke-miterlimit:10;}
	.st3{fill:#FFFFFF;stroke:#FFFFFF;stroke-width:13;stroke-miterlimit:10;}
	.st4{fill:#FFFFFF;stroke:#FFFFFF;stroke-width:10;stroke-miterlimit:10;}
</style>
<g id="XMLID_99_">
	<g id="XMLID_2_">
		<g id="XMLID_20_">
			<path id="XMLID_81_" class="st0" d="M55.9,176.1c0,1.7-1.4,3-3,3H37.5c-1.7,0-3-1.3-3-3V46.9c0-1.7,1.3-3,3-3h15.4
				c1.6,0,3,1.3,3,3V176.1z"/>
		</g>
		<g id="XMLID_17_">
			<path id="XMLID_79_" class="st0" d="M58.9,235.7c0,1.7-1.3,3-3,3H34.5c-1.6,0-3-1.3-3-3v-49.1c0-1.7,1.4-3,3-3h21.4
				c1.7,0,3,1.3,3,3V235.7z"/>
		</g>
		<rect id="XMLID_16_" y="234.2" class="st0" width="90.4" height="11"/>
		<g id="XMLID_13_">
			<defs>
				<rect id="XMLID_14_" x="-19.1" y="214.4" width="124.9" height="30.8"/>
			</defs>
			<use xlink:href="#XMLID_14_"  style="overflow:visible;fill:#FFFFFF;"/>
			<clipPath id="XMLID_150_">
				<use xlink:href="#XMLID_14_"  style="overflow:visible;"/>
			</clipPath>
			<path id="XMLID_15_" class="st1" d="M72.4,218.7H18c-9.9,0-18,8.1-18,18v0c0,9.9,8.1,18,18,18h54.4c9.9,0,18-8.1,18-18v0
				C90.4,226.7,82.3,218.7,72.4,218.7z"/>
		</g>
		<g id="XMLID_11_">
			<path id="XMLID_98_" class="st0" d="M156.7,75c0-13,1.6-22.4,4.7-28c3.2-5.7,8.3-8.5,15.5-8.5c7.1,0,12.3,2.8,15.4,8.4
				c3.1,5.6,4.7,15,4.7,28.1c0,13-1.6,22.3-4.7,28c-3.1,5.6-8.3,8.4-15.4,8.4c-7.2,0-12.3-2.8-15.5-8.4
				C158.2,97.4,156.7,88.1,156.7,75z M166.3,74.9c0,10.1,0.8,17.2,2.5,21.3c1.6,4.1,4.4,6.2,8.2,6.2c3.8,0,6.5-2,8-5.9
				c1.6-3.9,2.3-11.1,2.3-21.6c0-10.2-0.8-17.4-2.4-21.4c-1.6-4-4.3-6-8.1-6c-3.8,0-6.5,2-8.1,6.1C167.1,57.6,166.3,64.7,166.3,74.9
				z"/>
			<path id="XMLID_103_" class="st0" d="M207.7,110.5V39.5h12.7c9.7,0,16.5,2.7,20.4,8c3.9,5.3,5.9,14.5,5.9,27.5
				c0,13.1-2,22.3-5.9,27.6c-3.9,5.3-10.8,8-20.4,8H207.7z M217.4,101.4h5c5.4,0,9.2-1.9,11.4-5.8c2.2-3.9,3.3-10.8,3.3-20.7
				c0-9.9-1.1-16.7-3.3-20.6c-2.2-3.9-6-5.8-11.4-5.8h-5V101.4z"/>
			<path id="XMLID_106_" class="st0" d="M256.6,110.5V39.5h9.5v33.7L283,39.5h9.9L276,73.2l16.9,37.3h-10.3L266.2,74v36.5H256.6z"/>
			<path id="XMLID_108_" class="st0" d="M299.9,91.6V39.5h9.4v52.9c0,3.4,0.8,5.9,2.3,7.5c1.5,1.6,3.9,2.4,7,2.4s5.5-0.8,7-2.4
				c1.5-1.6,2.3-4.1,2.3-7.5V39.5h9.5v52.2c0,6.9-1.5,11.9-4.5,15.1c-3,3.2-7.8,4.7-14.2,4.7s-11.2-1.6-14.2-4.7
				C301.4,103.5,299.9,98.5,299.9,91.6z"/>
			<path id="XMLID_110_" class="st0" d="M359.2,75.8v34.7h-9.6V39.5h11.6c7.7,0,13.2,1.4,16.4,4.3c3.3,2.9,4.9,7.6,4.9,14.3
				c0,5.3-1.1,9.4-3.4,12.3c-2.2,2.9-5.6,4.7-10,5.2l16.9,35h-10.3l-16.3-34.7H359.2z M359.2,70.4h3c3.9,0,6.6-0.9,8.3-2.7
				c1.6-1.8,2.4-5,2.4-9.6c0-3.8-0.8-6.5-2.3-8c-1.5-1.5-4.4-2.2-8.6-2.2h-2.7V70.4z"/>
			<path id="XMLID_113_" class="st0" d="M387.5,110.5l23.1-62.6h-19.7v-8.5h32.7l-22.8,62.2h20.8v8.9H387.5z"/>
			<path id="XMLID_115_" class="st0" d="M425.6,110.5l16.7-71.1h9l16.7,71.1h-9.7l-3.4-14h-16.2l-3.3,14H425.6z M446.7,57.8
				l-6.4,30.8h12.8L446.7,57.8z"/>
			<path id="XMLID_118_" class="st0" d="M504.5,108.9c-1.6,0.8-3.2,1.5-4.8,1.9c-1.6,0.4-3.3,0.6-5.2,0.6c-7.3,0-12.7-3-16.3-8.9
				s-5.4-14.9-5.4-26.9c0-12.2,1.9-21.4,5.8-27.7c3.8-6.3,9.5-9.4,17.1-9.4c1.7,0,3.2,0.2,4.7,0.5c1.5,0.3,2.9,0.8,4.2,1.4v9.1
				c-1.4-0.7-2.7-1.2-3.9-1.5c-1.3-0.3-2.4-0.5-3.5-0.5c-5.1,0-8.8,2.2-11.2,6.7c-2.3,4.5-3.5,11.6-3.5,21.3
				c0,9.1,1.1,15.8,3.3,20.2c2.2,4.4,5.7,6.5,10.3,6.5c1.3,0,2.7-0.2,4-0.7s2.8-1.1,4.4-2V108.9z"/>
			<path id="XMLID_120_" class="st0" d="M507.5,110.5l23.1-62.6h-19.7v-8.5h32.7l-22.8,62.2h20.8v8.9H507.5z"/>
			<path id="XMLID_122_" class="st0" d="M550.9,110.5V39.5h28.4V48h-18.8v21.1h17.2v8.5h-17.2v24.1h18.8v8.9H550.9z"/>
			<path id="XMLID_124_" class="st0" d="M638.1,108.9c-1.6,0.8-3.2,1.5-4.8,1.9c-1.6,0.4-3.3,0.6-5.2,0.6c-7.3,0-12.7-3-16.3-8.9
				s-5.4-14.9-5.4-26.9c0-12.2,1.9-21.4,5.8-27.7c3.8-6.3,9.5-9.4,17.1-9.4c1.7,0,3.2,0.2,4.7,0.5c1.5,0.3,2.9,0.8,4.2,1.4v9.1
				c-1.4-0.7-2.7-1.2-3.9-1.5c-1.3-0.3-2.4-0.5-3.5-0.5c-5.1,0-8.8,2.2-11.2,6.7c-2.3,4.5-3.5,11.6-3.5,21.3
				c0,9.1,1.1,15.8,3.3,20.2c2.2,4.4,5.7,6.5,10.3,6.5c1.3,0,2.7-0.2,4-0.7s2.8-1.1,4.4-2V108.9z"/>
			<path id="XMLID_126_" class="st0" d="M646.4,110.5V39.5h28.4V48H656v21.1h17.2v8.5H656v24.1h18.8v8.9H646.4z"/>
			<path id="XMLID_128_" class="st0" d="M684.9,110.5V39.5h8.9l18.8,49.4V39.5h9.1v71.1h-9l-18.7-49.8v49.8H684.9z"/>
			<path id="XMLID_130_" class="st0" d="M742.1,110.5V48.3H729v-8.9h36v8.9h-13.2v62.2H742.1z"/>
			<path id="XMLID_132_" class="st0" d="M781.9,75.8v34.7h-9.6V39.5h11.6c7.7,0,13.2,1.4,16.4,4.3c3.3,2.9,4.9,7.6,4.9,14.3
				c0,5.3-1.1,9.4-3.4,12.3c-2.2,2.9-5.6,4.7-10,5.2l16.9,35h-10.3l-16.3-34.7H781.9z M781.9,70.4h3c3.9,0,6.6-0.9,8.3-2.7
				c1.6-1.8,2.4-5,2.4-9.6c0-3.8-0.8-6.5-2.3-8c-1.5-1.5-4.4-2.2-8.6-2.2h-2.7V70.4z"/>
			<path id="XMLID_135_" class="st0" d="M810.1,110.5l16.7-71.1h9l16.7,71.1h-9.7l-3.4-14h-16.2l-3.3,14H810.1z M831.3,57.8
				l-6.4,30.8h12.8L831.3,57.8z"/>
			<path id="XMLID_138_" class="st0" d="M859.6,110.5V39.5h9.6v62.2h20.6v8.9H859.6z"/>
			<path id="XMLID_140_" class="st0" d="M897.1,110.5V39.5h8.9l18.8,49.4V39.5h9.1v71.1h-9l-18.7-49.8v49.8H897.1z"/>
			<path id="XMLID_142_" class="st0" d="M946.3,110.5V39.5h28.4V48h-18.8v21.1h17.2v8.5h-17.2v24.1h18.8v8.9H946.3z"/>
		</g>
		<g id="XMLID_3_">
			<path id="XMLID_24_" class="st0" d="M162.9,247.7v-91.8h51.2v12.7h-36.3v22.9h36.3v13.1h-36.3v43.1H162.9z"/>
			<path id="XMLID_28_" class="st0" d="M244.3,206.6v41.1h-14v-91.8h20.8c6.1,0,10.8,0.4,14.2,1.2c3.4,0.8,6.2,2.1,8.6,4
				c2.8,2.2,5,5.1,6.6,8.6c1.5,3.5,2.3,7.4,2.3,11.5c0,7.4-1.8,13.1-5.3,17.3c-3.6,4.2-8.8,6.7-15.7,7.5l31.6,41.8h-16.9L246,206.6
				H244.3z M245.2,195h2.7c7.9,0,13.1-0.9,15.7-2.8c2.6-1.8,3.9-5.1,3.9-9.8c0-5.1-1.4-8.6-4.2-10.7c-2.8-2.1-7.9-3.1-15.5-3.1h-2.7
				V195z"/>
			<path id="XMLID_75_" class="st0" d="M362.8,247.7L352.4,224h-36.4l-10.7,23.6h-15.7l44.5-95.4l44.4,95.4H362.8z M321.6,211.6
				h25.6l-9.4-20.9c-0.5-1.3-1.1-2.9-1.7-4.6c-0.6-1.7-1.2-3.7-1.8-5.8c-0.5,2-1,3.9-1.6,5.6s-1.1,3.3-1.7,4.8L321.6,211.6z"/>
			<path id="XMLID_82_" class="st0" d="M458.7,178.2c-4.2-3.6-8.7-6.3-13.4-8.1c-4.7-1.8-9.6-2.7-14.8-2.7c-10,0-18.2,3.2-24.5,9.7
				c-6.3,6.4-9.4,14.8-9.4,25c0,9.9,3.1,18.1,9.2,24.5c6.1,6.4,13.8,9.7,23.2,9.7c5.4,0,10.6-1,15.5-2.9c4.9-1.9,9.6-4.8,14.1-8.7
				v16.9c-4,2.9-8.4,5-13.1,6.5c-4.7,1.4-9.8,2.1-15.4,2.1c-7,0-13.5-1.2-19.5-3.4c-6-2.3-11.2-5.7-15.7-10.2
				c-4.5-4.4-7.9-9.6-10.3-15.5c-2.4-6-3.6-12.3-3.6-19s1.2-13.1,3.6-19c2.4-5.9,5.9-11.1,10.4-15.6c4.6-4.5,9.8-7.9,15.7-10.3
				c5.9-2.3,12.3-3.5,19.1-3.5c5.4,0,10.5,0.8,15.4,2.4c4.9,1.6,9.6,3.9,14.2,7.1L458.7,178.2z"/>
			<path id="XMLID_84_" class="st0" d="M477.1,247.7v-91.8h14.9v38l33-38h18.2l-36.4,40.8l40.7,51h-19.2l-36.3-46.9v46.9H477.1z"/>
			<path id="XMLID_86_" class="st0" d="M646.3,202c0,6.5-1.2,12.7-3.7,18.5s-6,11-10.7,15.5c-4.7,4.6-10.1,8-16,10.5
				c-5.9,2.4-12.2,3.6-18.7,3.6c-6.6,0-12.9-1.2-18.9-3.7c-6-2.4-11.3-5.9-15.9-10.4c-4.7-4.6-8.2-9.7-10.7-15.5
				c-2.4-5.8-3.6-12-3.6-18.6c0-6.6,1.2-12.7,3.6-18.6c2.4-5.8,6-11,10.7-15.6c4.7-4.6,10-8,15.9-10.4c5.9-2.4,12.2-3.6,18.9-3.6
				c6.6,0,12.9,1.2,18.8,3.6c5.9,2.4,11.2,5.9,15.9,10.4c4.7,4.6,8.2,9.9,10.7,15.7S646.3,195.5,646.3,202z M630.8,202
				c0-4.6-0.8-9-2.5-13.2c-1.7-4.2-4.1-7.9-7.3-11.2c-3.1-3.2-6.7-5.7-10.8-7.4s-8.4-2.6-12.9-2.6c-4.5,0-8.8,0.9-12.9,2.6
				c-4.1,1.7-7.7,4.2-10.9,7.5c-3.2,3.2-5.6,6.9-7.3,11.1c-1.7,4.2-2.5,8.6-2.5,13.3c0,4.6,0.8,9,2.5,13.2c1.7,4.1,4.1,7.8,7.3,11.1
				c3.2,3.3,6.8,5.7,10.8,7.5c4.1,1.7,8.4,2.6,12.9,2.6c4.5,0,8.7-0.9,12.8-2.6c4-1.7,7.7-4.2,10.9-7.5c3.2-3.3,5.6-7,7.3-11.1
				C629.9,211,630.8,206.6,630.8,202z"/>
			<path id="XMLID_89_" class="st0" d="M652.5,155.9h14.7l17.4,46.3c1.1,3.1,2.1,5.7,2.9,8c0.8,2.3,1.5,4.5,2,6.5
				c1.5-4.8,3-9.6,4.6-14.2c0.2-0.6,0.4-1,0.4-1.2l18.4-49l19.4,50c0.9,2.4,1.8,4.8,2.6,7.3c0.8,2.4,1.6,4.9,2.3,7.3
				c0.4-1.9,1-4,1.7-6.2c0.7-2.3,1.6-4.9,2.8-8l17.2-46.7h14.9l-35.5,95.4l-20.9-52.4c-0.9-2.3-1.8-4.6-2.5-6.7
				c-0.8-2.2-1.4-4.2-2-6.1c-0.7,2.5-1.4,4.8-2.1,6.9c-0.7,2.2-1.4,4.2-2.2,6.2l-20.6,52.1L652.5,155.9z"/>
			<path id="XMLID_91_" class="st0" d="M784.2,247.7v-91.8h14.9v91.8H784.2z"/>
			<path id="XMLID_93_" class="st0" d="M881.2,247.7L870.8,224h-36.4l-10.7,23.6h-15.7l44.5-95.4l44.4,95.4H881.2z M840,211.6h25.6
				l-9.4-20.9c-0.5-1.3-1.1-2.9-1.7-4.6c-0.6-1.7-1.2-3.7-1.8-5.8c-0.5,2-1,3.9-1.6,5.6s-1.1,3.3-1.7,4.8L840,211.6z"/>
			<path id="XMLID_96_" class="st0" d="M905.6,247.7v-91.8h14.9v38l33-38h18.2l-36.4,40.8l40.7,51h-19.2l-36.3-46.9v46.9H905.6z"/>
		</g>
		<g id="XMLID_100_">
			<g id="XMLID_22_">
				<path id="XMLID_7_" class="st2" d="M46.2,43.9c0-19.9,16.1-36,36-36"/>
				<path id="XMLID_6_" class="st2" d="M117.3,43.9c0-19.9-16.1-36-36-36"/>
				<path id="XMLID_8_" class="st2" d="M117.3,96c0,19.9,16.1,36,36,36"/>
				<line id="XMLID_9_" class="st2" x1="117.3" y1="96" x2="117.3" y2="43.9"/>
			</g>
			<line id="XMLID_25_" class="st3" x1="153.3" y1="132" x2="997.7" y2="132"/>
		</g>
	</g>
	<path id="XMLID_44_" class="st4" d="M369.7,245.4c0,7.4,6,13.4,13.4,13.4"/>
</g>
<g id="XMLID_23_">
</g>
<g id="XMLID_144_">
</g>
<g id="XMLID_145_">
</g>
<g id="XMLID_146_">
</g>
<g id="XMLID_147_">
</g>
<g id="XMLID_148_">
</g>
</svg>
