<?xml version="1.0" encoding="utf-8"?>
<!-- Generator: Adobe Illustrator 19.0.0, SVG Export Plug-In . SVG Version: 6.00 Build 0)  -->
<svg version="1.1" id="Warstwa_1" xmlns="http://www.w3.org/2000/svg" xmlns:xlink="http://www.w3.org/1999/xlink" x="0px" y="0px"
	 viewBox="0 0 100 100" style="enable-background:new 0 0 100 100;" xml:space="preserve">
<style type="text/css">
	.st0{fill:#010101;}
	.st1{fill:#0961AA;}
	.st2{fill:#FFFFFF;}
	.st3{fill:#0A62AB;}
	.st4{fill:#010101;stroke:#000000;stroke-miterlimit:10;}
</style>
<g id="XMLID_29_">
	<g id="XMLID_30_">
		<g id="XMLID_53_">
			<path id="XMLID_54_" class="st0" d="M92.5,85.9H79.1c-0.5,0-0.8-0.4-0.8-0.8V17c0-0.5,0.4-0.8,0.8-0.8h13.4
				c0.5,0,0.8,0.4,0.8,0.8v68.1C93.3,85.5,92.9,85.9,92.5,85.9z M79.9,84.2h11.8V17.8H79.9V84.2z"/>
		</g>
		<g id="XMLID_49_">
			<path id="XMLID_50_" class="st0" d="M74.6,85.9H61.2c-0.5,0-0.8-0.4-0.8-0.8V25.4c0-0.5,0.4-0.8,0.8-0.8h13.4
				c0.5,0,0.8,0.4,0.8,0.8v59.6C75.4,85.5,75,85.9,74.6,85.9z M62,84.2h11.8v-58H62V84.2z"/>
		</g>
		<g id="XMLID_45_">
			<path id="XMLID_46_" class="st0" d="M56.7,85.9H43.3c-0.5,0-0.8-0.4-0.8-0.8V33.6c0-0.5,0.4-0.8,0.8-0.8h13.4
				c0.5,0,0.8,0.4,0.8,0.8v51.4C57.5,85.5,57.2,85.9,56.7,85.9z M44.1,84.2h11.8V34.5H44.1V84.2z"/>
		</g>
		<g id="XMLID_41_">
			<path id="XMLID_42_" class="st0" d="M38.8,85.9H25.4c-0.5,0-0.8-0.4-0.8-0.8v-40c0-0.5,0.4-0.8,0.8-0.8h13.4
				c0.5,0,0.8,0.4,0.8,0.8v40C39.6,85.5,39.3,85.9,38.8,85.9z M26.2,84.2H38V45.9H26.2V84.2z"/>
		</g>
		<g id="XMLID_37_">
			<path id="XMLID_38_" class="st0" d="M20.9,85.9H7.5c-0.5,0-0.8-0.4-0.8-0.8V57c0-0.5,0.4-0.8,0.8-0.8h13.4c0.5,0,0.8,0.4,0.8,0.8
				v28.1C21.8,85.5,21.4,85.9,20.9,85.9z M8.3,84.2h11.8V57.8H8.3V84.2z"/>
		</g>
		<g id="XMLID_35_">
			<path id="XMLID_36_" class="st0" d="M99.2,90.1H0.8c-0.5,0-0.8-0.4-0.8-0.8c0-0.5,0.4-0.8,0.8-0.8h98.4c0.5,0,0.8,0.4,0.8,0.8
				C100,89.7,99.6,90.1,99.2,90.1z"/>
		</g>
		<g id="XMLID_33_">
			<path id="XMLID_34_" class="st0" d="M4.8,47c-0.3,0-0.7-0.2-0.8-0.5c-0.2-0.4,0.1-0.9,0.5-1.1C4.9,45.3,48.8,29.3,68,6.9
				c0.3-0.3,0.8-0.4,1.2-0.1c0.3,0.3,0.4,0.8,0.1,1.2C49.7,30.7,5.5,46.8,5.1,47C5,47,4.9,47,4.8,47z"/>
		</g>
		<g id="XMLID_31_">
			<path id="XMLID_32_" class="st0" d="M68.4,18.2C68.4,18.2,68.4,18.2,68.4,18.2c-0.5,0-0.8-0.4-0.8-0.8l0-8.9l-8.4,0c0,0,0,0,0,0
				c-0.5,0-0.8-0.4-0.8-0.8c0-0.5,0.4-0.8,0.8-0.8l9.2,0c0.2,0,0.4,0.1,0.6,0.2c0.2,0.2,0.2,0.4,0.2,0.6l0,9.7
				C69.2,17.8,68.9,18.2,68.4,18.2z"/>
		</g>
	</g>
</g>
<g id="XMLID_24_">
	<polygon id="XMLID_1_" class="st1" points="31.9,58.6 30.6,55.2 24.1,52.7 16.5,53.2 11.8,58.6 13.3,63.2 19.2,66.5 25.7,68.6 
		27.2,70.8 26,72.9 22.8,73.7 18.2,72.2 17.2,70.1 14.6,68.2 12.6,69 12.3,71.9 14.4,75.5 20.3,77.7 28.2,76.8 31.9,73.9 33.1,68.6 
		30.7,64.8 26.3,63.1 22.5,62.1 20.4,61 18.4,59.7 18.4,57.2 20.6,56.6 23.3,56.3 25.4,58.1 28.1,60.5 30.5,60.4 	"/>
	<polygon id="XMLID_21_" class="st1" points="42.9,66.2 58.9,65.8 60.3,63.5 59.3,58.2 55.2,54 49.1,52.1 42.3,54.1 38.7,57.2 
		37.5,61.2 37.4,67.5 38,71.3 42,75.8 45,76.7 50.6,77.2 56.8,75.9 59.6,72.4 59.3,69.3 57,68.8 52.3,72.4 46.5,73 44,70.6 	"/>
	<polyline id="XMLID_2_" class="st2" points="54.4,63.1 53,58.4 48.6,56.3 44.4,58.4 43.4,62.7 	"/>
	<polygon id="XMLID_23_" class="st3" points="88.2,64.3 85.3,55.9 80.5,52.7 73.5,52.1 66.9,55.5 64,61.5 64.7,70.8 68.4,75.3 
		74.4,77.7 81,76.6 86.3,72.2 	"/>
	<polygon id="XMLID_22_" class="st2" points="81.7,64.8 81.1,59.7 78.1,57.4 74.2,57.2 70.8,60.6 70.1,64.8 71.1,70.3 73.6,72.5 
		78.6,72.3 80.9,70.2 	"/>
	<g id="XMLID_3_">
		<g id="XMLID_4_">
			<g id="XMLID_17_">
				<path id="XMLID_18_" class="st4" d="M22.3,77.8c-2.2,0-4.1-0.3-5.7-1c-1.6-0.7-2.8-1.6-3.6-2.6c-0.8-1.1-1.2-2.2-1.2-3.2
					c0-0.7,0.3-1.4,0.8-1.9c0.5-0.5,1.2-0.8,2-0.8c0.7,0,1.2,0.2,1.6,0.5c0.4,0.3,0.7,0.8,1,1.4c0.6,1.1,1.3,1.9,2.2,2.4
					c0.9,0.5,2,0.8,3.4,0.8c1.2,0,2.1-0.3,2.9-0.8c0.7-0.5,1.1-1.1,1.1-1.7c0-1-0.4-1.7-1.1-2.2c-0.8-0.5-2.1-0.9-4-1.4
					c-2.1-0.5-3.9-1.1-5.2-1.7c-1.3-0.6-2.4-1.4-3.3-2.4c-0.8-1-1.2-2.2-1.2-3.6c0-1.3,0.4-2.5,1.1-3.7c0.7-1.1,1.8-2.1,3.3-2.7
					c1.5-0.7,3.2-1,5.2-1c1.6,0,3,0.2,4.3,0.5c1.3,0.3,2.4,0.8,3.2,1.4c0.9,0.6,1.5,1.2,2,1.9c0.5,0.7,0.7,1.4,0.7,2.1
					c0,0.8-0.3,1.4-0.8,1.9c-0.5,0.5-1.2,0.8-2.1,0.8c-0.7,0-1.2-0.2-1.7-0.6c-0.5-0.4-1-0.9-1.5-1.7c-0.4-0.6-1-1-1.6-1.4
					c-0.6-0.3-1.4-0.5-2.4-0.5c-1,0-1.9,0.2-2.6,0.7c-0.6,0.4-1,1-1,1.6c0,0.6,0.2,1.1,0.7,1.4c0.5,0.4,1.2,0.7,2.1,1
					c0.9,0.3,2.1,0.6,3.7,1c1.9,0.5,3.4,1,4.7,1.7c1.2,0.7,2.2,1.5,2.8,2.4c0.7,0.9,1,2,1,3.2c0,1.7-0.4,3.2-1.3,4.5
					c-0.8,1.3-2.1,2.2-3.7,2.9C26.6,77.4,24.6,77.7,22.3,77.8z M14.6,68.7c-0.7,0-1.2,0.2-1.7,0.7c-0.4,0.5-0.6,1-0.6,1.6
					c0,1,0.4,1.9,1.1,2.9c0.7,1,1.9,1.8,3.4,2.5c1.5,0.6,3.4,1,5.5,1c2.3,0,4.2-0.3,5.7-0.9c1.6-0.6,2.7-1.5,3.5-2.7
					c0.8-1.2,1.2-2.6,1.2-4.3c0-1.1-0.3-2-0.9-2.9c-0.6-0.8-1.5-1.6-2.6-2.2c-1.2-0.6-2.8-1.2-4.6-1.6c-1.7-0.4-2.9-0.7-3.8-1
					c-0.9-0.3-1.7-0.6-2.2-1.1c-0.6-0.5-0.9-1-0.9-1.8c0-0.8,0.4-1.4,1.2-2c0.8-0.5,1.7-0.8,2.9-0.8c1.1,0,2,0.2,2.7,0.6
					c0.7,0.4,1.2,0.9,1.7,1.5c0.6,0.7,1,1.2,1.5,1.6c0.4,0.3,0.9,0.5,1.5,0.5c0.8,0,1.4-0.2,1.8-0.6c0.4-0.4,0.6-0.9,0.6-1.6
					c0-0.6-0.2-1.2-0.6-1.9c-0.4-0.7-1-1.2-1.9-1.8c-0.8-0.5-1.9-1-3.1-1.3c-1.3-0.3-2.7-0.5-4.2-0.5c-2,0-3.6,0.3-5.1,1
					c-1.4,0.6-2.4,1.5-3.1,2.6c-0.7,1.1-1.1,2.2-1.1,3.4c0,1.3,0.4,2.5,1.1,3.4c0.8,0.9,1.8,1.7,3.1,2.2c1.3,0.6,3,1.1,5.1,1.6
					c1.9,0.5,3.3,1,4.1,1.4c0.9,0.5,1.3,1.4,1.3,2.6c0,0.8-0.4,1.5-1.3,2.1c-0.8,0.6-1.9,0.9-3.1,0.9c-1.5,0-2.7-0.3-3.7-0.8
					c-0.9-0.6-1.7-1.4-2.3-2.5c-0.3-0.5-0.6-1-0.9-1.3C15.6,68.8,15.1,68.7,14.6,68.7z"/>
			</g>
			<g id="XMLID_11_">
				<path id="XMLID_12_" class="st4" d="M49.3,77.7c-4,0-7.1-1.1-9.3-3.4c-2.2-2.3-3.3-5.5-3.3-9.4c0-1.9,0.3-3.6,0.8-5.2
					c0.6-1.6,1.3-3,2.4-4.1c1-1.2,2.3-2,3.9-2.6c1.5-0.6,3.2-0.9,5.1-0.9c2.4,0,4.5,0.5,6.2,1.5c1.8,1,3.1,2.4,3.9,4
					c0.9,1.6,1.3,3.3,1.3,5.1c0,1.6-0.5,2.7-1.4,3.2c-0.9,0.5-2.1,0.7-3.8,0.7l-11.7,0c0,1.3,0.3,2.4,0.8,3.4c0.5,1,1.2,1.8,2.1,2.3
					c0.9,0.5,1.8,0.8,2.9,0.8c0.7,0,1.3-0.1,1.9-0.3c0.6-0.2,1.1-0.4,1.7-0.8c0.6-0.4,1.1-0.8,1.5-1.2c0.5-0.4,1.1-1,1.8-1.7
					c0.3-0.3,0.8-0.5,1.5-0.5c0.7,0,1.3,0.2,1.7,0.6c0.4,0.4,0.7,0.9,0.7,1.6c0,0.6-0.2,1.3-0.7,2.1c-0.4,0.8-1.1,1.5-2,2.2
					c-0.9,0.7-2,1.3-3.3,1.8C52.6,77.4,51.1,77.7,49.3,77.7z M48.8,52.4c-1.8,0-3.4,0.3-4.9,0.9c-1.5,0.6-2.7,1.4-3.7,2.5
					c-1,1.1-1.7,2.4-2.3,4c-0.5,1.5-0.8,3.2-0.8,5c0,3.8,1.1,6.9,3.2,9.1c2.1,2.2,5.1,3.3,9,3.3c1.7,0,3.2-0.2,4.5-0.7
					c1.2-0.4,2.3-1,3.2-1.7c0.9-0.7,1.5-1.4,1.9-2.1c0.4-0.7,0.6-1.3,0.6-1.9c0-0.6-0.2-1-0.5-1.3c-0.3-0.3-0.8-0.5-1.4-0.5
					c-0.5,0-0.9,0.1-1.2,0.4c-0.8,0.8-1.4,1.3-1.8,1.7c-0.5,0.4-1,0.8-1.6,1.2c-0.6,0.4-1.2,0.7-1.8,0.8c-0.6,0.2-1.3,0.3-2.1,0.3
					c-1.1,0-2.1-0.3-3.1-0.8c-1-0.6-1.7-1.4-2.3-2.5c-0.6-1.1-0.9-2.4-0.9-3.8l0-0.2l12.1,0c1.6,0,2.8-0.2,3.6-0.7
					c0.8-0.4,1.2-1.4,1.2-2.8c0-1.6-0.4-3.3-1.3-4.9c-0.8-1.6-2.1-2.8-3.8-3.8C53.2,52.9,51.2,52.4,48.8,52.4z M54.4,63.1l-11.5,0
					l0-0.2c0.2-2.1,0.8-3.8,1.8-4.9c1-1.1,2.3-1.7,3.9-1.7c1.7,0,3,0.5,4,1.6c1,1.1,1.6,2.7,1.8,4.9L54.4,63.1z M43.4,62.7l10.6,0
					c-0.2-1.9-0.7-3.4-1.6-4.4c-0.9-1-2.1-1.5-3.7-1.5c-1.4,0-2.6,0.5-3.6,1.5C44.2,59.3,43.6,60.7,43.4,62.7z"/>
			</g>
			<g id="XMLID_5_">
				<path id="XMLID_6_" class="st4" d="M75.9,77.6c-1.9,0-3.5-0.3-5-0.9C69.3,76,68,75.2,66.9,74c-1.1-1.1-1.9-2.5-2.5-4.1
					c-0.6-1.6-0.8-3.3-0.9-5.2c0-1.9,0.3-3.6,0.8-5.2c0.6-1.6,1.4-3,2.5-4.1c1.1-1.1,2.4-2,3.9-2.6c1.5-0.6,3.2-0.9,5-0.9
					c1.9,0,3.6,0.3,5.1,0.9c1.5,0.6,2.8,1.5,4,2.6c1.1,1.2,1.9,2.5,2.5,4.1c0.6,1.6,0.9,3.3,0.9,5.2c0,1.8-0.3,3.6-0.8,5.2
					c-0.6,1.6-1.4,3-2.5,4.1c-1.1,1.1-2.4,2-3.9,2.6C79.5,77.3,77.8,77.6,75.9,77.6z M75.8,52.4c-1.8,0-3.4,0.3-4.9,0.9
					c-1.5,0.6-2.7,1.4-3.8,2.5c-1,1.1-1.8,2.4-2.4,3.9c-0.6,1.5-0.8,3.2-0.8,5.1c0,1.8,0.3,3.5,0.8,5c0.6,1.5,1.4,2.8,2.4,3.9
					c1,1.1,2.3,1.9,3.8,2.5c1.4,0.6,3.1,0.9,4.9,0.9c1.8,0,3.5-0.3,4.9-0.9c1.5-0.6,2.7-1.4,3.8-2.5c1-1.1,1.8-2.4,2.4-3.9
					c0.5-1.6,0.8-3.3,0.8-5c0-1.9-0.3-3.5-0.8-5c-0.5-1.5-1.3-2.8-2.4-3.9c-1.1-1.1-2.4-2-3.8-2.5C79.3,52.7,77.7,52.4,75.8,52.4z
					 M75.9,73c-1.3,0-2.4-0.3-3.3-1c-0.9-0.7-1.7-1.6-2.2-2.9c-0.5-1.2-0.8-2.6-0.8-4.3c0-1.7,0.2-3.2,0.7-4.4
					c0.5-1.3,1.2-2.2,2.2-2.9c0.9-0.7,2-1,3.3-1c1.9,0,3.4,0.7,4.6,2.2c1.1,1.4,1.7,3.5,1.7,6c0,2.5-0.5,4.5-1.7,6
					C79.3,72.2,77.8,73,75.9,73z M75.8,57c-1.1,0-2.1,0.3-3,0.9c-0.9,0.6-1.5,1.5-2,2.7c-0.5,1.2-0.7,2.6-0.7,4.2
					c0,1.6,0.3,3,0.7,4.1c0.5,1.2,1.1,2.1,2,2.7c0.9,0.6,1.9,0.9,3,0.9c1.8,0,3.2-0.7,4.2-2.1c1-1.4,1.6-3.3,1.6-5.7
					c0-2.5-0.5-4.4-1.6-5.8C79,57.6,77.6,57,75.8,57z"/>
			</g>
		</g>
	</g>
</g>
<g id="XMLID_25_">
</g>
<g id="XMLID_26_">
</g>
<g id="XMLID_27_">
</g>
<g id="XMLID_28_">
</g>
<g id="XMLID_57_">
</g>
<g id="XMLID_58_">
</g>
</svg>
