<?xml version="1.0" encoding="utf-8"?>
<!-- Generator: Adobe Illustrator 19.0.0, SVG Export Plug-In . SVG Version: 6.00 Build 0)  -->
<svg version="1.1" id="Warstwa_1" xmlns="http://www.w3.org/2000/svg" xmlns:xlink="http://www.w3.org/1999/xlink" x="0px" y="0px"
	 viewBox="0 0 100 100" style="enable-background:new 0 0 100 100;" xml:space="preserve">
<style type="text/css">
	.st0{fill:#0660AA;}
	.st1{fill:#010101;}
</style>
<rect id="XMLID_1_" x="34.5" y="13.4" class="st0" width="32.5" height="37.1"/>
<g id="XMLID_2_">
	<g id="XMLID_3_">
		<g id="XMLID_35_">
			<path id="XMLID_36_" class="st1" d="M85,82.5H15c-2.9,0-5.2-2.3-5.2-5.2V26.9c0-2.9,2.3-5.2,5.2-5.2h18.7c0.5,0,0.8,0.4,0.8,0.8
				v27.9H67V22.5c0-0.5,0.4-0.8,0.8-0.8H85c2.9,0,5.2,2.3,5.2,5.2v50.4C90.2,80.1,87.8,82.5,85,82.5z M15,23.3c-2,0-3.5,1.6-3.5,3.5
				v50.4c0,2,1.6,3.5,3.5,3.5h70c2,0,3.5-1.6,3.5-3.5V26.9c0-2-1.6-3.5-3.5-3.5H68.7v27.9c0,0.5-0.4,0.8-0.8,0.8H33.7
				c-0.5,0-0.8-0.4-0.8-0.8V23.3H15z"/>
		</g>
		<g id="XMLID_31_">
			<path id="XMLID_32_" class="st1" d="M62.7,96.7C62.7,96.7,62.7,96.7,62.7,96.7H37.3c-0.3,0-0.5-0.1-0.7-0.3
				c-0.2-0.2-0.2-0.5-0.1-0.7l3.7-14.2c0.1-0.4,0.4-0.6,0.8-0.6H59c0.4,0,0.7,0.3,0.8,0.6l3.7,14c0.1,0.1,0.1,0.3,0.1,0.4
				C63.5,96.3,63.2,96.7,62.7,96.7z M38.4,95h23.3l-3.3-12.6H41.7L38.4,95z"/>
		</g>
		<g id="XMLID_27_">
			<path id="XMLID_28_" class="st1" d="M73.9,100.1H26.1c-0.5,0-0.8-0.4-0.8-0.8v-3.5c0-0.5,0.4-0.8,0.8-0.8h47.8
				c0.5,0,0.8,0.4,0.8,0.8v3.5C74.7,99.8,74.4,100.1,73.9,100.1z M26.9,98.5h46.2v-1.8H26.9V98.5z"/>
		</g>
		<g id="XMLID_23_">
			<path id="XMLID_24_" class="st1" d="M84.9,68.9H15c-0.5,0-0.8-0.4-0.8-0.8V27c0-0.5,0.4-0.8,0.8-0.8h18.7c0.5,0,0.8,0.4,0.8,0.8
				v23.5H67V27c0-0.5,0.4-0.8,0.8-0.8h17c0.5,0,0.8,0.4,0.8,0.8v41.1C85.7,68.6,85.3,68.9,84.9,68.9z M15.8,67.3h68.3V27.8H68.7
				v23.5c0,0.5-0.4,0.8-0.8,0.8H33.7c-0.5,0-0.8-0.4-0.8-0.8V27.8H15.8V67.3z"/>
		</g>
		<g id="XMLID_19_">
			<path id="XMLID_20_" class="st1" d="M50,79.6c-1.4,0-2.5-1.1-2.5-2.5c0-1.4,1.1-2.5,2.5-2.5c1.4,0,2.5,1.1,2.5,2.5
				C52.5,78.5,51.4,79.6,50,79.6z M50,76.3c-0.5,0-0.8,0.4-0.8,0.8c0,0.5,0.4,0.8,0.8,0.8c0.5,0,0.8-0.4,0.8-0.8
				C50.8,76.6,50.5,76.3,50,76.3z"/>
		</g>
		<g id="XMLID_17_">
			<path id="XMLID_18_" class="st1" d="M72.3,56.6h-43c-0.5,0-0.8-0.4-0.8-0.8v-9.1c0-0.5,0.4-0.8,0.8-0.8c0.5,0,0.8,0.4,0.8,0.8V55
				h41.3v-8.3c0-0.5,0.4-0.8,0.8-0.8c0.5,0,0.8,0.4,0.8,0.8v9.1C73.1,56.3,72.7,56.6,72.3,56.6z"/>
		</g>
		<g id="XMLID_13_">
			<path id="XMLID_14_" class="st1" d="M67.9,52.1H33.7c-0.5,0-0.8-0.4-0.8-0.8V12.5c0-0.5,0.4-0.8,0.8-0.8h34.2
				c0.5,0,0.8,0.4,0.8,0.8v38.7C68.7,51.7,68.3,52.1,67.9,52.1z M34.5,50.5H67V13.4H34.5V50.5z"/>
		</g>
		<g id="XMLID_11_">
			<path id="XMLID_12_" class="st1" d="M58.7,20.6c-0.5,0-0.8-0.4-0.8-0.8V8.9c0-3.9-3.2-7.1-7.1-7.1S43.7,5,43.7,8.9v10.9
				c0,0.5-0.4,0.8-0.8,0.8S42,20.2,42,19.8V8.9c0-4.8,3.9-8.7,8.7-8.7s8.7,3.9,8.7,8.7v10.9C59.5,20.2,59.2,20.6,58.7,20.6z"/>
		</g>
		<g id="XMLID_4_">
			<g id="XMLID_5_">
				<path id="XMLID_6_" class="st1" d="M58.7,24.9c-1.6,0-3-1.3-3-3c0-1.6,1.3-3,3-3c1.6,0,3,1.3,3,3C61.7,23.5,60.3,24.9,58.7,24.9
					z M58.7,20.6c-0.7,0-1.3,0.6-1.3,1.3c0,0.7,0.6,1.3,1.3,1.3c0.7,0,1.3-0.6,1.3-1.3C60,21.2,59.4,20.6,58.7,20.6z M42.9,24.9
					c-1.6,0-3-1.3-3-3c0-1.6,1.3-3,3-3c1.6,0,3,1.3,3,3C45.8,23.5,44.5,24.9,42.9,24.9z M42.9,20.6c-0.7,0-1.3,0.6-1.3,1.3
					c0,0.7,0.6,1.3,1.3,1.3c0.7,0,1.3-0.6,1.3-1.3C44.2,21.2,43.6,20.6,42.9,20.6z"/>
			</g>
		</g>
	</g>
</g>
<g id="XMLID_39_">
</g>
<g id="XMLID_40_">
</g>
<g id="XMLID_41_">
</g>
<g id="XMLID_42_">
</g>
<g id="XMLID_43_">
</g>
<g id="XMLID_44_">
</g>
</svg>
