<?xml version="1.0" encoding="utf-8"?>
<!-- Generator: Adobe Illustrator 19.0.0, SVG Export Plug-In . SVG Version: 6.00 Build 0)  -->
<svg version="1.1" id="Warstwa_1" xmlns="http://www.w3.org/2000/svg" xmlns:xlink="http://www.w3.org/1999/xlink" x="0px" y="0px"
	 viewBox="0 0 100 100" style="enable-background:new 0 0 100 100;" xml:space="preserve">
<style type="text/css">
	.st0{fill:#0961AA;}
	.st1{fill:#010101;}
</style>
<polygon id="XMLID_47_" class="st0" points="30,45 70,45 70,31.1 56.7,25.9 50.3,31.6 43.3,25.9 30,31.1 "/>
<polyline id="XMLID_48_" class="st0" points="32.2,100.1 32.2,93.4 27.9,89.6 15.3,89.6 10.4,92.5 10.6,100.1 "/>
<polyline id="XMLID_49_" class="st0" points="59.8,100.1 59.8,93.4 55.6,89.6 42.9,89.6 38,92.5 38.2,100.1 "/>
<polyline id="XMLID_50_" class="st0" points="89.5,100.1 89.5,93.4 85.3,89.6 72.6,89.6 67.7,92.5 67.9,100.1 "/>
<g id="XMLID_2_">
	<g id="XMLID_3_">
		<g id="XMLID_43_">
			<path id="XMLID_44_" class="st1" d="M70.8,46.7H29.2c-0.5,0-0.8-0.4-0.8-0.8V30.6c0-0.3,0.2-0.6,0.5-0.8l14.3-5.6
				c0.3-0.1,0.6,0,0.9,0.2l5.7,5.5l6.2-5.5c0.2-0.2,0.6-0.3,0.8-0.2l14.3,5.6c0.3,0.1,0.5,0.4,0.5,0.8v15.3
				C71.6,46.3,71.2,46.7,70.8,46.7z M30,45H70V31.1l-13.3-5.2l-6.4,5.7c-0.3,0.3-0.8,0.3-1.1,0l-5.9-5.7L30,31.1V45z"/>
		</g>
		<g id="XMLID_41_">
			<path id="XMLID_42_" class="st1" d="M63.8,46.6H36.2c-0.5,0-0.8-0.4-0.8-0.8v-9.6c0-0.5,0.4-0.8,0.8-0.8c0.5,0,0.8,0.4,0.8,0.8
				V45H63v-8.8c0-0.5,0.4-0.8,0.8-0.8c0.5,0,0.8,0.4,0.8,0.8v9.6C64.6,46.3,64.2,46.6,63.8,46.6z"/>
		</g>
		<g id="XMLID_39_">
			<path id="XMLID_40_" class="st1" d="M56.9,33.1H43.1c-0.5,0-0.8-0.4-0.8-0.8V25c0-0.5,0.4-0.8,0.8-0.8s0.8,0.4,0.8,0.8v6.5h12.1
				V25c0-0.5,0.4-0.8,0.8-0.8s0.8,0.4,0.8,0.8v7.3C57.7,32.7,57.3,33.1,56.9,33.1z"/>
		</g>
		<g id="XMLID_35_">
			<path id="XMLID_36_" class="st1" d="M52.1,37.9h-4.1c-0.5,0-0.8-0.4-0.8-0.8v-4.8c0-0.5,0.4-0.8,0.8-0.8h4.1
				c0.5,0,0.8,0.4,0.8,0.8v4.8C52.9,37.5,52.5,37.9,52.1,37.9z M48.8,36.3h2.5v-3.1h-2.5V36.3z"/>
		</g>
		<g id="XMLID_31_">
			<path id="XMLID_32_" class="st1" d="M53.8,46.7h-7.9c-0.3,0-0.5-0.1-0.6-0.3C45,46.2,45,45.9,45,45.7l2.1-8.8
				c0.1-0.4,0.4-0.6,0.8-0.6h4.1c0.4,0,0.7,0.3,0.8,0.7l1.7,8.8c0,0.2,0,0.5-0.2,0.7C54.2,46.6,54,46.7,53.8,46.7z M46.9,45h5.9
				l-1.4-7.1h-2.8L46.9,45z"/>
		</g>
		<g id="XMLID_27_">
			<path id="XMLID_28_" class="st1" d="M50.2,22.2c-6.1,0-11.1-5-11.1-11.1c0-6.1,5-11.1,11.1-11.1c6.1,0,11.1,5,11.1,11.1
				C61.3,17.2,56.3,22.2,50.2,22.2z M50.2,1.6c-5.2,0-9.5,4.3-9.5,9.5c0,5.2,4.3,9.5,9.5,9.5c5.2,0,9.5-4.3,9.5-9.5
				C59.7,5.8,55.4,1.6,50.2,1.6z"/>
		</g>
		<g id="XMLID_25_">
			<path id="XMLID_26_" class="st1" d="M58,9.5c-2.8,0-5.3-0.8-7.3-2.3c-0.4-0.3-0.4-0.8-0.1-1.2c0.3-0.4,0.8-0.4,1.2-0.1
				c2.1,1.6,5.3,2.3,8.3,1.8c0.4-0.1,0.9,0.2,1,0.7c0.1,0.4-0.2,0.9-0.7,1C59.6,9.5,58.8,9.5,58,9.5z"/>
		</g>
		<g id="XMLID_23_">
			<path id="XMLID_24_" class="st1" d="M44.8,9.3c-1.6,0-3.2-0.3-4.6-0.8c-0.4-0.2-0.6-0.6-0.5-1.1C39.8,7,40.3,6.8,40.7,7
				c1.2,0.5,2.6,0.7,4,0.7c4.6,0,8.4-2.6,8.4-5.8c0-0.5,0.4-0.8,0.8-0.8c0.5,0,0.8,0.4,0.8,0.8C54.8,6,50.3,9.3,44.8,9.3z"/>
		</g>
		<g id="XMLID_8_">
			<g id="XMLID_9_">
				<path id="XMLID_10_" class="st1" d="M89.4,100.1c-0.5,0-0.8-0.4-0.8-0.8v-3.9c0-3-2.4-5.4-5.5-5.4h-9.1c-3,0-5.5,2.4-5.5,5.4
					v3.9c0,0.5-0.4,0.8-0.8,0.8c-0.5,0-0.8-0.4-0.8-0.8v-3.9c0-3.9,3.2-7.1,7.1-7.1h9.1c3.9,0,7.1,3.2,7.1,7.1v3.9
					C90.2,99.7,89.9,100.1,89.4,100.1z M59.7,100.1c-0.5,0-0.8-0.4-0.8-0.8v-3.9c0-3-2.4-5.4-5.5-5.4h-9.1c-3,0-5.5,2.4-5.5,5.4v3.9
					c0,0.5-0.4,0.8-0.8,0.8s-0.8-0.4-0.8-0.8v-3.9c0-3.9,3.2-7.1,7.1-7.1h9.1c3.9,0,7.1,3.2,7.1,7.1v3.9
					C60.5,99.7,60.2,100.1,59.7,100.1z M32.2,100.1c-0.5,0-0.8-0.4-0.8-0.8v-3.9c0-3-2.4-5.4-5.5-5.4h-9.1c-3,0-5.5,2.4-5.5,5.4v3.9
					c0,0.5-0.4,0.8-0.8,0.8c-0.5,0-0.8-0.4-0.8-0.8v-3.9c0-3.9,3.2-7.1,7.1-7.1h9.1c3.9,0,7.1,3.2,7.1,7.1v3.9
					C33,99.7,32.7,100.1,32.2,100.1z M78.4,87.2c-3.7,0-6.7-3-6.7-6.7c0-3.7,3-6.7,6.7-6.7c3.7,0,6.7,3,6.7,6.7
					C85.2,84.2,82.1,87.2,78.4,87.2z M73.4,80.9c0.2,2.6,2.4,4.6,5.1,4.6c2.8,0,5.1-2.3,5.1-5.1c0-0.2,0-0.4,0-0.6
					c-1.4,0.1-2.9-0.2-4.1-1C77.8,80.5,75.5,81.3,73.4,80.9z M73.5,79.2c0.3,0.1,0.6,0.1,1,0.1c1.6,0,3.1-0.7,4.1-2
					c0.1-0.2,0.3-0.3,0.6-0.3c0.2,0,0.4,0,0.6,0.2c0.9,0.7,2.1,1.1,3.3,1.1c-0.8-1.7-2.6-2.9-4.6-2.9C76.1,75.4,74.1,77,73.5,79.2z
					 M48.7,87.2c-3.7,0-6.7-3-6.7-6.7c0-3.7,3-6.7,6.7-6.7c3.7,0,6.7,3,6.7,6.7C55.5,84.2,52.4,87.2,48.7,87.2z M43.7,80.9
					c0.2,2.6,2.4,4.6,5.1,4.6c2.8,0,5.1-2.3,5.1-5.1c0-0.2,0-0.4,0-0.6c-1.4,0.1-2.9-0.2-4.1-1C48.1,80.5,45.8,81.2,43.7,80.9z
					 M43.8,79.2c0.3,0.1,0.6,0.1,1,0.1c1.6,0,3.1-0.8,4.1-2c0.1-0.2,0.3-0.3,0.6-0.3c0.2,0,0.4,0,0.6,0.2c0.9,0.7,2.1,1.1,3.3,1.1
					c-0.8-1.7-2.6-2.9-4.6-2.9C46.4,75.4,44.4,77,43.8,79.2z M21.2,87.2c-3.7,0-6.7-3-6.7-6.7c0-3.7,3-6.7,6.7-6.7
					c3.7,0,6.7,3,6.7,6.7C27.9,84.2,24.9,87.2,21.2,87.2z M16.2,80.9c0.2,2.6,2.4,4.6,5.1,4.6c2.8,0,5.1-2.3,5.1-5.1
					c0-0.2,0-0.4,0-0.6c-1.4,0.1-2.9-0.2-4.1-1c-1.3,1.3-3,2.1-4.9,2.1C16.9,81,16.5,80.9,16.2,80.9z M16.3,79.2
					c0.3,0.1,0.6,0.1,1,0.1c1.6,0,3.1-0.7,4.1-2c0.1-0.2,0.3-0.3,0.6-0.3c0.2,0,0.4,0,0.6,0.2c0.9,0.8,2.1,1.1,3.3,1.1
					c-0.8-1.7-2.6-2.9-4.6-2.9C18.9,75.4,16.9,77,16.3,79.2z"/>
			</g>
		</g>
		<g id="XMLID_6_">
			<path id="XMLID_7_" class="st1" d="M78.8,72.2c-0.5,0-0.8-0.4-0.8-0.8V60.1l-56-0.6v11.7c0,0.5-0.4,0.8-0.8,0.8
				c-0.5,0-0.8-0.4-0.8-0.8V58.6c0-0.2,0.1-0.4,0.2-0.6c0.2-0.2,0.4-0.2,0.6-0.2l57.6,0.6c0.5,0,0.8,0.4,0.8,0.8v12.1
				C79.6,71.8,79.3,72.2,78.8,72.2z"/>
		</g>
		<g id="XMLID_4_">
			<path id="XMLID_5_" class="st1" d="M49.8,65.8c-0.5,0-0.8-0.4-0.8-0.8V45.9c0-0.5,0.4-0.8,0.8-0.8c0.5,0,0.8,0.4,0.8,0.8V65
				C50.6,65.4,50.2,65.8,49.8,65.8z"/>
		</g>
	</g>
</g>
<g id="XMLID_1_">
</g>
<g id="XMLID_51_">
</g>
<g id="XMLID_52_">
</g>
<g id="XMLID_53_">
</g>
<g id="XMLID_54_">
</g>
<g id="XMLID_55_">
</g>
</svg>
