<?xml version="1.0" encoding="utf-8"?>
<!-- Generator: Adobe Illustrator 19.0.0, SVG Export Plug-In . SVG Version: 6.00 Build 0)  -->
<svg version="1.1" id="Warstwa_1" xmlns="http://www.w3.org/2000/svg" xmlns:xlink="http://www.w3.org/1999/xlink" x="0px" y="0px"
	 viewBox="0 0 100 100" style="enable-background:new 0 0 100 100;" xml:space="preserve">
<style type="text/css">
	.st0{fill:#0660AA;}
	.st1{fill:#010101;}
	.st2{fill:#FFFFFF;}
</style>
<rect id="XMLID_2_" x="12.8" y="23.2" class="st0" width="73.7" height="41.4"/>
<g id="XMLID_3_">
	<g id="XMLID_4_">
		<g id="XMLID_70_">
			<path id="XMLID_71_" class="st1" d="M91.4,70.3H8.6c-0.5,0-0.8-0.4-0.8-0.8V24c0-2.7,2.2-5,5-5h74.5c2.7,0,5,2.2,5,5v45.5
				C92.2,70,91.8,70.3,91.4,70.3z M9.4,68.7h81.1V24c0-1.8-1.5-3.3-3.3-3.3H12.8c-1.8,0-3.3,1.5-3.3,3.3V68.7z"/>
		</g>
		<g id="XMLID_66_">
			<path id="XMLID_67_" class="st1" d="M87.2,66.2H12.8c-0.5,0-0.8-0.4-0.8-0.8V24c0-0.5,0.4-0.8,0.8-0.8h74.5
				c0.5,0,0.8,0.4,0.8,0.8v41.4C88.1,65.8,87.7,66.2,87.2,66.2z M13.6,64.5h72.8V24.8H13.6V64.5z"/>
		</g>
		<g id="XMLID_62_">
			<path id="XMLID_63_" class="st1" d="M93.8,81H6.2C2.8,81,0,78.2,0,74.8v-5.3c0-0.5,0.4-0.8,0.8-0.8h98.4c0.5,0,0.8,0.4,0.8,0.8
				v5.3C100,78.2,97.2,81,93.8,81z M1.6,70.3v4.5c0,2.5,2,4.5,4.5,4.5h87.7c2.5,0,4.5-2,4.5-4.5v-4.5H1.6z"/>
		</g>
		<g id="XMLID_58_">
			<path id="XMLID_59_" class="st1" d="M50,77.7c-1.6,0-2.9-1.3-2.9-2.9c0-1.6,1.3-2.9,2.9-2.9c1.6,0,2.9,1.3,2.9,2.9
				C52.9,76.4,51.6,77.7,50,77.7z M50,73.6c-0.7,0-1.2,0.6-1.2,1.3c0,0.7,0.6,1.2,1.2,1.2c0.7,0,1.3-0.6,1.3-1.2
				C51.2,74.1,50.7,73.6,50,73.6z"/>
		</g>
		<g id="XMLID_1_">
			<g id="XMLID_29_">
				<path id="XMLID_30_" class="st2" d="M80,38.4H19.5c-0.6,0-1.1-0.3-1.1-0.6v-8.5c0-0.4,0.5-0.6,1.1-0.6H80c0.6,0,1.1,0.3,1.1,0.6
					v8.5C81.2,38.1,80.7,38.4,80,38.4z M20.7,37.1h58.3v-7.2H20.7V37.1z"/>
			</g>
			<g id="XMLID_27_">
				<path id="XMLID_28_" class="st2" d="M78.9,44H20.7c-0.6,0-1.1-0.3-1.1-0.6c0-0.4,0.5-0.6,1.1-0.6h58.2c0.6,0,1.1,0.3,1.1,0.6
					C80,43.7,79.5,44,78.9,44z"/>
			</g>
			<g id="XMLID_25_">
				<path id="XMLID_26_" class="st2" d="M78.9,49.3H20.7c-0.6,0-1.1-0.3-1.1-0.6c0-0.4,0.5-0.6,1.1-0.6h58.2c0.6,0,1.1,0.3,1.1,0.6
					C80,49,79.5,49.3,78.9,49.3z"/>
			</g>
			<g id="XMLID_23_">
				<path id="XMLID_24_" class="st2" d="M78.9,54.6H38.8c-0.6,0-1.1-0.3-1.1-0.6c0-0.4,0.5-0.6,1.1-0.6h40.1c0.6,0,1.1,0.3,1.1,0.6
					C80,54.3,79.5,54.6,78.9,54.6z"/>
			</g>
			<g id="XMLID_21_">
				<path id="XMLID_22_" class="st2" d="M64.3,59.9H20.7c-0.6,0-1.1-0.3-1.1-0.6c0-0.4,0.5-0.6,1.1-0.6h43.7c0.6,0,1.1,0.3,1.1,0.6
					C65.4,59.6,64.9,59.9,64.3,59.9z"/>
			</g>
		</g>
	</g>
</g>
<g id="XMLID_5_">
</g>
<g id="XMLID_6_">
</g>
<g id="XMLID_7_">
</g>
<g id="XMLID_8_">
</g>
<g id="XMLID_9_">
</g>
<g id="XMLID_10_">
</g>
</svg>
