<?xml version="1.0" encoding="utf-8"?>
<!-- Generator: Adobe Illustrator 19.0.0, SVG Export Plug-In . SVG Version: 6.00 Build 0)  -->
<svg version="1.1" id="Capa_1" xmlns="http://www.w3.org/2000/svg" xmlns:xlink="http://www.w3.org/1999/xlink" x="0px" y="0px"
	 viewBox="-650 2477 48 48" style="enable-background:new -650 2477 48 48;" xml:space="preserve">
<style type="text/css">
	.st0{fill:#FFFFFF;}
</style>
<g>
	<path class="st0" d="M-621.8,2501l18.9-18.9c1.2-1.2,1.2-3.1,0-4.2c-1.2-1.2-3.1-1.2-4.2,0l-18.9,18.9l-18.9-18.9
		c-1.2-1.2-3.1-1.2-4.2,0c-1.2,1.2-1.2,3.1,0,4.2l18.9,18.9l-18.9,18.9c-1.2,1.2-1.2,3.1,0,4.2c0.6,0.6,1.4,0.9,2.1,0.9
		s1.5-0.3,2.1-0.9l18.9-18.9l18.9,18.9c0.6,0.6,1.4,0.9,2.1,0.9c0.8,0,1.5-0.3,2.1-0.9c1.2-1.2,1.2-3.1,0-4.2L-621.8,2501z"/>
</g>
</svg>
