<?xml version="1.0" encoding="utf-8"?>
<!-- Generator: Adobe Illustrator 19.0.0, SVG Export Plug-In . SVG Version: 6.00 Build 0)  -->
<svg version="1.1" id="Capa_1" xmlns="http://www.w3.org/2000/svg" xmlns:xlink="http://www.w3.org/1999/xlink" x="0px" y="0px"
	 viewBox="-12 14.8 73.2 73.2" style="enable-background:new -12 14.8 73.2 73.2;" xml:space="preserve">
<style type="text/css">
	.st0{fill:#FFFFFF;}
</style>
<g>
	<g id="Navigation">
		<g>
			<path class="st0" d="M-4.1,32.4h57.2c2.1,0,3.8-1.7,3.8-3.8s-1.7-3.8-3.8-3.8H-4.1c-2.1,0-3.8,1.7-3.8,3.8S-6.2,32.4-4.1,32.4z
				 M53.1,48.2H-4.1c-2.1,0-3.8,1.7-3.8,3.8s1.7,3.8,3.8,3.8h57.2c2.1,0,3.8-1.7,3.8-3.8C56.8,49.9,55.1,48.2,53.1,48.2z M53.1,71.6
				H-4.1c-2.1,0-3.8,1.7-3.8,3.8s1.7,3.8,3.8,3.8h57.2c2.1,0,3.8-1.7,3.8-3.8C56.8,73.3,55.1,71.6,53.1,71.6z"/>
		</g>
	</g>
</g>
</svg>
