<?xml version="1.0" encoding="utf-8"?>
<!-- Generator: Adobe Illustrator 19.0.0, SVG Export Plug-In . SVG Version: 6.00 Build 0)  -->
<svg version="1.1" id="Capa_1" xmlns="http://www.w3.org/2000/svg" xmlns:xlink="http://www.w3.org/1999/xlink" x="0px" y="0px"
	 viewBox="-637 2464.8 73.2 73.2" style="enable-background:new -637 2464.8 73.2 73.2;" xml:space="preserve">
<style type="text/css">
	.st0{fill:#7F7F7F;}
</style>
<g>
	<g id="Navigation">
		<g>
			<path class="st0" d="M-629,2481.5h57.2c2.1,0,3.8-1.7,3.8-3.8c0-2.1-1.7-3.8-3.8-3.8H-629c-2.1,0-3.8,1.7-3.8,3.8
				C-632.8,2479.8-631.1,2481.5-629,2481.5z M-571.8,2497.3H-629c-2.1,0-3.8,1.7-3.8,3.8c0,2.1,1.7,3.8,3.8,3.8h57.2
				c2.1,0,3.8-1.7,3.8-3.8C-568.1,2499-569.8,2497.3-571.8,2497.3z M-571.8,2520.7H-629c-2.1,0-3.8,1.7-3.8,3.8
				c0,2.1,1.7,3.8,3.8,3.8h57.2c2.1,0,3.8-1.7,3.8-3.8C-568.1,2522.4-569.8,2520.7-571.8,2520.7z"/>
		</g>
	</g>
</g>
</svg>
